<?xml version="1.0" standalone="no"?>
<!DOCTYPE svg PUBLIC "-//W3C//DTD SVG 1.1//EN" "http://www.w3.org/Graphics/SVG/1.1/DTD/svg11.dtd" >
<svg xmlns="http://www.w3.org/2000/svg" xmlns:xlink="http://www.w3.org/1999/xlink" version="1.1">
<metadata>
Created by FontForge 20150824 at Wed Mar  9 05:24:47 2016
 By Everything Fonts
Copyright (c) 2014 ParaType, Inc., ParaType Ltd. All rights reserved.
</metadata>
<defs>
<font id="STM65" horiz-adv-x="620" >
  <font-face 
    font-family="STM65"
    font-weight="500"
    font-stretch="normal"
    units-per-em="1000"
    panose-1="2 11 6 3 2 2 3 2 2 4"
    ascent="778"
    descent="-222"
    x-height="520"
    cap-height="700"
    bbox="-491 -278 1295 962"
    underline-thickness="50"
    underline-position="-150"
    unicode-range="U+0020-FEFF"
  />
<missing-glyph horiz-adv-x="236" 
 />
    <glyph glyph-name="uniF350.var.accented" unicode="&#xf350;`" horiz-adv-x="605" 
d="M-2 0l261 560h88l261 -560h-123l-53 109h-261l-53 -109h-120zM301 387l-89 -179h177zM437 769l-127 -158l-76 54l118 168z" />
    <glyph glyph-name="uniF355.var.accented" unicode="&#xf355;`" horiz-adv-x="550" 
d="M58 0v560h448v-109h-331v-114h309v-106h-309v-122h339v-109h-456zM417 769l-127 -158l-76 54l118 168z" />
    <glyph glyph-name="uniF358.var.accented" unicode="&#xf358;`" horiz-adv-x="638" 
d="M154 0h-96v560h117v-351l307 351h98v-560h-117v352zM444 769l-127 -158l-76 54l118 168z" />
    <glyph glyph-name="uniF35E.var.accented" unicode="&#xf35e;`" horiz-adv-x="665" 
d="M27 280q0 121 88.5 203.5t217.5 82.5q128 0 216.5 -81.5t88.5 -204.5t-88.5 -204.5t-216.5 -81.5t-217 81.5t-89 204.5zM149 280q0 -78 54 -125.5t130 -47.5q78 0 130.5 47.5t52.5 125.5t-54 125.5t-129 47.5q-77 0 -130.5 -47.5t-53.5 -125.5zM474 769l-127 -158l-76 54
l118 168z" />
    <glyph glyph-name="uniF363.var.accented" unicode="&#xf363;`" horiz-adv-x="609" 
d="M168 13l44 102q7 -5 18 -5q27 0 47 33l3 5l-280 412h144l196 -292l147 292h123l-218 -429q-34 -67 -70.5 -99t-88.5 -32q-40 0 -65 13zM441 769l-127 -158l-76 54l118 168z" />
    <glyph glyph-name="uniF36B.var.accented" unicode="&#xf36b;`" horiz-adv-x="742" 
d="M568 0v560h117v-560h-117zM272 261h-97v-152h95q67 0 98.5 17.5t31.5 61.5q0 73 -128 73zM175 560v-189h99q121 0 184.5 -49t63.5 -134q0 -92 -67 -140t-188 -48h-209v560h117zM474 769l-127 -158l-76 54l118 168z" />
    <glyph glyph-name="uniF36D.var.accented" unicode="&#xf36d;`" horiz-adv-x="598" 
d="M174 231v109h275q-13 55 -61.5 86t-123.5 31q-48 0 -96.5 -17.5t-80.5 -55.5l-78 75q42 53 112 80t148 27q139 0 220.5 -76.5t81.5 -207.5q0 -128 -82.5 -208t-226.5 -80q-175 0 -259 117l78 67q57 -75 185 -75q76 0 125.5 35t58.5 93h-276zM401 769l-127 -158l-76 54
l118 168z" />
    <glyph glyph-name="uniF36E.var.accented" unicode="&#xf36e;`" horiz-adv-x="861" 
d="M58 0v560h117v-225h74q17 102 97 166.5t193 64.5q133 0 214 -80t81 -206q0 -124 -84 -205t-211 -81q-119 0 -198 64t-93 177h-73v-235h-117zM364 280q0 -79 50 -128t125 -49q79 0 126 48t47 129t-47.5 129t-125.5 48q-76 0 -125.5 -48.5t-49.5 -128.5zM584 769l-127 -158
l-76 54l118 168z" />
    <glyph glyph-name="uniF36F.var.accented" unicode="&#xf36f;`" horiz-adv-x="591" 
d="M417 0v188h-117l-160 -188h-139l180 209q-138 40 -138 163q0 83 63.5 135.5t181.5 52.5h246v-560h-117zM273 297h144v154h-136q-117 0 -117 -78q0 -32 30 -53.5t79 -22.5zM437 769l-127 -158l-76 54l118 168z" />
    <glyph glyph-name="uniF371.var.accented" unicode="&#xf371;`" horiz-adv-x="550" 
d="M82 698q0 25 19 41.5t44 16.5t45 -17t20 -41q0 -26 -20 -43t-45 -17q-26 0 -44.5 16.5t-18.5 43.5zM366 698q0 25 19.5 41.5t46.5 16.5q26 0 45.5 -16.5t19.5 -41.5q0 -27 -19 -43.5t-46 -16.5t-46.5 16.5t-19.5 43.5zM383 789l-102 -164l-57 21l60 173zM58 0v560h448
v-109h-331v-114h309v-106h-309v-122h339v-109h-456z" />
    <glyph glyph-name="afii10017.var.accented" unicode="&#x410;`" horiz-adv-x="704" 
d="M-1 0l307 700h92l307 -700h-127l-68 155h-319l-67 -155h-125zM350 525l-115 -266h230zM535 849l-220 -104l-43 76l210 128z" />
    <glyph glyph-name="afii10022.var.accented" unicode="&#x415;`" horiz-adv-x="645" 
d="M70 0v700h520v-114h-399v-176h373v-110h-373v-186h409v-114h-530zM515 849l-220 -104l-43 76l210 128z" />
    <glyph glyph-name="afii10026.var.accented" unicode="&#x418;`" horiz-adv-x="747" 
d="M171 0h-101v700h121v-485l384 485h102v-700h-121v485zM552 849l-220 -104l-43 76l210 128z" />
    <glyph glyph-name="afii10032.var.accented" unicode="&#x41e;`" horiz-adv-x="782" 
d="M33 350q0 151 103.5 254.5t254.5 103.5t254.5 -102t103.5 -256q0 -153 -104 -255.5t-254 -102.5t-254 102t-104 256zM159 350q0 -106 68 -174t164 -68q99 0 165.5 67.5t66.5 174.5q0 106 -68.5 174t-163.5 68q-96 0 -164 -67.5t-68 -174.5zM555 849l-220 -104l-43 76
l210 128z" />
    <glyph glyph-name="afii10037.var.accented" unicode="&#x423;`" horiz-adv-x="707" 
d="M196 14l47 101q12 -5 23 -5q33 0 67 70l-333 520h149l246 -393l185 393h127l-259 -538q-40 -84 -81.5 -124.5t-103.5 -40.5q-36 0 -67 17zM542 849l-220 -104l-43 76l210 128z" />
    <glyph glyph-name="afii10045.var.accented" unicode="&#x42b;`" horiz-adv-x="865" 
d="M675 0v700h121v-700h-121zM318 340h-127v-226h125q84 0 125.5 27t41.5 90q0 109 -165 109zM191 700v-247h130q142 0 215 -59t73 -163q0 -113 -77.5 -172t-219.5 -59h-242v700h121zM609 849l-220 -104l-43 76l210 128z" />
    <glyph glyph-name="afii10047.var.accented" unicode="&#x42d;`" horiz-adv-x="701" 
d="M204 301v113h337q-14 84 -75.5 132.5t-158.5 48.5q-57 0 -116 -25t-98 -74l-80 78q49 66 130 100t170 34q164 0 259.5 -96t95.5 -259q0 -160 -97 -260.5t-266 -100.5q-86 0 -165.5 33t-132.5 108l82 69q35 -48 95.5 -72.5t125.5 -24.5q97 0 159.5 53.5t73.5 142.5h-339z
M485 849l-220 -104l-43 76l210 128z" />
    <glyph glyph-name="afii10048.var.accented" unicode="&#x42e;`" horiz-adv-x="997" 
d="M70 0v700h121v-291h89q19 130 112.5 214.5t227.5 84.5q154 0 249 -100.5t95 -257.5q0 -155 -98 -256.5t-246 -101.5q-140 0 -232.5 84.5t-108.5 227.5h-88v-304h-121zM400 350q0 -108 62.5 -176.5t157.5 -68.5q99 0 158.5 67.5t59.5 177.5q0 109 -60.5 177t-157.5 68
q-95 0 -157.5 -68t-62.5 -177zM752 849l-220 -104l-43 76l210 128z" />
    <glyph glyph-name="afii10049.var.accented" unicode="&#x42f;`" horiz-adv-x="691" 
d="M500 0v246h-155l-197 -246h-145l217 267q-80 20 -124 73.5t-44 131.5q0 100 73 164t211 64h285v-700h-121zM315 359h185v228h-173q-149 0 -149 -115q0 -47 37 -78.5t100 -34.5zM549 849l-220 -104l-43 76l210 128z" />
    <glyph glyph-name="afii10023.var.accented" unicode="&#x401;`" horiz-adv-x="645" 
d="M110 821q0 27 20 44.5t49 17.5q26 0 46.5 -18t20.5 -44q0 -27 -20.5 -44.5t-46.5 -17.5q-30 0 -49.5 17.5t-19.5 44.5zM425 821q0 27 20.5 44.5t48.5 17.5q27 0 47 -17.5t20 -44.5t-20 -44.5t-47 -17.5q-28 0 -48.5 17.5t-20.5 44.5zM433 917l-94 -152l-66 17l52 168z
M70 0v700h520v-114h-399v-176h373v-110h-373v-186h409v-114h-530z" />
    <glyph glyph-name="afii10065.var.accented" unicode="&#x430;`" horiz-adv-x="534" 
d="M109 371l-56 84q37 36 95.5 56.5t122.5 20.5q102 0 157.5 -56t55.5 -158v-318h-114v57q-57 -63 -161 -63q-86 0 -137.5 44.5t-51.5 119.5q0 83 66.5 124t176.5 41q65 0 107 -14q1 59 -25 88t-87 29q-77 0 -149 -55zM234 93q89 0 136 71v50q-42 14 -95 14q-137 0 -137 -69
q0 -31 26 -48.5t70 -17.5zM418 755l-127 -157l-77 54l118 167z" />
    <glyph glyph-name="afii10070.var.accented" unicode="&#x435;`" horiz-adv-x="569" 
d="M449 166l70 -69q-79 -106 -211 -106q-126 0 -202.5 73.5t-76.5 196.5q0 119 70.5 195t196.5 76q106 0 175 -65.5t69 -172.5q0 -26 -6 -73h-386q7 -60 51 -92t111 -32q88 0 139 69zM291 429q-57 0 -94 -29t-48 -80h273q-7 53 -41 81t-90 28zM445 755l-127 -157l-77 54
l118 167z" />
    <glyph glyph-name="afii10074.var.accented" unicode="&#x438;`" horiz-adv-x="596" 
d="M152 0h-99v520h114v-339l276 339h99v-520h-114v338zM454 755l-127 -157l-77 54l118 167z" />
    <glyph glyph-name="afii10080.var.accented" unicode="&#x43e;`" horiz-adv-x="615" 
d="M29 261q0 118 77.5 194.5t200.5 76.5t201 -76.5t78 -194.5q0 -117 -78 -193.5t-201 -76.5q-121 0 -199.5 76.5t-78.5 193.5zM147 261q0 -71 44.5 -117.5t115.5 -46.5q72 0 116.5 45t44.5 119t-46 119.5t-115 45.5q-70 0 -115 -45t-45 -120zM459 755l-127 -157l-77 54
l118 167z" />
    <glyph glyph-name="afii10085.var.accented" unicode="&#x443;`" horiz-adv-x="548" 
d="M75 -194l45 97q10 -6 23 -6q47 0 82 87l18 47l-256 489h132l179 -351l138 351h122l-204 -505q-52 -127 -97.5 -175.5t-109.5 -48.5q-42 0 -72 15zM431 755l-127 -157l-77 54l118 167z" />
    <glyph glyph-name="afii10093.var.accented" unicode="&#x44b;`" horiz-adv-x="696" 
d="M53 0v520h114v-151h90q117 0 168.5 -50.5t51.5 -132.5q0 -80 -55 -133t-173 -53h-196zM248 263h-81v-157h80q60 0 86 19.5t26 59.5q0 39 -26 58.5t-85 19.5zM529 0v520h114v-520h-114zM474 755l-127 -157l-77 54l118 167z" />
    <glyph glyph-name="afii10095.var.accented" unicode="&#x44d;`" horiz-adv-x="547" 
d="M155 216v99h243q-24 111 -157 111q-101 0 -153 -76l-83 61q88 121 245 121q123 0 196 -73.5t73 -197.5q0 -118 -73.5 -194t-200.5 -76q-78 0 -143 28t-97 87l83 60q50 -69 147 -69q69 0 112 32t53 87h-245zM393 755l-127 -157l-77 54l118 167z" />
    <glyph glyph-name="afii10096.var.accented" unicode="&#x44e;`" horiz-adv-x="815" 
d="M53 0v520h114v-202h90q18 97 87.5 155.5t172.5 58.5q119 0 194 -76.5t75 -194.5q0 -117 -75.5 -193.5t-193.5 -76.5q-107 0 -177 61.5t-85 162.5h-88v-215h-114zM370 261q0 -74 41.5 -119t106.5 -45q67 0 108.5 45t41.5 119q0 75 -41.5 120t-108.5 45q-63 0 -105.5 -45.5
t-42.5 -119.5zM575 755l-127 -157l-77 54l118 167z" />
    <glyph glyph-name="afii10097.var.accented" unicode="&#x44f;`" horiz-adv-x="539" 
d="M272 520h214v-520h-114v171h-97l-132 -171h-133l150 190q-55 13 -87 55.5t-32 102.5q0 76 55.5 124t175.5 48zM159 344q0 -30 26 -48.5t74 -18.5h113v137h-110q-103 0 -103 -70zM452 755l-127 -157l-77 54l118 167z" />
    <glyph glyph-name="afii10071.var.accented" unicode="&#x451;`" horiz-adv-x="569" 
d="M89 672q0 25 19 41.5t44 16.5q24 0 44 -16.5t20 -41.5q0 -27 -19.5 -44t-44.5 -17q-26 0 -44.5 17t-18.5 44zM373 672q0 25 19.5 41.5t46.5 16.5q26 0 45 -16.5t19 -41.5q0 -28 -18.5 -44.5t-45.5 -16.5t-46.5 16.5t-19.5 44.5zM390 762l-103 -164l-56 22l60 173z
M449 166l70 -69q-79 -106 -211 -106q-126 0 -202.5 73.5t-76.5 196.5q0 119 70.5 195t196.5 76q106 0 175 -65.5t69 -172.5q0 -26 -6 -73h-386q7 -60 51 -92t111 -32q88 0 139 69zM291 429q-57 0 -94 -29t-48 -80h273q-7 53 -41 81t-90 28z" />
    <glyph glyph-name="fi" unicode="fi" horiz-adv-x="579" 
d="M3 414v106h84v17q0 104 52 152.5t130 48.5q48 0 78 -17l-40 -99q-13 10 -32 10q-74 0 -74 -98v-14h133v-106h-133v-414h-114v414h-84zM396 0v520h114v-520h-114zM386 669q0 26 19.5 43t47.5 17t47 -17.5t19 -42.5q0 -27 -19 -44.5t-47 -17.5q-30 0 -48.5 17.5t-18.5 44.5
z" />
    <glyph glyph-name="fl" unicode="fl" horiz-adv-x="511" 
d="M338 0v606q-22 26 -63 26q-74 0 -74 -98v-14h83v-106h-83v-414h-114v414h-84v106h84v17q0 104 52 152.5t130 48.5q59 0 104 -32l79 29v-735h-114z" />
    <glyph glyph-name=".notdef" horiz-adv-x="236" 
 />
    <glyph glyph-name=".null" horiz-adv-x="0" 
 />
    <glyph glyph-name="nonmarkingreturn" horiz-adv-x="333" 
 />
    <glyph glyph-name="space" unicode=" " horiz-adv-x="236" 
 />
    <glyph glyph-name="exclam" unicode="!" horiz-adv-x="309" 
d="M96 215v485h118v-485h-118zM73 73q0 28 23 50.5t58 22.5q33 0 56.5 -23t23.5 -50q0 -30 -23 -52.5t-57 -22.5q-36 0 -58.5 22.5t-22.5 52.5z" />
    <glyph glyph-name="quotedbl" unicode="&#x22;" horiz-adv-x="440" 
d="M73 452v248h116v-248h-116zM251 452v248h116v-248h-116z" />
    <glyph glyph-name="numbersign" unicode="#" horiz-adv-x="707" 
d="M290 16l64 175h-122l-77 -208l-102 33l65 175h-78v99h115l46 120h-161v99h197q41 109 77 208l102 -33l-66 -175h123l76 208l102 -32l-66 -176h82v-99h-118l-45 -120h163v-99h-200l-76 -208zM314 410l-46 -120h124l43 120h-121z" />
    <glyph glyph-name="dollar" unicode="$" 
d="M471 190q0 32 -24 54t-62 34.5t-84 23t-92 25t-84 35.5t-62 58.5t-24 89.5q0 70 58 124t152 69v80h115v-78q136 -13 220 -97l-66 -86q-88 73 -208 73q-62 0 -104 -20.5t-42 -61.5q0 -33 32 -54.5t80 -32t104 -27t104 -36t80 -62t32 -102.5q0 -83 -66 -139.5t-166 -65.5
v-86h-115v91q-71 13 -132.5 45.5t-97.5 75.5l72 85q95 -100 247 -100q63 0 98 22.5t35 62.5z" />
    <glyph glyph-name="percent" unicode="%" horiz-adv-x="907" 
d="M154 32l514 696l86 -62l-510 -686zM37 525q0 78 54.5 128t137.5 50q82 0 136.5 -50t54.5 -128q0 -77 -54.5 -127t-136.5 -50t-137 50t-55 127zM150 525q0 -36 23.5 -59t55.5 -23q33 0 55.5 22.5t22.5 59.5q0 36 -23 58.5t-55 22.5q-33 0 -56 -22.5t-23 -58.5zM487 174
q0 78 54.5 127.5t137.5 49.5q82 0 136.5 -49.5t54.5 -127.5q0 -77 -54.5 -127.5t-136.5 -50.5t-137 50.5t-55 127.5zM600 174q0 -36 23.5 -58.5t55.5 -22.5t55 22.5t23 58.5t-23 59t-55 23q-33 0 -56 -23t-23 -59z" />
    <glyph glyph-name="ampersand" unicode="&#x26;" horiz-adv-x="783" 
d="M780 0h-154q-22 16 -88 77q-90 -86 -222 -86q-123 0 -197.5 55.5t-74.5 143.5q0 42 16 77.5t49 66t60 49t73 46.5q-63 80 -63 148q0 57 43.5 94.5t121.5 37.5q84 0 126 -35t42 -97q0 -45 -31.5 -89.5t-83.5 -79.5q34 -56 140 -169q70 97 70 244h116q0 -88 -28.5 -181
t-78.5 -153q73 -81 164 -149zM321 100q40 0 77 16t57 41q-110 124 -152 181q-74 -46 -102.5 -73.5t-28.5 -63.5q0 -40 39 -70.5t110 -30.5zM301 561q0 -25 38 -74q51 36 51 75q0 21 -11 33.5t-33 12.5q-45 0 -45 -47z" />
    <glyph glyph-name="quotesingle" unicode="'" horiz-adv-x="262" 
d="M73 452v248h116v-248h-116z" />
    <glyph glyph-name="parenleft" unicode="(" horiz-adv-x="342" 
d="M332 -135l-77 -67q-116 100 -169 223t-53 242q0 117 52.5 238t169.5 227l76 -67q-182 -170 -182 -398q0 -108 48.5 -212t134.5 -186z" />
    <glyph glyph-name="parenright" unicode=")" horiz-adv-x="341" 
d="M88 -201l-78 67q89 78 135.5 186t46.5 211q0 228 -181 398l76 67q116 -106 168.5 -227t52.5 -238q0 -119 -52.5 -241.5t-167.5 -222.5z" />
    <glyph glyph-name="asterisk" unicode="*" horiz-adv-x="500" 
d="M309 700l-5 -123l119 43l33 -107l-121 -34l79 -99l-96 -69l-68 100l-68 -101l-96 69l79 101l-121 34l33 107l121 -43l-4 122h115z" />
    <glyph glyph-name="plus" unicode="+" horiz-adv-x="599" 
d="M64 309v101h182v182h106v-182h184v-101h-184v-184h-106v184h-182z" />
    <glyph glyph-name="comma" unicode="," horiz-adv-x="254" 
d="M119 0q-33 -4 -53 19.5t-20 49.5q0 31 21.5 54t58.5 23q44 0 63.5 -32t19.5 -78q0 -66 -47 -116t-105 -62l-28 66q26 5 56.5 29.5t33.5 46.5z" />
    <glyph glyph-name="hyphen" unicode="-" horiz-adv-x="416" 
d="M69 227v101h278v-101h-278z" />
    <glyph glyph-name="period" unicode="." horiz-adv-x="251" 
d="M45 73q0 28 23 50.5t58 22.5q33 0 56.5 -23t23.5 -50q0 -30 -23 -52.5t-57 -22.5q-36 0 -58.5 22.5t-22.5 52.5z" />
    <glyph glyph-name="slash" unicode="/" horiz-adv-x="357" 
d="M-37 -164l328 881l102 -33l-329 -887z" />
    <glyph glyph-name="zero" unicode="0" horiz-adv-x="680" 
d="M37 350q0 159 79.5 258t222.5 99q144 0 224 -99t80 -258q0 -160 -79 -258.5t-223 -98.5t-224 98.5t-80 258.5zM161 350q0 -116 47.5 -179t132.5 -63q178 0 178 242q0 118 -45 180t-135 62q-86 0 -132 -63t-46 -179z" />
    <glyph glyph-name="one" unicode="1" horiz-adv-x="397" 
d="M2 588l235 114h76v-702h-116v559l-154 -71z" />
    <glyph glyph-name="two" unicode="2" horiz-adv-x="618" 
d="M135 478l-105 42q26 90 101 138.5t178 48.5q119 0 185.5 -57t66.5 -150q0 -68 -28 -124.5t-80 -105t-144 -112.5l-80 -46h354v-112h-543v89l158 115q7 6 44 34t49 38.5t42.5 36.5t43 41.5t30 39t24 44.5t6.5 43q0 51 -34.5 80.5t-95.5 29.5q-65 0 -108 -32t-64 -81z" />
    <glyph glyph-name="three" unicode="3" horiz-adv-x="609" 
d="M141 500l-103 46q27 76 101 119.5t172 43.5q111 0 182 -48.5t71 -127.5q0 -59 -31.5 -102t-81.5 -58q53 -13 90.5 -52.5t37.5 -111.5q0 -98 -75.5 -157.5t-187.5 -59.5q-60 0 -116.5 16.5t-106 57.5t-69.5 100l110 46q21 -47 70.5 -75.5t101.5 -28.5q64 0 106 26.5
t42 73.5q0 53 -44.5 74t-125.5 21h-68v110h72q68 0 110 27t42 68t-39 64t-100 23t-98 -24t-62 -71z" />
    <glyph glyph-name="four" unicode="4" horiz-adv-x="668" 
d="M414 0v133h-396v78l413 489h100v-460h119v-107h-119v-133h-117zM178 240h236v269z" />
    <glyph glyph-name="five" unicode="5" horiz-adv-x="609" 
d="M58 317l32 383h457v-113h-351l-15 -155q50 25 124 25q126 0 194 -62.5t68 -167.5q0 -106 -75.5 -170.5t-193.5 -64.5q-43 0 -82.5 9t-78 27.5t-68.5 53t-46 80.5l112 41q17 -45 64 -70t105 -25q65 0 102 32t37 83q0 59 -40.5 92t-111.5 33q-82 0 -132 -41z" />
    <glyph glyph-name="six" unicode="6" horiz-adv-x="666" 
d="M37 331q0 182 94 280t241 98q143 0 228 -91l-67 -85q-68 59 -163 59q-90 0 -152 -58t-61 -163q33 48 90.5 77.5t121.5 29.5q125 0 196 -64t71 -172q0 -111 -78.5 -181t-201.5 -70q-146 0 -232.5 89t-86.5 251zM176 255q10 -63 55.5 -105.5t129.5 -42.5q64 0 107.5 36
t43.5 93q0 62 -40 95.5t-116 33.5q-61 0 -115 -36.5t-65 -73.5z" />
    <glyph glyph-name="seven" unicode="7" horiz-adv-x="574" 
d="M15 587v113h544v-76l-330 -624h-127l314 587h-401z" />
    <glyph glyph-name="eight" unicode="8" horiz-adv-x="678" 
d="M325 411h29q57 0 97 26t40 69q0 45 -39.5 68.5t-113.5 23.5q-66 0 -109 -24t-43 -67q0 -42 38.5 -69t100.5 -27zM352 308h-24q-74 0 -119 -29.5t-45 -72.5q0 -48 46.5 -76.5t128.5 -28.5q80 0 127 27.5t47 75.5q0 49 -42 76.5t-119 27.5zM340 -8q-134 0 -217 54.5
t-83 148.5q0 58 30.5 103t86.5 65q-95 40 -95 149q0 90 73.5 143t203.5 53q133 0 205 -53t72 -143q0 -48 -27 -88t-78 -59q127 -32 127 -166q0 -96 -84 -151.5t-214 -55.5z" />
    <glyph glyph-name="nine" unicode="9" horiz-adv-x="660" 
d="M623 369q0 -184 -90.5 -281t-234.5 -97q-143 0 -228 91l67 85q68 -59 163 -59q88 0 145 56.5t57 150.5q-26 -40 -83 -64.5t-123 -24.5q-122 0 -194 64t-72 168q0 109 82 180t197 71q143 0 228.5 -89t85.5 -251zM488 432q-1 61 -49.5 111t-128.5 50q-63 0 -109.5 -36
t-46.5 -93q0 -60 43.5 -94.5t112.5 -34.5q57 0 112.5 31t65.5 66z" />
    <glyph glyph-name="colon" unicode=":" horiz-adv-x="321" 
d="M80 73q0 28 23 50.5t58 22.5q33 0 56.5 -23t23.5 -50q0 -30 -23 -52.5t-57 -22.5q-36 0 -58.5 22.5t-22.5 52.5zM80 447q0 28 23 50.5t58 22.5q33 0 56.5 -23t23.5 -50q0 -30 -23 -52.5t-57 -22.5q-36 0 -58.5 22.5t-22.5 52.5z" />
    <glyph glyph-name="semicolon" unicode=";" horiz-adv-x="320" 
d="M150 0q-33 -4 -53 19.5t-20 49.5q0 31 21.5 54t58.5 23q44 0 63.5 -32t19.5 -78q0 -66 -47 -116t-105 -62l-28 66q26 5 56.5 29.5t33.5 46.5zM78 447q0 28 23 50.5t58 22.5q33 0 56.5 -23t23.5 -50q0 -30 -23 -52.5t-57 -22.5q-36 0 -58.5 22.5t-22.5 52.5z" />
    <glyph glyph-name="less" unicode="&#x3c;" horiz-adv-x="556" 
d="M481 53l-453 285v47l453 282v-123l-295 -183l295 -185v-123z" />
    <glyph glyph-name="equal" unicode="=" horiz-adv-x="579" 
d="M64 402v99h452v-99h-452zM64 217v99h452v-99h-452z" />
    <glyph glyph-name="greater" unicode="&#x3e;" horiz-adv-x="556" 
d="M528 338l-453 -285v123l297 185l-297 183v123l453 -282v-47z" />
    <glyph glyph-name="question" unicode="?" horiz-adv-x="610" 
d="M446 500q0 40 -34.5 66t-113.5 26q-118 0 -159 -113l-109 31q19 92 90.5 145t175.5 53q135 0 204.5 -51t69.5 -137q0 -58 -24.5 -98.5t-59 -61t-69 -36t-59 -33.5t-24.5 -43q0 -8 2 -18t2 -16l-109 -1q-7 24 -7 54q0 39 23 67.5t56 45.5t66 32.5t56 37t23 50.5zM198 73
q0 28 23 50.5t58 22.5q33 0 56.5 -23t23.5 -50q0 -30 -23 -52.5t-57 -22.5q-36 0 -58.5 22.5t-22.5 52.5z" />
    <glyph glyph-name="at" unicode="@" horiz-adv-x="970" 
d="M587 0v33q-45 -41 -121 -41q-99 0 -162.5 66.5t-63.5 173.5q0 105 75 176t188 71q117 0 198 -60v-313q110 17 110 174q0 131 -88 206.5t-229 75.5q-143 0 -238.5 -92t-95.5 -234q0 -140 94 -233.5t240 -93.5q72 0 132 19l8 -103q-67 -19 -140 -19q-200 0 -321.5 122.5
t-121.5 307.5q0 187 125 307.5t318 120.5t309.5 -105t116.5 -277q0 -53 -15.5 -102t-45.5 -90t-78.5 -65.5t-108.5 -24.5h-85zM486 94q29 0 57.5 17t43.5 41v202q-35 23 -85 23q-62 0 -103.5 -42.5t-41.5 -106.5q0 -61 35.5 -97.5t93.5 -36.5z" />
    <glyph glyph-name="A" unicode="A" horiz-adv-x="704" 
d="M-1 0l307 700h92l307 -700h-127l-68 155h-319l-67 -155h-125zM350 525l-115 -266h230z" />
    <glyph glyph-name="B" unicode="B" horiz-adv-x="675" 
d="M70 0v700h297q132 0 188 -46.5t56 -129.5q0 -105 -84 -156q108 -34 108 -164q0 -104 -73 -154t-201 -50h-291zM361 302h-170v-188h162q82 0 119 23t37 74q0 47 -34.5 69t-113.5 22zM351 586h-160v-174h173q58 0 90 22.5t32 62.5q0 46 -30 67.5t-105 21.5z" />
    <glyph glyph-name="C" unicode="C" horiz-adv-x="692" 
d="M606 200l71 -78q-43 -61 -118.5 -95.5t-165.5 -34.5q-165 0 -262.5 97.5t-97.5 260.5q0 153 99 255.5t259 102.5q92 0 165 -33.5t110 -87.5l-80 -76q-73 81 -189 81q-108 0 -173 -66t-65 -176q0 -109 67.5 -175.5t175.5 -66.5q127 0 204 92z" />
    <glyph glyph-name="D" unicode="D" horiz-adv-x="716" 
d="M70 0v700h219q105 0 183.5 -27t123.5 -75.5t66 -107.5t21 -131q0 -160 -102 -259.5t-305 -99.5h-206zM287 586h-96v-472h94q139 0 205.5 65.5t66.5 179.5q0 227 -270 227z" />
    <glyph glyph-name="E" unicode="E" horiz-adv-x="645" 
d="M70 0v700h520v-114h-399v-176h373v-110h-373v-186h409v-114h-530z" />
    <glyph glyph-name="F" unicode="F" horiz-adv-x="615" 
d="M70 0v700h515v-114h-394v-198h368v-114h-368v-274h-121z" />
    <glyph glyph-name="G" unicode="G" horiz-adv-x="715" 
d="M380 264v110h302v-271q-48 -53 -121.5 -82t-154.5 -29q-164 0 -268.5 98.5t-104.5 259.5q0 152 102 255t258 103q89 0 161.5 -30t111.5 -83l-81 -77q-66 74 -186 74q-109 0 -174.5 -65.5t-65.5 -176.5q0 -113 69 -177.5t180 -64.5q95 0 158 49v107h-186z" />
    <glyph glyph-name="H" unicode="H" horiz-adv-x="749" 
d="M558 0v297h-367v-297h-121v700h121v-289h367v289h121v-700h-121z" />
    <glyph glyph-name="I" unicode="I" horiz-adv-x="261" 
d="M70 0v700h121v-700h-121z" />
    <glyph glyph-name="J" unicode="J" horiz-adv-x="486" 
d="M419 700v-483q0 -108 -57 -166.5t-153 -58.5q-81 0 -134.5 37t-81.5 93l90 68q50 -85 116 -85q52 1 75.5 30.5t23.5 104.5v460h121z" />
    <glyph glyph-name="K" unicode="K" horiz-adv-x="680" 
d="M70 0v700h121v-307l314 307h158l-318 -314l341 -386h-161l-271 305l-63 -61v-244h-121z" />
    <glyph glyph-name="L" unicode="L" horiz-adv-x="598" 
d="M70 0v700h121v-586h397v-114h-518z" />
    <glyph glyph-name="M" unicode="M" horiz-adv-x="844" 
d="M70 0v700h107l250 -325l241 325h106v-700h-121v485l-213 -278h-31l-218 279v-486h-121z" />
    <glyph glyph-name="N" unicode="N" horiz-adv-x="738" 
d="M668 0h-94l-386 477v-477h-118v700h94l386 -479v479h118v-700z" />
    <glyph glyph-name="O" unicode="O" horiz-adv-x="782" 
d="M33 350q0 151 103.5 254.5t254.5 103.5t254.5 -102t103.5 -256q0 -153 -104 -255.5t-254 -102.5t-254 102t-104 256zM159 350q0 -106 68 -174t164 -68q99 0 165.5 67.5t66.5 174.5q0 106 -68.5 174t-163.5 68q-96 0 -164 -67.5t-68 -174.5z" />
    <glyph glyph-name="P" unicode="P" horiz-adv-x="678" 
d="M191 0h-121v700h283q85 0 144.5 -19.5t90 -54.5t43.5 -72.5t13 -83.5q0 -45 -15.5 -84.5t-48 -73t-91 -53t-137.5 -19.5h-161v-240zM357 587h-166v-234h159q168 0 168 118q0 116 -161 116z" />
    <glyph glyph-name="Q" unicode="Q" horiz-adv-x="782" 
d="M33 350q0 151 103.5 254.5t254.5 103.5t254.5 -102t103.5 -256q0 -148 -102 -253l65 -79l-84 -68l-68 83q-76 -41 -169 -41q-155 0 -256.5 101t-101.5 257zM159 350q0 -107 66 -174.5t166 -67.5q51 0 98 24l-57 67l77 66l60 -73q54 62 54 158q0 108 -66.5 175t-165.5 67
q-100 0 -166 -67t-66 -175z" />
    <glyph glyph-name="R" unicode="R" horiz-adv-x="683" 
d="M191 0h-121v700h275q79 0 135 -18t85.5 -49.5t42.5 -68.5t13 -82q0 -72 -42 -127t-112 -75l210 -280h-147l-191 257h-148v-257zM342 586h-151v-215h157q69 0 108 29.5t39 81.5q0 50 -34.5 77t-118.5 27z" />
    <glyph glyph-name="S" unicode="S" horiz-adv-x="631" 
d="M476 190q0 32 -24 54t-62 34.5t-84 23t-92 25t-84 35.5t-62 58.5t-24 89.5q0 83 77.5 140.5t196.5 57.5q173 0 271 -100l-66 -86q-88 73 -208 73q-62 0 -104 -20.5t-42 -61.5q0 -33 32 -54.5t80 -32t104 -27t104 -36t80 -62t32 -102.5q0 -91 -78 -149t-191 -58
q-92 0 -177 36.5t-131 91.5l72 85q95 -100 247 -100q63 0 98 22.5t35 62.5z" />
    <glyph glyph-name="T" unicode="T" horiz-adv-x="593" 
d="M1 586v114h591v-114h-235v-586h-121v586h-235z" />
    <glyph glyph-name="U" unicode="U" horiz-adv-x="726" 
d="M662 700v-402q0 -79 -24.5 -139.5t-67 -95.5t-92.5 -52.5t-107 -17.5q-131 0 -219.5 81.5t-88.5 229.5v396h121v-381q0 -96 52 -154.5t135 -58.5q84 0 127 57t43 152v385h121z" />
    <glyph glyph-name="V" unicode="V" horiz-adv-x="722" 
d="M728 700l-316 -700h-86l-333 700h131l246 -525l230 525h128z" />
    <glyph glyph-name="W" unicode="W" horiz-adv-x="967" 
d="M966 700l-207 -700h-101l-171 487l-166 -487h-102l-218 700h126l149 -484l163 484h99l166 -482l142 482h120z" />
    <glyph glyph-name="X" unicode="X" horiz-adv-x="682" 
d="M667 700l-253 -345l262 -355h-148l-187 257l-187 -257h-147l262 355l-251 345h145l179 -245l179 245h146z" />
    <glyph glyph-name="Y" unicode="Y" horiz-adv-x="671" 
d="M678 700l-283 -397v-303h-121v303l-281 397h150l193 -279l197 279h145z" />
    <glyph glyph-name="Z" unicode="Z" horiz-adv-x="633" 
d="M29 586v114h574v-81l-418 -505h428v-114h-601v81l416 505h-399z" />
    <glyph glyph-name="bracketleft" unicode="[" horiz-adv-x="348" 
d="M60 -183v892h279v-112h-158v-668h158v-112h-279z" />
    <glyph glyph-name="backslash" unicode="\" horiz-adv-x="357" 
d="M65 717l328 -881l-101 -39l-329 887z" />
    <glyph glyph-name="bracketright" unicode="]" horiz-adv-x="348" 
d="M288 709v-892h-279v112h158v668h-158v112h279z" />
    <glyph glyph-name="asciicircum" unicode="^" horiz-adv-x="515" 
d="M23 412l200 295h71l198 -295h-131l-103 158l-105 -158h-130z" />
    <glyph glyph-name="underscore" unicode="_" horiz-adv-x="332" 
d="M0 -183v103h332v-103h-332z" />
    <glyph glyph-name="grave" unicode="`" horiz-adv-x="367" 
d="M300 598l-137 154l89 67l115 -167z" />
    <glyph glyph-name="a" unicode="a" horiz-adv-x="534" 
d="M109 371l-56 84q37 36 95.5 56.5t122.5 20.5q102 0 157.5 -56t55.5 -158v-318h-114v57q-57 -63 -161 -63q-86 0 -137.5 44.5t-51.5 119.5q0 83 66.5 124t176.5 41q65 0 107 -14q1 59 -25 88t-87 29q-77 0 -149 -55zM234 93q89 0 136 71v50q-42 14 -95 14q-137 0 -137 -69
q0 -31 26 -48.5t70 -17.5z" />
    <glyph glyph-name="b" unicode="b" horiz-adv-x="590" 
d="M53 82v648h114v-257q57 59 151 59q115 0 179 -72.5t64 -190.5q0 -128 -74 -203t-197 -75q-70 0 -133 23.5t-104 67.5zM297 426q-41 0 -76 -22.5t-54 -57.5v-201q43 -48 126 -48q66 0 108 43.5t42 122.5q0 77 -39.5 120t-106.5 43z" />
    <glyph glyph-name="c" unicode="c" horiz-adv-x="538" 
d="M451 171l81 -52q-31 -61 -92 -94.5t-131 -33.5q-126 0 -203 74t-77 196q0 117 76 194t198 77q78 0 137.5 -32.5t85.5 -85.5l-85 -56q-51 68 -133 68q-71 0 -116 -46t-45 -119q0 -71 47.5 -117.5t125.5 -46.5q82 0 131 74z" />
    <glyph glyph-name="d" unicode="d" horiz-adv-x="593" 
d="M426 0v57q-17 -24 -55.5 -44.5t-90.5 -20.5q-113 0 -182 71t-69 196q0 119 75.5 196t183.5 77q93 0 138 -39v237h114v-730h-114zM301 98q42 0 76.5 24.5t48.5 56.5v190q-40 57 -119 57q-68 0 -114 -44.5t-46 -120.5q0 -75 42.5 -119t111.5 -44z" />
    <glyph glyph-name="e" unicode="e" horiz-adv-x="569" 
d="M449 166l70 -69q-79 -106 -211 -106q-126 0 -202.5 73.5t-76.5 196.5q0 119 70.5 195t196.5 76q106 0 175 -65.5t69 -172.5q0 -26 -6 -73h-386q7 -60 51 -92t111 -32q88 0 139 69zM291 429q-57 0 -94 -29t-48 -80h273q-7 53 -41 81t-90 28z" />
    <glyph glyph-name="f" unicode="f" horiz-adv-x="343" 
d="M3 414v106h84v17q0 104 52 152.5t130 48.5q42 0 78 -16.5t56 -44.5l-64 -72q-22 27 -64 27q-74 0 -74 -98v-14h146v-106h-146v-414h-114v414h-84z" />
    <glyph glyph-name="g" unicode="g" horiz-adv-x="589" 
d="M536 520v-478q0 -126 -64 -188.5t-176 -62.5q-88 0 -150.5 35.5t-85.5 98.5l99 43q16 -30 48.5 -50.5t79.5 -20.5q135 0 135 124v23q-34 -53 -138 -53q-115 0 -185 71.5t-70 198.5q0 122 74.5 195t181.5 73q92 0 137 -43v34h114zM303 97q43 0 75 23t44 56v192
q-36 55 -120 55q-66 0 -110.5 -43t-44.5 -121q0 -77 41.5 -119.5t114.5 -42.5z" />
    <glyph glyph-name="h" unicode="h" horiz-adv-x="584" 
d="M53 0v730h114v-255q56 56 151 56q216 0 216 -238v-293h-114v286q0 73 -30.5 106t-95.5 33q-41 0 -74.5 -23t-52.5 -63v-339h-114z" />
    <glyph glyph-name="i" unicode="i" horiz-adv-x="239" 
d="M63 0v520h114v-520h-114zM53 669q0 26 19.5 43t47.5 17t47 -17.5t19 -42.5q0 -27 -19 -44.5t-47 -17.5q-30 0 -48.5 17.5t-18.5 44.5z" />
    <glyph glyph-name="j" unicode="j" horiz-adv-x="239" 
d="M178 520v-521q0 -100 -43 -154t-129 -54q-123 0 -166 100l97 43q23 -37 60 -37q67 0 67 105v518h114zM54 670q0 26 18.5 43t48.5 17q28 0 46.5 -17t18.5 -43q0 -28 -18 -45.5t-47 -17.5q-30 0 -48.5 17.5t-18.5 45.5z" />
    <glyph glyph-name="k" unicode="k" horiz-adv-x="528" 
d="M53 0v730h114v-415l210 205h147l-237 -229l249 -291h-145l-191 216l-33 -26v-190h-114z" />
    <glyph glyph-name="l" unicode="l" horiz-adv-x="220" 
d="M53 0v730h114v-730h-114z" />
    <glyph glyph-name="m" unicode="m" horiz-adv-x="851" 
d="M801 345v-345h-114v313q0 112 -87 112q-80 0 -116 -80v-345h-114v338q0 39 -22.5 63t-62.5 24q-42 0 -73 -25.5t-45 -59.5v-340h-114v520h114v-45q40 56 142 56q98 0 141 -64q54 64 157 64q92 0 143 -46.5t51 -139.5z" />
    <glyph glyph-name="n" unicode="n" horiz-adv-x="586" 
d="M53 0v520h114v-47q59 58 160 58q209 0 209 -237v-294h-114v285q0 74 -31 107t-97 33q-42 0 -76 -23.5t-51 -64.5v-337h-114z" />
    <glyph glyph-name="o" unicode="o" horiz-adv-x="615" 
d="M29 261q0 118 77.5 194.5t200.5 76.5t201 -76.5t78 -194.5q0 -117 -78 -193.5t-201 -76.5q-121 0 -199.5 76.5t-78.5 193.5zM147 261q0 -71 44.5 -117.5t115.5 -46.5q72 0 116.5 45t44.5 119t-46 119.5t-115 45.5q-70 0 -115 -45t-45 -120z" />
    <glyph glyph-name="p" unicode="p" horiz-adv-x="592" 
d="M53 -200v720h114v-47q23 29 62.5 44t81.5 15q116 0 184 -73t68 -190q0 -121 -72 -199.5t-188 -78.5q-101 0 -136 43v-234h-114zM299 426q-47 0 -81 -24t-51 -61v-180q38 -64 123 -64q70 0 112.5 45t42.5 118q0 78 -39 122t-107 44z" />
    <glyph glyph-name="q" unicode="q" horiz-adv-x="589" 
d="M422 -200v241q-42 -50 -137 -50q-114 0 -185 74t-71 196q0 118 79 193t195 75q80 0 119 -33v24h114v-720h-114zM301 97q40 0 73 19t48 50v209q-37 48 -118 48q-66 0 -111.5 -46t-45.5 -118q0 -75 43.5 -118.5t110.5 -43.5z" />
    <glyph glyph-name="r" unicode="r" horiz-adv-x="363" 
d="M53 0v520h114v-35q10 20 37.5 33t56.5 13q67 0 103 -46l-65 -83q-15 23 -52 23q-28 0 -49.5 -19t-30.5 -54v-352h-114z" />
    <glyph glyph-name="s" unicode="s" horiz-adv-x="496" 
d="M356 148q0 21 -32.5 36t-78.5 27.5t-92.5 29.5t-79 52t-32.5 84q0 72 57 113.5t157 41.5q67 0 125 -27t85 -65l-78 -74q-52 60 -151 60q-77 0 -77 -47q0 -16 23.5 -29t58.5 -21.5t75.5 -23t75.5 -31.5t58.5 -49.5t23.5 -75.5q0 -78 -61 -118t-153 -40q-84 0 -148 35
t-93 90l90 62q22 -35 67 -58t95 -23q36 0 60.5 12.5t24.5 38.5z" />
    <glyph glyph-name="t" unicode="t" horiz-adv-x="413" 
d="M3 414v106h90v107h114v-107h168v-106h-168v-201q0 -62 15.5 -87.5t51.5 -25.5q40 0 74 44l68 -64q-22 -38 -64.5 -62t-94.5 -24q-76 0 -120 48t-44 139v233h-90z" />
    <glyph glyph-name="u" unicode="u" horiz-adv-x="578" 
d="M525 523v-523h-114v55q-57 -64 -145 -64q-109 0 -162.5 57t-53.5 176v299h114v-288q0 -138 113 -138q89 0 134 90v336h114z" />
    <glyph glyph-name="v" unicode="v" horiz-adv-x="519" 
d="M538 520l-231 -520h-84l-242 520h129l157 -347l150 347h121z" />
    <glyph glyph-name="w" unicode="w" horiz-adv-x="755" 
d="M765 520l-168 -520h-91l-126 338l-127 -338h-89l-174 520h118l108 -329l122 329h86l124 -330l101 330h116z" />
    <glyph glyph-name="x" unicode="x" horiz-adv-x="555" 
d="M548 520l-199 -251l209 -269h-141l-141 185l-144 -185h-135l208 267l-198 253h140l132 -167l132 167h137z" />
    <glyph glyph-name="y" unicode="y" horiz-adv-x="548" 
d="M75 -194l45 97q10 -6 23 -6q47 0 82 87l18 47l-256 489h132l179 -351l138 351h122l-204 -505q-52 -127 -97.5 -175.5t-109.5 -48.5q-42 0 -72 15z" />
    <glyph glyph-name="z" unicode="z" horiz-adv-x="504" 
d="M36 414v106h448v-73l-292 -341h287v-106h-459v74l292 340h-276z" />
    <glyph glyph-name="braceleft" unicode="{" horiz-adv-x="345" 
d="M96 -38v165q0 46 -20.5 65.5t-62.5 19.5v101q44 0 63.5 16t19.5 63v165q0 81 36.5 116.5t121.5 35.5h78v-101h-55q-37 0 -51.5 -18.5t-14.5 -60.5v-161q0 -80 -58 -103q58 -19 58 -106v-167q0 -42 14.5 -58t51.5 -16h55v-101h-90q-73 0 -109.5 34.5t-36.5 110.5z" />
    <glyph glyph-name="bar" unicode="|" horiz-adv-x="312" 
d="M97 0v700h118v-700h-118z" />
    <glyph glyph-name="braceright" unicode="}" horiz-adv-x="345" 
d="M249 127v-165q0 -76 -36.5 -110.5t-109.5 -34.5h-90v101h55q37 0 51.5 16t14.5 58v167q0 87 58 106q-58 23 -58 103v161q0 42 -14 60.5t-51 18.5h-56v101h78q86 0 122 -35t36 -117v-165q0 -47 19.5 -63t63.5 -16v-101q-42 0 -62.5 -19.5t-20.5 -65.5z" />
    <glyph glyph-name="asciitilde" unicode="~" horiz-adv-x="570" 
d="M84 280l-58 77q28 28 48 44t53.5 29t69.5 11q39 -3 101 -34.5t94 -31.5q57 0 102 59l50 -80q-31 -36 -70.5 -56.5t-75.5 -20.5q-50 0 -114 33.5t-97 33.5q-51 0 -103 -64z" />
    <glyph glyph-name="uni00A0" unicode="&#xa0;" horiz-adv-x="236" 
 />
    <glyph glyph-name="exclamdown" unicode="&#xa1;" horiz-adv-x="309" 
d="M96 -182v485h118v-485h-118zM73 445q0 30 22.5 52.5t58.5 22.5q34 0 57 -22.5t23 -52.5q0 -27 -23.5 -50t-56.5 -23q-35 0 -58 22.5t-23 50.5z" />
    <glyph glyph-name="cent" unicode="&#xa2;" horiz-adv-x="538" 
d="M451 171l81 -52q-26 -50 -71.5 -82t-101.5 -41v-196h-120v198q-97 19 -153.5 89t-56.5 174q0 100 57 172.5t153 91.5v175h120v-173q58 -10 102 -40t65 -73l-85 -56q-41 54 -95 64v-323q64 10 105 72zM147 261q0 -54 28.5 -95t77.5 -58v309q-49 -16 -77.5 -57.5
t-28.5 -98.5z" />
    <glyph glyph-name="sterling" unicode="&#xa3;" horiz-adv-x="595" 
d="M64 260v96h57q-1 3 -8 19t-9 22l-7 21t-6.5 25.5t-3.5 25.5t-2 31q0 84 62 145.5t163 61.5q135 0 213 -89l-64 -91q-67 67 -151 67q-42 0 -71.5 -28t-29.5 -74q0 -21 6 -42t18 -50.5t17 -43.5h168v-96h-148q1 -7 1 -21q0 -62 -29 -98q27 -1 86.5 -21t89.5 -20
q31 0 51.5 11.5t47.5 43.5l59 -79q-63 -77 -157 -77q-43 0 -114 22.5t-109 22.5q-64 0 -119 -54l-53 85q45 45 96 62q33 42 33 98q0 9 -2 25h-85z" />
    <glyph glyph-name="currency" unicode="&#xa4;" horiz-adv-x="630" 
d="M75 347q0 72 37 130l-86 87l74 73l88 -87q58 35 127 35q71 0 127 -35l93 91l74 -73l-91 -92q38 -61 38 -129q0 -69 -38 -128l87 -88l-73 -74l-89 89q-53 -36 -128 -36t-129 36l-93 -93l-72 73l91 93q-37 60 -37 128zM189 347q0 -55 35.5 -93t90.5 -38q56 0 91.5 37.5
t35.5 93.5q0 57 -36 95t-91 38q-56 0 -91 -38t-35 -95z" />
    <glyph glyph-name="yen" unicode="&#xa5;" horiz-adv-x="671" 
d="M109 302v99h95l-211 299h150l193 -279l197 279h145l-213 -299h96v-99h-166v-85h166v-99h-166v-118h-121v118h-165v99h165v85h-165z" />
    <glyph glyph-name="brokenbar" unicode="&#xa6;" horiz-adv-x="312" 
d="M215 403h-118v297h118v-297zM97 297h118v-297h-118v297z" />
    <glyph glyph-name="section" unicode="&#xa7;" horiz-adv-x="507" 
d="M44 258q0 59 26.5 102t74.5 65q-55 44 -55 117q0 70 50 114t125 44q96 0 162 -86l-75 -68q-35 42 -81 42q-25 0 -43 -17t-18 -41q0 -30 16.5 -47.5t47.5 -30.5q85 -7 137 -61t52 -133q0 -56 -28 -101t-74 -68q54 -44 54 -112q0 -71 -49 -115.5t-125 -44.5q-97 0 -162 84
l70 81q37 -53 92 -53q25 0 42 16.5t17 43.5q0 24 -19.5 44t-49.5 30q-86 7 -136.5 61t-50.5 134zM159 258q0 -41 27.5 -69t66.5 -28q40 0 67 27.5t27 69.5q0 41 -27 69t-67 28q-39 0 -66.5 -28t-27.5 -69z" />
    <glyph glyph-name="dieresis" unicode="&#xa8;" horiz-adv-x="473" 
d="M126 672q0 25 19 41.5t44 16.5q24 0 44 -16.5t20 -41.5q0 -27 -19.5 -44t-44.5 -17q-26 0 -44.5 17t-18.5 44zM343 672q0 25 19.5 41.5t46.5 16.5q25 0 44.5 -16.5t19.5 -41.5q0 -28 -18.5 -44.5t-45.5 -16.5t-46.5 16.5t-19.5 44.5z" />
    <glyph glyph-name="copyright" unicode="&#xa9;" horiz-adv-x="966" 
d="M52 232q0 178 124 301.5t307 123.5q185 0 308 -120t123 -305q0 -183 -123 -304.5t-308 -121.5q-186 0 -308.5 118.5t-122.5 307.5zM157 232q0 -138 94 -232.5t232 -94.5q141 0 233.5 93.5t92.5 233.5q0 144 -90.5 235t-235.5 91q-137 0 -231.5 -95t-94.5 -231zM629 157
l62 -71q-29 -42 -83 -68t-108 -26q-113 0 -183.5 67t-70.5 177q0 102 69.5 172.5t171.5 70.5q124 0 194 -85l-71 -68q-48 50 -114 50q-59 0 -94.5 -38t-35.5 -99q0 -66 39.5 -106t100.5 -40q68 0 123 64z" />
    <glyph glyph-name="ordfeminine" unicode="&#xaa;" horiz-adv-x="455" 
d="M104 533l-36 72q64 42 165 43q75 0 116.5 -37t41.5 -103v-209h-101v36q-31 -40 -106 -40q-62 0 -99.5 29.5t-37.5 78.5q0 54 48 80.5t126 26.5q42 0 69 -8q0 30 -16 44t-58 14q-54 0 -112 -27zM212 379q50 0 78 36v19q-35 10 -72 10q-66 0 -66 -34q0 -31 60 -31z" />
    <glyph glyph-name="guillemotleft" unicode="&#xab;" horiz-adv-x="553" 
d="M222 38l-185 218v6l185 212l78 -69l-127 -147l127 -148zM432 38l-184 218v6l185 212l78 -69l-127 -147l127 -148z" />
    <glyph glyph-name="logicalnot" unicode="&#xac;" horiz-adv-x="545" 
d="M35 310v99h475v-219h-96v120h-379z" />
    <glyph glyph-name="uni00AD" unicode="&#xad;" horiz-adv-x="416" 
d="M69 227v101h278v-101h-278z" />
    <glyph glyph-name="registered" unicode="&#xae;" horiz-adv-x="577" 
d="M38 485q0 101 73.5 172t177.5 71q103 0 176.5 -71.5t73.5 -171.5q0 -102 -73.5 -174t-176.5 -72q-104 0 -177.5 71.5t-73.5 174.5zM82 484q0 -85 60 -143t146 -58q84 0 145.5 61t61.5 140q0 84 -62 142.5t-145 58.5q-85 0 -145.5 -60t-60.5 -141zM254 341h-83v290h110
q129 0 129 -96q0 -61 -51 -84l66 -110h-94l-46 81h-31v-81zM321 527q0 30 -37 30h-30v-59h32q15 0 25 8t10 21z" />
    <glyph glyph-name="macron" unicode="&#xaf;" horiz-adv-x="451" 
d="M170 625v95h281v-95h-281z" />
    <glyph glyph-name="degree" unicode="&#xb0;" horiz-adv-x="410" 
d="M38 551q0 68 49 115t118 47q70 0 118.5 -46.5t48.5 -114.5q0 -67 -49 -114.5t-118 -47.5t-118 47t-49 114zM146 551q0 -25 17.5 -40.5t41.5 -15.5t41.5 15.5t17.5 40.5t-17.5 41t-41.5 16t-41.5 -16t-17.5 -41z" />
    <glyph glyph-name="plusminus" unicode="&#xb1;" horiz-adv-x="552" 
d="M51 382v98h175v183h99v-183h177v-98h-177v-109h-99v109h-175zM51 139v99h451v-99h-451z" />
    <glyph glyph-name="twosuperior" unicode="&#xb2;" horiz-adv-x="421" 
d="M110 568l-75 46q22 53 70 81.5t112 28.5q71 0 113 -34t42 -89q0 -101 -113 -174l-52 -33h181v-94h-345v81l88 54q136 84 136 142q0 53 -59 53q-66 0 -98 -62z" />
    <glyph glyph-name="threesuperior" unicode="&#xb3;" horiz-adv-x="429" 
d="M106 579l-70 54q56 92 180 92q74 0 117.5 -28.5t43.5 -76.5q0 -65 -63 -96q73 -22 73 -99q0 -59 -50 -94.5t-127 -35.5q-132 0 -183 104l78 48q11 -26 39 -42t66 -16q71 0 71 41t-73 41h-47v81h39q71 0 71 43q0 36 -57 36q-39 0 -63.5 -12.5t-44.5 -39.5z" />
    <glyph glyph-name="acute" unicode="&#xb4;" horiz-adv-x="447" 
d="M431 755l-127 -157l-77 54l118 167z" />
    <glyph glyph-name="mu" unicode="&#xb5;" horiz-adv-x="583" 
d="M530 520v-520h-114v44q-55 -53 -150 -53q-61 0 -99 32v-222h-114v719h114v-285q0 -72 27.5 -105t89.5 -33q37 0 73.5 17t58.5 42v364h114z" />
    <glyph glyph-name="mu" unicode="&#x3bc;" horiz-adv-x="583" 
d="M530 520v-520h-114v44q-55 -53 -150 -53q-61 0 -99 32v-222h-114v719h114v-285q0 -72 27.5 -105t89.5 -33q37 0 73.5 17t58.5 42v364h114z" />
    <glyph glyph-name="paragraph" unicode="&#xb6;" horiz-adv-x="446" 
d="M32 470q0 107 60.5 168.5t164.5 61.5h164v-101h-86v-577q0 -47 -7 -82.5t-25 -66.5t-52 -47.5t-84 -16.5q-37 0 -73 14.5t-60 40.5l50 87q38 -29 79 -29q31 0 43.5 24t12.5 76v222q-83 11 -135 70.5t-52 155.5z" />
    <glyph glyph-name="periodcentered" unicode="&#xb7;" horiz-adv-x="236" 
d="M39 301q0 23 20 42t50 19q27 0 47 -19t20 -42q0 -26 -19.5 -45t-47.5 -19q-31 0 -50.5 19t-19.5 45z" />
    <glyph glyph-name="cedilla" unicode="&#xb8;" horiz-adv-x="448" 
d="M192 -166l35 59q32 -25 78 -25q40 0 40 21q0 23 -50 23h-13v88h63v-32q50 -3 76.5 -25.5t26.5 -59.5q0 -40 -35 -65t-102 -25t-119 41z" />
    <glyph glyph-name="onesuperior" unicode="&#xb9;" horiz-adv-x="315" 
d="M10 653l162 68h77v-421h-105v305l-97 -40z" />
    <glyph glyph-name="ordmasculine" unicode="&#xba;" horiz-adv-x="462" 
d="M47 472q0 79 51 127.5t133 48.5q83 0 134 -48.5t51 -127.5q0 -78 -51.5 -127.5t-133.5 -49.5t-133 49.5t-51 127.5zM152 472q0 -36 23 -58t56 -22q36 0 58 22t22 58t-23 57t-57 21q-35 0 -57 -21t-22 -57z" />
    <glyph glyph-name="guillemotright" unicode="&#xbb;" horiz-adv-x="553" 
d="M511 256l-184 -218l-79 72l128 148l-127 147l77 69l185 -212v-6zM301 256l-185 -218l-78 72l127 148l-127 147l77 69l186 -212v-6z" />
    <glyph glyph-name="onequarter" unicode="&#xbc;" horiz-adv-x="886" 
d="M110 48l549 672l83 -66l-547 -676zM27 653l162 68h77v-421h-105v305l-97 -40zM685 0v76h-246v73l258 271h87v-253h76v-91h-76v-76h-99zM560 167h125v126z" />
    <glyph glyph-name="onehalf" unicode="&#xbd;" horiz-adv-x="938" 
d="M110 48l549 672l83 -66l-547 -676zM27 653l162 68h77v-421h-105v305l-97 -40zM614 268l-75 46q22 53 70 81.5t112 28.5q71 0 113 -34t42 -89q0 -101 -113 -174l-52 -33h181v-94h-345v81l88 54q136 84 136 142q0 53 -59 53q-66 0 -98 -62z" />
    <glyph glyph-name="threequarters" unicode="&#xbe;" horiz-adv-x="943" 
d="M167 48l549 672l83 -66l-547 -676zM741 0v76h-246v73l258 271h87v-253h76v-91h-76v-76h-99zM616 167h125v126zM106 579l-70 54q56 92 180 92q74 0 117.5 -28.5t43.5 -76.5q0 -65 -63 -96q73 -22 73 -99q0 -59 -50 -94.5t-127 -35.5q-132 0 -183 104l78 48q11 -26 39 -42
t66 -16q71 0 71 41t-73 41h-47v81h39q71 0 71 43q0 36 -57 36q-39 0 -63.5 -12.5t-44.5 -39.5z" />
    <glyph glyph-name="questiondown" unicode="&#xbf;" horiz-adv-x="610" 
d="M164 18q0 -40 34.5 -66t113.5 -26q118 0 159 113l109 -31q-19 -92 -90.5 -145t-175.5 -53q-135 0 -204.5 51t-69.5 137q0 58 24.5 98.5t59 61t69 36t59 33.5t24.5 43q0 8 -2 18t-2 16l109 1q7 -24 7 -54q0 -39 -23 -67.5t-56 -45.5t-66 -32.5t-56 -37t-23 -50.5zM412 445
q0 -28 -23 -50.5t-58 -22.5q-33 0 -56.5 23t-23.5 50q0 30 23 52.5t57 22.5q36 0 58.5 -22.5t22.5 -52.5z" />
    <glyph glyph-name="Agrave" unicode="&#xc0;" horiz-adv-x="704" 
d="M-1 0l307 700h92l307 -700h-127l-68 155h-319l-67 -155h-125zM350 525l-115 -266h230zM395 745l-219 104l53 100l210 -128z" />
    <glyph glyph-name="Aacute" unicode="&#xc1;" horiz-adv-x="704" 
d="M-1 0l307 700h92l307 -700h-127l-68 155h-319l-67 -155h-125zM350 525l-115 -266h230zM552 849l-220 -104l-43 76l210 128z" />
    <glyph glyph-name="Acircumflex" unicode="&#xc2;" horiz-adv-x="704" 
d="M-1 0l307 700h92l307 -700h-127l-68 155h-319l-67 -155h-125zM350 525l-115 -266h230zM350 929l184 -111l-47 -69l-139 73l-138 -73l-40 67l176 113h4z" />
    <glyph glyph-name="Atilde" unicode="&#xc3;" horiz-adv-x="704" 
d="M-1 0l307 700h92l307 -700h-127l-68 155h-319l-67 -155h-125zM350 525l-115 -266h230zM204 779l-36 72q21 25 53.5 40.5t61.5 15.5q31 0 75 -18t70 -18q47 0 76 31l31 -72q-41 -60 -117 -60q-25 0 -72 18t-76 18q-33 0 -66 -27z" />
    <glyph glyph-name="Adieresis" unicode="&#xc4;" horiz-adv-x="704" 
d="M-1 0l307 700h92l307 -700h-127l-68 155h-319l-67 -155h-125zM350 525l-115 -266h230zM162 828q0 27 20 44.5t50 17.5q25 0 45.5 -18t20.5 -44q0 -27 -20 -44.5t-46 -17.5q-31 0 -50.5 17t-19.5 45zM405 828q0 27 20.5 44.5t48.5 17.5q26 0 46 -17.5t20 -44.5t-20 -44.5
t-46 -17.5q-29 0 -49 17t-20 45z" />
    <glyph glyph-name="Aring" unicode="&#xc5;" horiz-adv-x="704" 
d="M-1 0l307 700h92l307 -700h-127l-68 155h-319l-67 -155h-125zM350 525l-115 -266h230zM213 838q0 53 39 81t98 28q62 0 102 -27.5t40 -81.5q0 -52 -40 -81.5t-102 -29.5q-60 0 -98.5 29t-38.5 82zM300 838q0 -21 14 -33t38 -12t38.5 12t14.5 33q0 42 -53 42
q-52 0 -52 -42z" />
    <glyph glyph-name="AE" unicode="&#xc6;" horiz-adv-x="1133" 
d="M558 0v155h-308l-118 -155h-132l520 700h558v-114h-399v-176h373v-110h-373v-186h409v-114h-530zM324 259h234v314z" />
    <glyph glyph-name="Ccedilla" unicode="&#xc7;" horiz-adv-x="692" 
d="M254 -163l41 56q32 -25 79 -25q39 0 39 21q0 23 -50 23h-12v82q-147 13 -232.5 108.5t-85.5 247.5q0 153 99 255.5t259 102.5q92 0 165 -33.5t110 -87.5l-80 -76q-73 81 -189 81q-108 0 -173 -66t-65 -176q0 -109 67.5 -175.5t175.5 -66.5q127 0 204 92l71 -78
q-41 -57 -110.5 -91t-152.5 -38v-25q109 -6 109 -85q0 -41 -31.5 -65.5t-97.5 -24.5q-90 0 -140 44z" />
    <glyph glyph-name="Egrave" unicode="&#xc8;" horiz-adv-x="645" 
d="M70 0v700h520v-114h-399v-176h373v-110h-373v-186h409v-114h-530zM385 745l-219 104l53 100l210 -128z" />
    <glyph glyph-name="Eacute" unicode="&#xc9;" horiz-adv-x="645" 
d="M70 0v700h520v-114h-399v-176h373v-110h-373v-186h409v-114h-530zM515 849l-220 -104l-43 76l210 128z" />
    <glyph glyph-name="Ecircumflex" unicode="&#xca;" horiz-adv-x="645" 
d="M70 0v700h520v-114h-399v-176h373v-110h-373v-186h409v-114h-530zM336 929l184 -111l-47 -69l-139 73l-138 -73l-40 67l176 113h4z" />
    <glyph glyph-name="Edieresis" unicode="&#xcb;" horiz-adv-x="645" 
d="M70 0v700h520v-114h-399v-176h373v-110h-373v-186h409v-114h-530zM144 828q0 27 20 44.5t50 17.5q25 0 45.5 -18t20.5 -44q0 -27 -20 -44.5t-46 -17.5q-31 0 -50.5 17t-19.5 45zM387 828q0 27 20.5 44.5t48.5 17.5q26 0 46 -17.5t20 -44.5t-20 -44.5t-46 -17.5
q-29 0 -49 17t-20 45z" />
    <glyph glyph-name="Igrave" unicode="&#xcc;" horiz-adv-x="261" 
d="M70 0v700h121v-700h-121zM164 745l-219 104l53 100l210 -128z" />
    <glyph glyph-name="Iacute" unicode="&#xcd;" horiz-adv-x="261" 
d="M70 0v700h121v-700h-121zM325 849l-220 -104l-43 76l210 128z" />
    <glyph glyph-name="Icircumflex" unicode="&#xce;" horiz-adv-x="261" 
d="M70 0v700h121v-700h-121zM129 929l184 -111l-47 -69l-139 73l-138 -73l-40 67l176 113h4z" />
    <glyph glyph-name="Idieresis" unicode="&#xcf;" horiz-adv-x="261" 
d="M70 0v700h121v-700h-121zM-59 828q0 27 20 44.5t50 17.5q25 0 45.5 -18t20.5 -44q0 -27 -20 -44.5t-46 -17.5q-31 0 -50.5 17t-19.5 45zM184 828q0 27 20.5 44.5t48.5 17.5q26 0 46 -17.5t20 -44.5t-20 -44.5t-46 -17.5q-29 0 -49 17t-20 45z" />
    <glyph glyph-name="Eth" unicode="&#xd0;" horiz-adv-x="778" 
d="M15 298v101h117v301h218q106 0 184 -27t123 -75.5t66 -107.5t21 -131q0 -160 -102 -259.5t-304 -99.5h-206v298h-117zM348 586h-95v-187h174v-101h-174v-184h94q139 0 205 65.5t66 179.5q0 227 -270 227z" />
    <glyph glyph-name="Ntilde" unicode="&#xd1;" horiz-adv-x="738" 
d="M668 0h-94l-386 477v-477h-118v700h94l386 -479v479h118v-700zM222 779l-36 72q21 25 53.5 40.5t61.5 15.5q31 0 75 -18t70 -18q47 0 76 31l31 -72q-41 -60 -117 -60q-25 0 -72 18t-76 18q-33 0 -66 -27z" />
    <glyph glyph-name="Ograve" unicode="&#xd2;" horiz-adv-x="782" 
d="M33 350q0 151 103.5 254.5t254.5 103.5t254.5 -102t103.5 -256q0 -153 -104 -255.5t-254 -102.5t-254 102t-104 256zM159 350q0 -106 68 -174t164 -68q99 0 165.5 67.5t66.5 174.5q0 106 -68.5 174t-163.5 68q-96 0 -164 -67.5t-68 -174.5zM438 745l-219 104l53 100
l210 -128z" />
    <glyph glyph-name="Oacute" unicode="&#xd3;" horiz-adv-x="782" 
d="M33 350q0 151 103.5 254.5t254.5 103.5t254.5 -102t103.5 -256q0 -153 -104 -255.5t-254 -102.5t-254 102t-104 256zM159 350q0 -106 68 -174t164 -68q99 0 165.5 67.5t66.5 174.5q0 106 -68.5 174t-163.5 68q-96 0 -164 -67.5t-68 -174.5zM582 849l-220 -104l-43 76
l210 128z" />
    <glyph glyph-name="Ocircumflex" unicode="&#xd4;" horiz-adv-x="782" 
d="M33 350q0 151 103.5 254.5t254.5 103.5t254.5 -102t103.5 -256q0 -153 -104 -255.5t-254 -102.5t-254 102t-104 256zM159 350q0 -106 68 -174t164 -68q99 0 165.5 67.5t66.5 174.5q0 106 -68.5 174t-163.5 68q-96 0 -164 -67.5t-68 -174.5zM389 929l184 -111l-47 -69
l-139 73l-138 -73l-40 67l176 113h4z" />
    <glyph glyph-name="Otilde" unicode="&#xd5;" horiz-adv-x="782" 
d="M33 350q0 151 103.5 254.5t254.5 103.5t254.5 -102t103.5 -256q0 -153 -104 -255.5t-254 -102.5t-254 102t-104 256zM159 350q0 -106 68 -174t164 -68q99 0 165.5 67.5t66.5 174.5q0 106 -68.5 174t-163.5 68q-96 0 -164 -67.5t-68 -174.5zM243 779l-36 72
q21 25 53.5 40.5t61.5 15.5q31 0 75 -18t70 -18q47 0 76 31l31 -72q-41 -60 -117 -60q-25 0 -72 18t-76 18q-33 0 -66 -27z" />
    <glyph glyph-name="Odieresis" unicode="&#xd6;" horiz-adv-x="782" 
d="M33 350q0 151 103.5 254.5t254.5 103.5t254.5 -102t103.5 -256q0 -153 -104 -255.5t-254 -102.5t-254 102t-104 256zM159 350q0 -106 68 -174t164 -68q99 0 165.5 67.5t66.5 174.5q0 106 -68.5 174t-163.5 68q-96 0 -164 -67.5t-68 -174.5zM202 828q0 27 20 44.5t50 17.5
q25 0 45.5 -18t20.5 -44q0 -27 -20 -44.5t-46 -17.5q-31 0 -50.5 17t-19.5 45zM445 828q0 27 20.5 44.5t48.5 17.5q26 0 46 -17.5t20 -44.5t-20 -44.5t-46 -17.5q-29 0 -49 17t-20 45z" />
    <glyph glyph-name="multiply" unicode="&#xd7;" horiz-adv-x="599" 
d="M93 488l72 72l129 -129l130 129l72 -72l-129 -130l129 -129l-72 -72l-130 130l-129 -130l-72 72l130 129z" />
    <glyph glyph-name="Oslash" unicode="&#xd8;" horiz-adv-x="782" 
d="M73 47l50 61q-90 100 -90 242q0 151 103.5 254.5t254.5 103.5q99 0 183 -48l48 59l83 -66l-48 -59q92 -102 92 -244q0 -153 -104 -255.5t-254 -102.5q-98 0 -183 47l-50 -62zM623 350q0 83 -45 146l-294 -363q50 -25 107 -25q99 0 165.5 67.5t66.5 174.5zM159 350
q0 -83 43 -145l295 361q-50 26 -106 26q-96 0 -164 -67.5t-68 -174.5z" />
    <glyph glyph-name="Ugrave" unicode="&#xd9;" horiz-adv-x="726" 
d="M662 700v-402q0 -79 -24.5 -139.5t-67 -95.5t-92.5 -52.5t-107 -17.5q-131 0 -219.5 81.5t-88.5 229.5v396h121v-381q0 -96 52 -154.5t135 -58.5q84 0 127 57t43 152v385h121zM411 745l-219 104l53 100l210 -128z" />
    <glyph glyph-name="Uacute" unicode="&#xda;" horiz-adv-x="726" 
d="M662 700v-402q0 -79 -24.5 -139.5t-67 -95.5t-92.5 -52.5t-107 -17.5q-131 0 -219.5 81.5t-88.5 229.5v396h121v-381q0 -96 52 -154.5t135 -58.5q84 0 127 57t43 152v385h121zM555 849l-220 -104l-43 76l210 128z" />
    <glyph glyph-name="Ucircumflex" unicode="&#xdb;" horiz-adv-x="726" 
d="M662 700v-402q0 -79 -24.5 -139.5t-67 -95.5t-92.5 -52.5t-107 -17.5q-131 0 -219.5 81.5t-88.5 229.5v396h121v-381q0 -96 52 -154.5t135 -58.5q84 0 127 57t43 152v385h121zM361 929l184 -111l-47 -69l-139 73l-138 -73l-40 67l176 113h4z" />
    <glyph glyph-name="Udieresis" unicode="&#xdc;" horiz-adv-x="726" 
d="M662 700v-402q0 -79 -24.5 -139.5t-67 -95.5t-92.5 -52.5t-107 -17.5q-131 0 -219.5 81.5t-88.5 229.5v396h121v-381q0 -96 52 -154.5t135 -58.5q84 0 127 57t43 152v385h121zM174 828q0 27 20 44.5t50 17.5q25 0 45.5 -18t20.5 -44q0 -27 -20 -44.5t-46 -17.5
q-31 0 -50.5 17t-19.5 45zM417 828q0 27 20.5 44.5t48.5 17.5q26 0 46 -17.5t20 -44.5t-20 -44.5t-46 -17.5q-29 0 -49 17t-20 45z" />
    <glyph glyph-name="Yacute" unicode="&#xdd;" horiz-adv-x="671" 
d="M678 700l-283 -397v-303h-121v303l-281 397h150l193 -279l197 279h145zM532 849l-220 -104l-43 76l210 128z" />
    <glyph glyph-name="Thorn" unicode="&#xde;" horiz-adv-x="658" 
d="M191 0h-121v700h121v-107h142q85 0 144.5 -19.5t90 -54.5t43.5 -72.5t13 -83.5q0 -45 -15.5 -84.5t-48 -73t-91 -53t-137.5 -19.5h-141v-133zM337 480h-146v-233h139q168 -1 168 117q0 116 -161 116z" />
    <glyph glyph-name="germandbls" unicode="&#xdf;" horiz-adv-x="561" 
d="M283 738q105 0 159.5 -55t54.5 -152q0 -48 -22.5 -89t-63.5 -61q120 -32 120 -174q0 -102 -55.5 -159.5t-162.5 -57.5q-66 0 -108 21l28 103q37 -17 76 -17q49 0 78 28.5t29 79.5q0 105 -130 105h-50v107h25q62 0 91.5 31t29.5 76q0 51 -29.5 79.5t-77.5 28.5
q-52 0 -80 -37.5t-28 -138.5v-456h-114v461q0 145 62 211t168 66z" />
    <glyph glyph-name="agrave" unicode="&#xe0;" horiz-adv-x="534" 
d="M109 371l-56 84q37 36 95.5 56.5t122.5 20.5q102 0 157.5 -56t55.5 -158v-318h-114v57q-57 -63 -161 -63q-86 0 -137.5 44.5t-51.5 119.5q0 83 66.5 124t176.5 41q65 0 107 -14q1 59 -25 88t-87 29q-77 0 -149 -55zM234 93q89 0 136 71v50q-42 14 -95 14q-137 0 -137 -69
q0 -31 26 -48.5t70 -17.5zM269 598l-137 154l89 67l115 -167z" />
    <glyph glyph-name="aacute" unicode="&#xe1;" horiz-adv-x="534" 
d="M109 371l-56 84q37 36 95.5 56.5t122.5 20.5q102 0 157.5 -56t55.5 -158v-318h-114v57q-57 -63 -161 -63q-86 0 -137.5 44.5t-51.5 119.5q0 83 66.5 124t176.5 41q65 0 107 -14q1 59 -25 88t-87 29q-77 0 -149 -55zM234 93q89 0 136 71v50q-42 14 -95 14q-137 0 -137 -69
q0 -31 26 -48.5t70 -17.5zM408 755l-127 -157l-77 54l118 167z" />
    <glyph glyph-name="acircumflex" unicode="&#xe2;" horiz-adv-x="534" 
d="M109 371l-56 84q37 36 95.5 56.5t122.5 20.5q102 0 157.5 -56t55.5 -158v-318h-114v57q-57 -63 -161 -63q-86 0 -137.5 44.5t-51.5 119.5q0 83 66.5 124t176.5 41q65 0 107 -14q1 59 -25 88t-87 29q-77 0 -149 -55zM234 93q89 0 136 71v50q-42 14 -95 14q-137 0 -137 -69
q0 -31 26 -48.5t70 -17.5zM269 790l157 -131l-57 -70l-102 88l-106 -85l-52 68l156 130h4z" />
    <glyph glyph-name="atilde" unicode="&#xe3;" horiz-adv-x="534" 
d="M109 371l-56 84q37 36 95.5 56.5t122.5 20.5q102 0 157.5 -56t55.5 -158v-318h-114v57q-57 -63 -161 -63q-86 0 -137.5 44.5t-51.5 119.5q0 83 66.5 124t176.5 41q65 0 107 -14q1 59 -25 88t-87 29q-77 0 -149 -55zM234 93q89 0 136 71v50q-42 14 -95 14q-137 0 -137 -69
q0 -31 26 -48.5t70 -17.5zM142 612l-49 53q56 71 122 71q24 0 62 -22t58 -22q34 0 66 30l40 -58q-54 -66 -116 -66q-25 0 -62 21.5t-57 21.5q-30 0 -64 -29z" />
    <glyph glyph-name="adieresis" unicode="&#xe4;" horiz-adv-x="534" 
d="M109 371l-56 84q37 36 95.5 56.5t122.5 20.5q102 0 157.5 -56t55.5 -158v-318h-114v57q-57 -63 -161 -63q-86 0 -137.5 44.5t-51.5 119.5q0 83 66.5 124t176.5 41q65 0 107 -14q1 59 -25 88t-87 29q-77 0 -149 -55zM234 93q89 0 136 71v50q-42 14 -95 14q-137 0 -137 -69
q0 -31 26 -48.5t70 -17.5zM91 672q0 25 19 41.5t44 16.5q24 0 44 -16.5t20 -41.5q0 -27 -19.5 -44t-44.5 -17q-26 0 -44.5 17t-18.5 44zM308 672q0 25 19.5 41.5t46.5 16.5q25 0 44.5 -16.5t19.5 -41.5q0 -28 -18.5 -44.5t-45.5 -16.5t-46.5 16.5t-19.5 44.5z" />
    <glyph glyph-name="aring" unicode="&#xe5;" horiz-adv-x="534" 
d="M109 371l-56 84q37 36 95.5 56.5t122.5 20.5q102 0 157.5 -56t55.5 -158v-318h-114v57q-57 -63 -161 -63q-86 0 -137.5 44.5t-51.5 119.5q0 83 66.5 124t176.5 41q65 0 107 -14q1 59 -25 88t-87 29q-77 0 -149 -55zM234 93q89 0 136 71v50q-42 14 -95 14q-137 0 -137 -69
q0 -31 26 -48.5t70 -17.5zM145 701q0 49 35 83t87 34q53 0 88.5 -34t35.5 -83q0 -48 -35.5 -81.5t-88.5 -33.5q-52 0 -87 33.5t-35 81.5zM222 702q0 -20 12.5 -33t33.5 -13t33.5 12.5t12.5 33.5q0 22 -12.5 34t-33.5 12t-33.5 -12.5t-12.5 -33.5z" />
    <glyph glyph-name="ae" unicode="&#xe6;" horiz-adv-x="908" 
d="M788 166l70 -69q-79 -106 -211 -106q-144 0 -221 94q-75 -91 -204 -91q-94 0 -148 45t-54 119q0 83 66.5 124t176.5 41q66 0 108 -14q1 58 -25.5 87.5t-87.5 29.5q-77 0 -149 -55l-56 84q37 36 95.5 56.5t122.5 20.5q116 0 171 -72q72 72 193 72q106 0 175 -65.5
t69 -172.5q0 -26 -6 -73h-386q7 -60 51 -92t111 -32q88 0 139 69zM234 93q49 0 85 24.5t52 56.5v40q-42 14 -96 14q-137 0 -137 -69q0 -31 26 -48.5t70 -17.5zM630 429q-57 0 -94 -29t-48 -80h273q-14 109 -131 109z" />
    <glyph glyph-name="ccedilla" unicode="&#xe7;" horiz-adv-x="538" 
d="M171 -166l35 59q32 -25 78 -25q40 0 40 21q0 23 -50 23h-13v82q-106 14 -169 85.5t-63 181.5q0 117 76 194t198 77q78 0 137.5 -32.5t85.5 -85.5l-85 -56q-51 68 -133 68q-71 0 -116 -46t-45 -119q0 -71 47.5 -117.5t125.5 -46.5q82 0 131 74l81 -52q-30 -58 -86 -91
t-122 -36v-24q50 -3 76.5 -25.5t26.5 -59.5q0 -40 -35 -65t-102 -25t-119 41z" />
    <glyph glyph-name="egrave" unicode="&#xe8;" horiz-adv-x="569" 
d="M449 166l70 -69q-79 -106 -211 -106q-126 0 -202.5 73.5t-76.5 196.5q0 119 70.5 195t196.5 76q106 0 175 -65.5t69 -172.5q0 -26 -6 -73h-386q7 -60 51 -92t111 -32q88 0 139 69zM291 429q-57 0 -94 -29t-48 -80h273q-7 53 -41 81t-90 28zM299 598l-137 154l89 67
l115 -167z" />
    <glyph glyph-name="eacute" unicode="&#xe9;" horiz-adv-x="569" 
d="M449 166l70 -69q-79 -106 -211 -106q-126 0 -202.5 73.5t-76.5 196.5q0 119 70.5 195t196.5 76q106 0 175 -65.5t69 -172.5q0 -26 -6 -73h-386q7 -60 51 -92t111 -32q88 0 139 69zM291 429q-57 0 -94 -29t-48 -80h273q-7 53 -41 81t-90 28zM425 755l-127 -157l-77 54
l118 167z" />
    <glyph glyph-name="ecircumflex" unicode="&#xea;" horiz-adv-x="569" 
d="M449 166l70 -69q-79 -106 -211 -106q-126 0 -202.5 73.5t-76.5 196.5q0 119 70.5 195t196.5 76q106 0 175 -65.5t69 -172.5q0 -26 -6 -73h-386q7 -60 51 -92t111 -32q88 0 139 69zM291 429q-57 0 -94 -29t-48 -80h273q-7 53 -41 81t-90 28zM300 790l157 -131l-57 -70
l-102 88l-106 -85l-52 68l156 130h4z" />
    <glyph glyph-name="edieresis" unicode="&#xeb;" horiz-adv-x="569" 
d="M449 166l70 -69q-79 -106 -211 -106q-126 0 -202.5 73.5t-76.5 196.5q0 119 70.5 195t196.5 76q106 0 175 -65.5t69 -172.5q0 -26 -6 -73h-386q7 -60 51 -92t111 -32q88 0 139 69zM291 429q-57 0 -94 -29t-48 -80h273q-7 53 -41 81t-90 28zM111 672q0 25 19 41.5t44 16.5
q24 0 44 -16.5t20 -41.5q0 -27 -19.5 -44t-44.5 -17q-26 0 -44.5 17t-18.5 44zM328 672q0 25 19.5 41.5t46.5 16.5q25 0 44.5 -16.5t19.5 -41.5q0 -28 -18.5 -44.5t-45.5 -16.5t-46.5 16.5t-19.5 44.5z" />
    <glyph glyph-name="igrave" unicode="&#xec;" horiz-adv-x="253" 
d="M70 0v520h114v-520h-114zM138 598l-137 154l89 67l115 -167z" />
    <glyph glyph-name="iacute" unicode="&#xed;" horiz-adv-x="253" 
d="M70 0v520h114v-520h-114zM257 755l-127 -157l-77 54l118 167z" />
    <glyph glyph-name="icircumflex" unicode="&#xee;" horiz-adv-x="253" 
d="M70 0v520h114v-520h-114zM128 790l157 -131l-57 -70l-102 88l-106 -85l-52 68l156 130h4z" />
    <glyph glyph-name="idieresis" unicode="&#xef;" horiz-adv-x="253" 
d="M70 0v520h114v-520h-114zM-46 672q0 25 19 41.5t44 16.5q24 0 44 -16.5t20 -41.5q0 -27 -19.5 -44t-44.5 -17q-26 0 -44.5 17t-18.5 44zM171 672q0 25 19.5 41.5t46.5 16.5q25 0 44.5 -16.5t19.5 -41.5q0 -28 -18.5 -44.5t-45.5 -16.5t-46.5 16.5t-19.5 44.5z" />
    <glyph glyph-name="eth" unicode="&#xf0;" horiz-adv-x="615" 
d="M288 783l80 -32l-23 -52q117 -52 179 -153t62 -243q0 -146 -77 -229t-202 -83q-121 0 -199.5 76.5t-78.5 193.5t77 189t201 72q82 0 129 -42q-38 81 -132 129l-26 -58l-80 32l25 56q-38 9 -79 12l26 95q50 -6 93 -18zM146 261q0 -71 45 -117.5t116 -46.5q76 0 119 48
t43 137q0 54 -12 80q-45 60 -135 60q-81 0 -128.5 -42.5t-47.5 -118.5z" />
    <glyph glyph-name="ntilde" unicode="&#xf1;" horiz-adv-x="586" 
d="M53 0v520h114v-47q59 58 160 58q209 0 209 -237v-294h-114v285q0 74 -31 107t-97 33q-42 0 -76 -23.5t-51 -64.5v-337h-114zM167 612l-49 53q56 71 122 71q24 0 62 -22t58 -22q34 0 66 30l40 -58q-54 -66 -116 -66q-25 0 -62 21.5t-57 21.5q-30 0 -64 -29z" />
    <glyph glyph-name="ograve" unicode="&#xf2;" horiz-adv-x="615" 
d="M29 261q0 118 77.5 194.5t200.5 76.5t201 -76.5t78 -194.5q0 -117 -78 -193.5t-201 -76.5q-121 0 -199.5 76.5t-78.5 193.5zM147 261q0 -71 44.5 -117.5t115.5 -46.5q72 0 116.5 45t44.5 119t-46 119.5t-115 45.5q-70 0 -115 -45t-45 -120zM308 598l-137 154l89 67
l115 -167z" />
    <glyph glyph-name="oacute" unicode="&#xf3;" horiz-adv-x="615" 
d="M29 261q0 118 77.5 194.5t200.5 76.5t201 -76.5t78 -194.5q0 -117 -78 -193.5t-201 -76.5q-121 0 -199.5 76.5t-78.5 193.5zM147 261q0 -71 44.5 -117.5t115.5 -46.5q72 0 116.5 45t44.5 119t-46 119.5t-115 45.5q-70 0 -115 -45t-45 -120zM441 755l-127 -157l-77 54
l118 167z" />
    <glyph glyph-name="ocircumflex" unicode="&#xf4;" horiz-adv-x="615" 
d="M29 261q0 118 77.5 194.5t200.5 76.5t201 -76.5t78 -194.5q0 -117 -78 -193.5t-201 -76.5q-121 0 -199.5 76.5t-78.5 193.5zM147 261q0 -71 44.5 -117.5t115.5 -46.5q72 0 116.5 45t44.5 119t-46 119.5t-115 45.5q-70 0 -115 -45t-45 -120zM309 790l157 -131l-57 -70
l-102 88l-106 -85l-52 68l156 130h4z" />
    <glyph glyph-name="otilde" unicode="&#xf5;" horiz-adv-x="615" 
d="M29 261q0 118 77.5 194.5t200.5 76.5t201 -76.5t78 -194.5q0 -117 -78 -193.5t-201 -76.5q-121 0 -199.5 76.5t-78.5 193.5zM147 261q0 -71 44.5 -117.5t115.5 -46.5q72 0 116.5 45t44.5 119t-46 119.5t-115 45.5q-70 0 -115 -45t-45 -120zM182 612l-49 53q56 71 122 71
q24 0 62 -22t58 -22q34 0 66 30l40 -58q-54 -66 -116 -66q-25 0 -62 21.5t-57 21.5q-30 0 -64 -29z" />
    <glyph glyph-name="odieresis" unicode="&#xf6;" horiz-adv-x="615" 
d="M29 261q0 118 77.5 194.5t200.5 76.5t201 -76.5t78 -194.5q0 -117 -78 -193.5t-201 -76.5q-121 0 -199.5 76.5t-78.5 193.5zM147 261q0 -71 44.5 -117.5t115.5 -46.5q72 0 116.5 45t44.5 119t-46 119.5t-115 45.5q-70 0 -115 -45t-45 -120zM134 672q0 25 19 41.5t44 16.5
q24 0 44 -16.5t20 -41.5q0 -27 -19.5 -44t-44.5 -17q-26 0 -44.5 17t-18.5 44zM351 672q0 25 19.5 41.5t46.5 16.5q25 0 44.5 -16.5t19.5 -41.5q0 -28 -18.5 -44.5t-45.5 -16.5t-46.5 16.5t-19.5 44.5z" />
    <glyph glyph-name="divide" unicode="&#xf7;" horiz-adv-x="566" 
d="M217 552q0 22 19 40.5t48 18.5q27 0 45.5 -18.5t18.5 -40.5q0 -24 -18 -42t-46 -18q-30 0 -48.5 18t-18.5 42zM217 167q0 23 19 41t48 18q27 0 45.5 -18t18.5 -41q0 -25 -18 -43t-46 -18q-30 0 -48.5 18t-18.5 43zM44 309v101h478v-101h-478z" />
    <glyph glyph-name="oslash" unicode="&#xf8;" horiz-adv-x="615" 
d="M29 261q0 118 77.5 194.5t200.5 76.5q72 0 131 -28l51 62l82 -66l-49 -60q64 -73 64 -179q0 -117 -78 -193.5t-201 -76.5q-73 0 -128 27l-52 -64l-84 70l49 59q-63 74 -63 178zM147 261q0 -49 21 -85l197 240q-30 10 -58 10q-70 0 -115 -45t-45 -120zM468 261
q0 47 -21 86l-197 -241q27 -9 57 -9q72 0 116.5 45t44.5 119z" />
    <glyph glyph-name="ugrave" unicode="&#xf9;" horiz-adv-x="578" 
d="M525 523v-523h-114v55q-57 -64 -145 -64q-109 0 -162.5 57t-53.5 176v299h114v-288q0 -138 113 -138q89 0 134 90v336h114zM304 598l-137 154l89 67l115 -167z" />
    <glyph glyph-name="uacute" unicode="&#xfa;" horiz-adv-x="578" 
d="M525 523v-523h-114v55q-57 -64 -145 -64q-109 0 -162.5 57t-53.5 176v299h114v-288q0 -138 113 -138q89 0 134 90v336h114zM417 755l-127 -157l-77 54l118 167z" />
    <glyph glyph-name="ucircumflex" unicode="&#xfb;" horiz-adv-x="578" 
d="M525 523v-523h-114v55q-57 -64 -145 -64q-109 0 -162.5 57t-53.5 176v299h114v-288q0 -138 113 -138q89 0 134 90v336h114zM291 790l157 -131l-57 -70l-102 88l-106 -85l-52 68l156 130h4z" />
    <glyph glyph-name="udieresis" unicode="&#xfc;" horiz-adv-x="578" 
d="M525 523v-523h-114v55q-57 -64 -145 -64q-109 0 -162.5 57t-53.5 176v299h114v-288q0 -138 113 -138q89 0 134 90v336h114zM113 672q0 25 19 41.5t44 16.5q24 0 44 -16.5t20 -41.5q0 -27 -19.5 -44t-44.5 -17q-26 0 -44.5 17t-18.5 44zM330 672q0 25 19.5 41.5t46.5 16.5
q25 0 44.5 -16.5t19.5 -41.5q0 -28 -18.5 -44.5t-45.5 -16.5t-46.5 16.5t-19.5 44.5z" />
    <glyph glyph-name="yacute" unicode="&#xfd;" horiz-adv-x="548" 
d="M75 -194l45 97q10 -6 23 -6q47 0 82 87l18 47l-256 489h132l179 -351l138 351h122l-204 -505q-52 -127 -97.5 -175.5t-109.5 -48.5q-42 0 -72 15zM412 755l-127 -157l-77 54l118 167z" />
    <glyph glyph-name="thorn" unicode="&#xfe;" horiz-adv-x="590" 
d="M53 -200v930h112v-257q23 29 62.5 44t81.5 15q116 0 184 -73t68 -190q0 -121 -72 -199.5t-188 -78.5q-101 0 -136 43v-234h-112zM297 426q-47 0 -81 -24t-51 -61v-180q38 -64 123 -64q70 0 112.5 45t42.5 118q0 78 -39 122t-107 44z" />
    <glyph glyph-name="ydieresis" unicode="&#xff;" horiz-adv-x="548" 
d="M75 -194l45 97q10 -6 23 -6q47 0 82 87l18 47l-256 489h132l179 -351l138 351h122l-204 -505q-52 -127 -97.5 -175.5t-109.5 -48.5q-42 0 -72 15zM101 672q0 25 19 41.5t44 16.5q24 0 44 -16.5t20 -41.5q0 -27 -19.5 -44t-44.5 -17q-26 0 -44.5 17t-18.5 44zM318 672
q0 25 19.5 41.5t46.5 16.5q25 0 44.5 -16.5t19.5 -41.5q0 -28 -18.5 -44.5t-45.5 -16.5t-46.5 16.5t-19.5 44.5z" />
    <glyph glyph-name="Amacron" unicode="&#x100;" horiz-adv-x="704" 
d="M-1 0l307 700h92l307 -700h-127l-68 155h-319l-67 -155h-125zM350 525l-115 -266h230zM198 780v95h307v-95h-307z" />
    <glyph glyph-name="amacron" unicode="&#x101;" horiz-adv-x="534" 
d="M109 371l-56 84q37 36 95.5 56.5t122.5 20.5q102 0 157.5 -56t55.5 -158v-318h-114v57q-57 -63 -161 -63q-86 0 -137.5 44.5t-51.5 119.5q0 83 66.5 124t176.5 41q65 0 107 -14q1 59 -25 88t-87 29q-77 0 -149 -55zM234 93q89 0 136 71v50q-42 14 -95 14q-137 0 -137 -69
q0 -31 26 -48.5t70 -17.5zM127 625v95h281v-95h-281z" />
    <glyph glyph-name="Abreve" unicode="&#x102;" horiz-adv-x="704" 
d="M-1 0l307 700h92l307 -700h-127l-68 155h-319l-67 -155h-125zM350 525l-115 -266h230zM161 865l52 59q56 -61 143 -61t140 61l45 -58q-27 -44 -77.5 -74.5t-107.5 -30.5q-65 0 -116.5 31t-78.5 73z" />
    <glyph glyph-name="abreve" unicode="&#x103;" horiz-adv-x="534" 
d="M109 371l-56 84q37 36 95.5 56.5t122.5 20.5q102 0 157.5 -56t55.5 -158v-318h-114v57q-57 -63 -161 -63q-86 0 -137.5 44.5t-51.5 119.5q0 83 66.5 124t176.5 41q65 0 107 -14q1 59 -25 88t-87 29q-77 0 -149 -55zM234 93q89 0 136 71v50q-42 14 -95 14q-137 0 -137 -69
q0 -31 26 -48.5t70 -17.5zM99 717l51 58q48 -55 112 -55q70 0 115 53l40 -55q-63 -95 -159 -95q-57 0 -98 30.5t-61 63.5z" />
    <glyph glyph-name="Aogonek" unicode="&#x104;" horiz-adv-x="704" 
d="M669 -97l31 -73q-32 -30 -101 -30q-56 -1 -94.5 22.5t-38.5 70.5q0 40 29.5 68.5t79.5 43.5l-65 150h-319l-67 -155h-125l307 700h92l307 -700h-21q-41 -1 -73 -22.5t-32 -47.5q0 -37 44 -37q25 0 46 10zM350 525l-115 -266h230z" />
    <glyph glyph-name="aogonek" unicode="&#x105;" horiz-adv-x="534" 
d="M462 -96l34 -73q-33 -31 -101 -31q-55 0 -92.5 24.5t-37.5 71.5q0 39 29 67t76 43v47q-54 -59 -161 -59q-86 0 -137.5 44.5t-51.5 119.5q0 83 66.5 124t176.5 41q65 0 107 -14q1 59 -25 88t-87 29q-77 0 -149 -55l-56 84q37 36 95.5 56.5t122.5 20.5q102 0 157.5 -56
t55.5 -158v-318h-3q-38 0 -68.5 -21t-30.5 -47q0 -17 10.5 -27t26.5 -10q24 0 43 9zM234 93q89 0 136 71v50q-42 14 -95 14q-137 0 -137 -69q0 -31 26 -48.5t70 -17.5z" />
    <glyph glyph-name="Cacute" unicode="&#x106;" horiz-adv-x="692" 
d="M606 200l71 -78q-43 -61 -118.5 -95.5t-165.5 -34.5q-165 0 -262.5 97.5t-97.5 260.5q0 153 99 255.5t259 102.5q92 0 165 -33.5t110 -87.5l-80 -76q-73 81 -189 81q-108 0 -173 -66t-65 -176q0 -109 67.5 -175.5t175.5 -66.5q127 0 204 92zM565 849l-220 -104l-43 76
l210 128z" />
    <glyph glyph-name="cacute" unicode="&#x107;" horiz-adv-x="538" 
d="M451 171l81 -52q-31 -61 -92 -94.5t-131 -33.5q-126 0 -203 74t-77 196q0 117 76 194t198 77q78 0 137.5 -32.5t85.5 -85.5l-85 -56q-51 68 -133 68q-71 0 -116 -46t-45 -119q0 -71 47.5 -117.5t125.5 -46.5q82 0 131 74zM447 755l-127 -157l-77 54l118 167z" />
    <glyph glyph-name="Ccircumflex" unicode="&#x108;" horiz-adv-x="692" 
d="M606 200l71 -78q-43 -61 -118.5 -95.5t-165.5 -34.5q-165 0 -262.5 97.5t-97.5 260.5q0 153 99 255.5t259 102.5q92 0 165 -33.5t110 -87.5l-80 -76q-73 81 -189 81q-108 0 -173 -66t-65 -176q0 -109 67.5 -175.5t175.5 -66.5q127 0 204 92zM376 929l184 -111l-47 -69
l-139 73l-138 -73l-40 67l176 113h4z" />
    <glyph glyph-name="ccircumflex" unicode="&#x109;" horiz-adv-x="538" 
d="M451 171l81 -52q-31 -61 -92 -94.5t-131 -33.5q-126 0 -203 74t-77 196q0 117 76 194t198 77q78 0 137.5 -32.5t85.5 -85.5l-85 -56q-51 68 -133 68q-71 0 -116 -46t-45 -119q0 -71 47.5 -117.5t125.5 -46.5q82 0 131 74zM301 790l157 -131l-57 -70l-102 88l-106 -85
l-52 68l156 130h4z" />
    <glyph glyph-name="Cdotaccent" unicode="&#x10a;" horiz-adv-x="692" 
d="M606 200l71 -78q-43 -61 -118.5 -95.5t-165.5 -34.5q-165 0 -262.5 97.5t-97.5 260.5q0 153 99 255.5t259 102.5q92 0 165 -33.5t110 -87.5l-80 -76q-73 81 -189 81q-108 0 -173 -66t-65 -176q0 -109 67.5 -175.5t175.5 -66.5q127 0 204 92zM314 827q0 26 19 43t48 17
q28 0 47 -17.5t19 -42.5q0 -27 -19 -44.5t-47 -17.5q-30 0 -48.5 17.5t-18.5 44.5z" />
    <glyph glyph-name="cdotaccent" unicode="&#x10b;" horiz-adv-x="538" 
d="M451 171l81 -52q-31 -61 -92 -94.5t-131 -33.5q-126 0 -203 74t-77 196q0 117 76 194t198 77q78 0 137.5 -32.5t85.5 -85.5l-85 -56q-51 68 -133 68q-71 0 -116 -46t-45 -119q0 -71 47.5 -117.5t125.5 -46.5q82 0 131 74zM233 671q0 25 19 42t48 17q28 0 47 -17t19 -42
q0 -27 -19 -45t-47 -18q-30 0 -48.5 17.5t-18.5 45.5z" />
    <glyph glyph-name="Ccaron" unicode="&#x10c;" horiz-adv-x="692" 
d="M606 200l71 -78q-43 -61 -118.5 -95.5t-165.5 -34.5q-165 0 -262.5 97.5t-97.5 260.5q0 153 99 255.5t259 102.5q92 0 165 -33.5t110 -87.5l-80 -76q-73 81 -189 81q-108 0 -173 -66t-65 -176q0 -109 67.5 -175.5t175.5 -66.5q127 0 204 92zM375 750l-183 111l46 68
l139 -79l138 79l41 -67l-177 -112h-4z" />
    <glyph glyph-name="ccaron" unicode="&#x10d;" horiz-adv-x="538" 
d="M451 171l81 -52q-31 -61 -92 -94.5t-131 -33.5q-126 0 -203 74t-77 196q0 117 76 194t198 77q78 0 137.5 -32.5t85.5 -85.5l-85 -56q-51 68 -133 68q-71 0 -116 -46t-45 -119q0 -71 47.5 -117.5t125.5 -46.5q82 0 131 74zM301 609l-157 131l57 69l102 -87l106 85l52 -68
l-156 -130h-4z" />
    <glyph glyph-name="Dcaron" unicode="&#x10e;" horiz-adv-x="716" 
d="M70 0v700h219q105 0 183.5 -27t123.5 -75.5t66 -107.5t21 -131q0 -160 -102 -259.5t-305 -99.5h-206zM287 586h-96v-472h94q139 0 205.5 65.5t66.5 179.5q0 227 -270 227zM302 750l-183 111l46 68l139 -79l138 79l41 -67l-177 -112h-4z" />
    <glyph glyph-name="dcaron" unicode="&#x10f;" horiz-adv-x="633" 
d="M426 0v57q-17 -24 -55.5 -44.5t-90.5 -20.5q-113 0 -182 71t-69 196q0 119 75.5 196t183.5 77q93 0 138 -39v237h114v-730h-114zM301 98q42 0 76.5 24.5t48.5 56.5v190q-40 57 -119 57q-68 0 -114 -44.5t-46 -120.5q0 -75 42.5 -119t111.5 -44zM603 731h119
q13 -23 13 -67q0 -52 -32 -96.5t-76 -71.5l-49 44q24 21 36 51t12 55q0 55 -23 85z" />
    <glyph glyph-name="Dcroat" unicode="&#x110;" horiz-adv-x="778" 
d="M15 298v101h117v301h218q106 0 184 -27t123 -75.5t66 -107.5t21 -131q0 -160 -102 -259.5t-304 -99.5h-206v298h-117zM348 586h-95v-187h174v-101h-174v-184h94q139 0 205 65.5t66 179.5q0 227 -270 227z" />
    <glyph glyph-name="dcroat" unicode="&#x111;" horiz-adv-x="593" 
d="M314 566v101h112v63h114v-63h52v-101h-52v-566h-114v57q-17 -24 -55.5 -44.5t-90.5 -20.5q-113 0 -182 71t-69 196q0 119 75.5 196t183.5 77q93 0 138 -39v73h-112zM301 98q42 0 76.5 24.5t48.5 56.5v190q-40 57 -119 57q-68 0 -114 -44.5t-46 -120.5q0 -75 42.5 -119
t111.5 -44z" />
    <glyph glyph-name="Emacron" unicode="&#x112;" horiz-adv-x="645" 
d="M70 0v700h520v-114h-399v-176h373v-110h-373v-186h409v-114h-530zM173 780v95h307v-95h-307z" />
    <glyph glyph-name="emacron" unicode="&#x113;" horiz-adv-x="569" 
d="M449 166l70 -69q-79 -106 -211 -106q-126 0 -202.5 73.5t-76.5 196.5q0 119 70.5 195t196.5 76q106 0 175 -65.5t69 -172.5q0 -26 -6 -73h-386q7 -60 51 -92t111 -32q88 0 139 69zM291 429q-57 0 -94 -29t-48 -80h273q-7 53 -41 81t-90 28zM147 625v95h281v-95h-281z" />
    <glyph glyph-name="Edotaccent" unicode="&#x116;" horiz-adv-x="645" 
d="M70 0v700h520v-114h-399v-176h373v-110h-373v-186h409v-114h-530zM264 827q0 26 19 43t48 17q28 0 47 -17.5t19 -42.5q0 -27 -19 -44.5t-47 -17.5q-30 0 -48.5 17.5t-18.5 44.5z" />
    <glyph glyph-name="edotaccent" unicode="&#x117;" horiz-adv-x="569" 
d="M449 166l70 -69q-79 -106 -211 -106q-126 0 -202.5 73.5t-76.5 196.5q0 119 70.5 195t196.5 76q106 0 175 -65.5t69 -172.5q0 -26 -6 -73h-386q7 -60 51 -92t111 -32q88 0 139 69zM291 429q-57 0 -94 -29t-48 -80h273q-7 53 -41 81t-90 28zM227 671q0 25 19 42t48 17
q28 0 47 -17t19 -42q0 -27 -19 -45t-47 -18q-30 0 -48.5 17.5t-18.5 45.5z" />
    <glyph glyph-name="Eogonek" unicode="&#x118;" horiz-adv-x="645" 
d="M70 0v700h520v-114h-399v-176h373v-110h-373v-186h409v-114h-5q-42 0 -75.5 -22t-33.5 -48q0 -37 44 -37q25 0 46 10l31 -73q-32 -30 -101 -30q-56 -1 -94.5 22.5t-38.5 70.5q0 71 93 107h-396z" />
    <glyph glyph-name="eogonek" unicode="&#x119;" horiz-adv-x="569" 
d="M449 166l70 -69q-37 -51 -88 -77q-69 -58 -69 -88q0 -17 10.5 -27t26.5 -10q23 0 42 9l35 -73q-33 -31 -101 -31q-54 0 -92 23.5t-38 68.5q0 32 20 55t58 45q-5 -1 -15 -1q-126 0 -202.5 73.5t-76.5 196.5q0 119 70.5 195t196.5 76q106 0 175 -65.5t69 -172.5
q0 -26 -6 -73h-386q7 -60 51 -92t111 -32q88 0 139 69zM291 429q-57 0 -94 -29t-48 -80h273q-7 53 -41 81t-90 28z" />
    <glyph glyph-name="Ecaron" unicode="&#x11a;" horiz-adv-x="645" 
d="M70 0v700h520v-114h-399v-176h373v-110h-373v-186h409v-114h-530zM335 750l-183 111l46 68l139 -79l138 79l41 -67l-177 -112h-4z" />
    <glyph glyph-name="ecaron" unicode="&#x11b;" horiz-adv-x="569" 
d="M449 166l70 -69q-79 -106 -211 -106q-126 0 -202.5 73.5t-76.5 196.5q0 119 70.5 195t196.5 76q106 0 175 -65.5t69 -172.5q0 -26 -6 -73h-386q7 -60 51 -92t111 -32q88 0 139 69zM291 429q-57 0 -94 -29t-48 -80h273q-7 53 -41 81t-90 28zM283 609l-157 131l57 69
l102 -87l106 85l52 -68l-156 -130h-4z" />
    <glyph glyph-name="Gcircumflex" unicode="&#x11c;" horiz-adv-x="715" 
d="M380 264v110h302v-271q-48 -53 -121.5 -82t-154.5 -29q-164 0 -268.5 98.5t-104.5 259.5q0 152 102 255t258 103q89 0 161.5 -30t111.5 -83l-81 -77q-66 74 -186 74q-109 0 -174.5 -65.5t-65.5 -176.5q0 -113 69 -177.5t180 -64.5q95 0 158 49v107h-186zM376 929
l184 -111l-47 -69l-139 73l-138 -73l-40 67l176 113h4z" />
    <glyph glyph-name="gcircumflex" unicode="&#x11d;" horiz-adv-x="589" 
d="M536 520v-478q0 -126 -64 -188.5t-176 -62.5q-88 0 -150.5 35.5t-85.5 98.5l99 43q16 -30 48.5 -50.5t79.5 -20.5q135 0 135 124v23q-34 -53 -138 -53q-115 0 -185 71.5t-70 198.5q0 122 74.5 195t181.5 73q92 0 137 -43v34h114zM303 97q43 0 75 23t44 56v192
q-36 55 -120 55q-66 0 -110.5 -43t-44.5 -121q0 -77 41.5 -119.5t114.5 -42.5zM303 790l157 -131l-57 -70l-102 88l-106 -85l-52 68l156 130h4z" />
    <glyph glyph-name="Gbreve" unicode="&#x11e;" horiz-adv-x="715" 
d="M380 264v110h302v-271q-48 -53 -121.5 -82t-154.5 -29q-164 0 -268.5 98.5t-104.5 259.5q0 152 102 255t258 103q89 0 161.5 -30t111.5 -83l-81 -77q-66 74 -186 74q-109 0 -174.5 -65.5t-65.5 -176.5q0 -113 69 -177.5t180 -64.5q95 0 158 49v107h-186zM199 865l52 59
q56 -61 143 -61t140 61l45 -58q-27 -44 -77.5 -74.5t-107.5 -30.5q-65 0 -116.5 31t-78.5 73z" />
    <glyph glyph-name="gbreve" unicode="&#x11f;" horiz-adv-x="589" 
d="M536 520v-478q0 -126 -64 -188.5t-176 -62.5q-88 0 -150.5 35.5t-85.5 98.5l99 43q16 -30 48.5 -50.5t79.5 -20.5q135 0 135 124v23q-34 -53 -138 -53q-115 0 -185 71.5t-70 198.5q0 122 74.5 195t181.5 73q92 0 137 -43v34h114zM303 97q43 0 75 23t44 56v192
q-36 55 -120 55q-66 0 -110.5 -43t-44.5 -121q0 -77 41.5 -119.5t114.5 -42.5zM136 717l51 58q48 -55 112 -55q70 0 115 53l40 -55q-63 -95 -159 -95q-57 0 -98 30.5t-61 63.5z" />
    <glyph glyph-name="Gdotaccent" unicode="&#x120;" horiz-adv-x="715" 
d="M380 264v110h302v-271q-48 -53 -121.5 -82t-154.5 -29q-164 0 -268.5 98.5t-104.5 259.5q0 152 102 255t258 103q89 0 161.5 -30t111.5 -83l-81 -77q-66 74 -186 74q-109 0 -174.5 -65.5t-65.5 -176.5q0 -113 69 -177.5t180 -64.5q95 0 158 49v107h-186zM317 827
q0 26 19 43t48 17q28 0 47 -17.5t19 -42.5q0 -27 -19 -44.5t-47 -17.5q-30 0 -48.5 17.5t-18.5 44.5z" />
    <glyph glyph-name="gdotaccent" unicode="&#x121;" horiz-adv-x="589" 
d="M536 520v-478q0 -126 -64 -188.5t-176 -62.5q-88 0 -150.5 35.5t-85.5 98.5l99 43q16 -30 48.5 -50.5t79.5 -20.5q135 0 135 124v23q-34 -53 -138 -53q-115 0 -185 71.5t-70 198.5q0 122 74.5 195t181.5 73q92 0 137 -43v34h114zM303 97q43 0 75 23t44 56v192
q-36 55 -120 55q-66 0 -110.5 -43t-44.5 -121q0 -77 41.5 -119.5t114.5 -42.5zM238 671q0 25 19 42t48 17q28 0 47 -17t19 -42q0 -27 -19 -45t-47 -18q-30 0 -48.5 17.5t-18.5 45.5z" />
    <glyph glyph-name="Gcommaaccent" unicode="&#x122;" horiz-adv-x="715" 
d="M380 264v110h302v-271q-48 -53 -121.5 -82t-154.5 -29q-164 0 -268.5 98.5t-104.5 259.5q0 152 102 255t258 103q89 0 161.5 -30t111.5 -83l-81 -77q-66 74 -186 74q-109 0 -174.5 -65.5t-65.5 -176.5q0 -113 69 -177.5t180 -64.5q95 0 158 49v107h-186zM340 -100l94 62
q45 -36 45 -87q0 -52 -28 -91.5t-64 -61.5l-53 41q35 35 35 78q0 28 -29 59z" />
    <glyph glyph-name="gcommaaccent" unicode="&#x123;" horiz-adv-x="589" 
d="M377 633l-94 -61q-46 37 -46 86q0 52 28 92t64 62l54 -41q-36 -38 -36 -78q0 -28 30 -60zM536 520v-478q0 -126 -64 -188.5t-176 -62.5q-88 0 -150.5 35.5t-85.5 98.5l99 43q16 -30 48.5 -50.5t79.5 -20.5q135 0 135 124v23q-34 -53 -138 -53q-115 0 -185 71.5t-70 198.5
q0 122 74.5 195t181.5 73q92 0 137 -43v34h114zM303 97q43 0 75 23t44 56v192q-36 55 -120 55q-66 0 -110.5 -43t-44.5 -121q0 -77 41.5 -119.5t114.5 -42.5z" />
    <glyph glyph-name="Hcircumflex" unicode="&#x124;" horiz-adv-x="749" 
d="M558 0v297h-367v-297h-121v700h121v-289h367v289h121v-700h-121zM372 929l184 -111l-47 -69l-139 73l-138 -73l-40 67l176 113h4z" />
    <glyph glyph-name="hcircumflex" unicode="&#x125;" horiz-adv-x="584" 
d="M53 0v730h114v-255q56 56 151 56q216 0 216 -238v-293h-114v286q0 73 -30.5 106t-95.5 33q-41 0 -74.5 -23t-52.5 -63v-339h-114zM117 919l184 -111l-47 -69l-139 73l-138 -73l-40 67l176 113h4z" />
    <glyph glyph-name="Hbar" unicode="&#x126;" horiz-adv-x="749" 
d="M0 509v96h70v95h121v-95h367v95h121v-95h70v-96h-70v-509h-121v297h-367v-297h-121v509h-70zM191 411h367v98h-367v-98z" />
    <glyph glyph-name="hbar" unicode="&#x127;" horiz-adv-x="584" 
d="M0 566v101h53v63h114v-63h111v-101h-111v-91q56 56 151 56q216 0 216 -238v-293h-114v286q0 73 -30.5 106t-95.5 33q-41 0 -74.5 -23t-52.5 -63v-339h-114v566h-53z" />
    <glyph glyph-name="Imacron" unicode="&#x12a;" horiz-adv-x="261" 
d="M70 0v700h121v-700h-121zM-23 780v95h307v-95h-307z" />
    <glyph glyph-name="imacron" unicode="&#x12b;" horiz-adv-x="253" 
d="M70 0v520h114v-520h-114zM-13 625v95h281v-95h-281z" />
    <glyph glyph-name="Iogonek" unicode="&#x12e;" horiz-adv-x="275" 
d="M176 -97l31 -73q-32 -30 -101 -30q-56 -1 -94.5 22.5t-38.5 70.5q0 76 104 111v696h121v-700h-7q-41 -1 -73 -22.5t-32 -47.5q0 -37 44 -37q25 0 46 10z" />
    <glyph glyph-name="iogonek" unicode="&#x12f;" horiz-adv-x="253" 
d="M161 -96l34 -73q-33 -31 -101 -31q-55 0 -92.5 24.5t-37.5 71.5q0 39 29.5 67.5t76.5 42.5v514h114v-520h-4q-38 0 -68.5 -21t-30.5 -47q0 -17 10.5 -27t26.5 -10q24 0 43 9zM60 669q0 26 19.5 43t47.5 17t47 -17.5t19 -42.5q0 -27 -19 -44.5t-47 -17.5q-30 0 -48.5 17.5
t-18.5 44.5z" />
    <glyph glyph-name="Idotaccent" unicode="&#x130;" horiz-adv-x="261" 
d="M70 0v700h121v-700h-121zM65 827q0 26 19 43t48 17q28 0 47 -17.5t19 -42.5q0 -27 -19 -44.5t-47 -17.5q-30 0 -48.5 17.5t-18.5 44.5z" />
    <glyph glyph-name="dotlessi" unicode="&#x131;" horiz-adv-x="253" 
d="M70 0v520h114v-520h-114z" />
    <glyph glyph-name="Jcircumflex" unicode="&#x134;" horiz-adv-x="486" 
d="M419 700v-483q0 -108 -57 -166.5t-153 -58.5q-81 0 -134.5 37t-81.5 93l90 68q50 -85 116 -85q52 1 75.5 30.5t23.5 104.5v460h121zM348 929l184 -111l-47 -69l-139 73l-138 -73l-40 67l176 113h4z" />
    <glyph glyph-name="jcircumflex" unicode="&#x135;" horiz-adv-x="254" 
d="M186 520v-521q0 -100 -43 -154t-129 -54q-123 0 -166 100l97 43q23 -37 60 -37q67 0 67 105v518h114zM128 790l157 -131l-57 -70l-102 88l-106 -85l-52 68l156 130h4z" />
    <glyph glyph-name="Kcommaaccent" unicode="&#x136;" horiz-adv-x="680" 
d="M70 0v700h121v-307l314 307h158l-318 -314l341 -386h-161l-271 305l-63 -61v-244h-121zM252 -100l94 62q45 -36 45 -87q0 -52 -28 -91.5t-64 -61.5l-53 41q35 35 35 78q0 28 -29 59z" />
    <glyph glyph-name="kcommaaccent" unicode="&#x137;" horiz-adv-x="528" 
d="M53 0v730h114v-415l210 205h147l-237 -229l249 -291h-145l-191 216l-33 -26v-190h-114zM180 -100l95 62q45 -38 45 -87q0 -52 -28 -91.5t-64 -61.5l-53 41q35 35 35 78q0 27 -30 59z" />
    <glyph glyph-name="Lacute" unicode="&#x139;" horiz-adv-x="598" 
d="M70 0v700h121v-586h397v-114h-518zM482 849l-220 -104l-43 76l210 128z" />
    <glyph glyph-name="lacute" unicode="&#x13a;" horiz-adv-x="220" 
d="M53 0v730h114v-730h-114zM315 862l-220 -104l-43 76l210 128z" />
    <glyph glyph-name="Lcommaaccent" unicode="&#x13b;" horiz-adv-x="598" 
d="M70 0v700h121v-586h397v-114h-518zM260 -100l94 62q45 -36 45 -87q0 -52 -28 -91.5t-64 -61.5l-53 41q35 35 35 78q0 28 -29 59z" />
    <glyph glyph-name="lcommaaccent" unicode="&#x13c;" horiz-adv-x="220" 
d="M53 0v730h114v-730h-114zM42 -100l95 62q45 -38 45 -87q0 -52 -28 -91.5t-64 -61.5l-53 41q35 35 35 78q0 27 -30 59z" />
    <glyph glyph-name="Lcaron" unicode="&#x13d;" horiz-adv-x="598" 
d="M70 0v700h121v-586h397v-114h-518zM376 701h119q13 -23 13 -67q0 -52 -32 -96.5t-76 -71.5l-49 44q24 21 36 51t12 55q0 55 -23 85z" />
    <glyph glyph-name="lcaron" unicode="&#x13e;" horiz-adv-x="254" 
d="M53 0v730h114v-730h-114zM223 731h119q13 -23 13 -67q0 -52 -32 -96.5t-76 -71.5l-49 44q24 21 36 51t12 55q0 55 -23 85z" />
    <glyph glyph-name="Ldot" unicode="&#x13f;" horiz-adv-x="598" 
d="M70 0v700h121v-586h397v-114h-518zM353 389q0 23 20 42t50 19q27 0 47 -19t20 -42q0 -26 -19.5 -45t-47.5 -19q-31 0 -50.5 19t-19.5 45z" />
    <glyph glyph-name="ldot" unicode="&#x140;" horiz-adv-x="319" 
d="M53 0v730h114v-730h-114zM203 352q0 23 20 42t50 19q27 0 47 -19t20 -42q0 -26 -19.5 -45t-47.5 -19q-31 0 -50.5 19t-19.5 45z" />
    <glyph glyph-name="Lslash" unicode="&#x141;" horiz-adv-x="609" 
d="M0 127v124l81 59v390h121v-302l193 140v-123l-193 -141v-160h397v-114h-518v186z" />
    <glyph glyph-name="lslash" unicode="&#x142;" horiz-adv-x="312" 
d="M0 167v124l97 70v369h114v-286l101 74v-123l-101 -74v-321h-114v238z" />
    <glyph glyph-name="Nacute" unicode="&#x143;" horiz-adv-x="738" 
d="M668 0h-94l-386 477v-477h-118v700h94l386 -479v479h118v-700zM562 849l-220 -104l-43 76l210 128z" />
    <glyph glyph-name="nacute" unicode="&#x144;" horiz-adv-x="586" 
d="M53 0v520h114v-47q59 58 160 58q209 0 209 -237v-294h-114v285q0 74 -31 107t-97 33q-42 0 -76 -23.5t-51 -64.5v-337h-114zM427 755l-127 -157l-77 54l118 167z" />
    <glyph glyph-name="Ncommaaccent" unicode="&#x145;" horiz-adv-x="738" 
d="M668 0h-94l-386 477v-477h-118v700h94l386 -479v479h118v-700zM313 -100l94 62q45 -36 45 -87q0 -52 -28 -91.5t-64 -61.5l-53 41q35 35 35 78q0 28 -29 59z" />
    <glyph glyph-name="ncommaaccent" unicode="&#x146;" horiz-adv-x="586" 
d="M53 0v520h114v-47q59 58 160 58q209 0 209 -237v-294h-114v285q0 74 -31 107t-97 33q-42 0 -76 -23.5t-51 -64.5v-337h-114zM216 -100l95 62q45 -38 45 -87q0 -52 -28 -91.5t-64 -61.5l-53 41q35 35 35 78q0 27 -30 59z" />
    <glyph glyph-name="Ncaron" unicode="&#x147;" horiz-adv-x="738" 
d="M668 0h-94l-386 477v-477h-118v700h94l386 -479v479h118v-700zM370 750l-183 111l46 68l139 -79l138 79l41 -67l-177 -112h-4z" />
    <glyph glyph-name="ncaron" unicode="&#x148;" horiz-adv-x="586" 
d="M53 0v520h114v-47q59 58 160 58q209 0 209 -237v-294h-114v285q0 74 -31 107t-97 33q-42 0 -76 -23.5t-51 -64.5v-337h-114zM292 609l-157 131l57 69l102 -87l106 85l52 -68l-156 -130h-4z" />
    <glyph glyph-name="Omacron" unicode="&#x14c;" horiz-adv-x="782" 
d="M33 350q0 151 103.5 254.5t254.5 103.5t254.5 -102t103.5 -256q0 -153 -104 -255.5t-254 -102.5t-254 102t-104 256zM159 350q0 -106 68 -174t164 -68q99 0 165.5 67.5t66.5 174.5q0 106 -68.5 174t-163.5 68q-96 0 -164 -67.5t-68 -174.5zM237 780v95h307v-95h-307z" />
    <glyph glyph-name="omacron" unicode="&#x14d;" horiz-adv-x="615" 
d="M29 261q0 118 77.5 194.5t200.5 76.5t201 -76.5t78 -194.5q0 -117 -78 -193.5t-201 -76.5q-121 0 -199.5 76.5t-78.5 193.5zM147 261q0 -71 44.5 -117.5t115.5 -46.5q72 0 116.5 45t44.5 119t-46 119.5t-115 45.5q-70 0 -115 -45t-45 -120zM167 625v95h281v-95h-281z" />
    <glyph glyph-name="Ohungarumlaut" unicode="&#x150;" horiz-adv-x="782" 
d="M33 350q0 151 103.5 254.5t254.5 103.5t254.5 -102t103.5 -256q0 -153 -104 -255.5t-254 -102.5t-254 102t-104 256zM159 350q0 -106 68 -174t164 -68q99 0 165.5 67.5t66.5 174.5q0 106 -68.5 174t-163.5 68q-96 0 -164 -67.5t-68 -174.5zM660 845l-187 -106l-47 53
l157 129zM457 864l-163 -125l-48 49l117 133z" />
    <glyph glyph-name="ohungarumlaut" unicode="&#x151;" horiz-adv-x="615" 
d="M29 261q0 118 77.5 194.5t200.5 76.5t201 -76.5t78 -194.5q0 -117 -78 -193.5t-201 -76.5q-121 0 -199.5 76.5t-78.5 193.5zM147 261q0 -71 44.5 -117.5t115.5 -46.5q72 0 116.5 45t44.5 119t-46 119.5t-115 45.5q-70 0 -115 -45t-45 -120zM530 755l-138 -157l-61 45
l124 170zM366 766l-127 -168l-62 46l114 175z" />
    <glyph glyph-name="OE" unicode="&#x152;" horiz-adv-x="1156" 
d="M582 0v54q-86 -62 -191 -62q-150 0 -254 102t-104 256q0 151 103.5 254.5t254.5 103.5q108 0 191 -60v52h520v-114h-399v-176h373v-110h-373v-186h409v-114h-530zM391 108q60 0 109.5 26t81.5 73v283q-32 48 -82.5 75t-108.5 27q-96 0 -164 -67.5t-68 -174.5
q0 -106 68 -174t164 -68z" />
    <glyph glyph-name="oe" unicode="&#x153;" horiz-adv-x="957" 
d="M837 166l70 -69q-79 -106 -211 -106q-122 0 -196 68q-77 -68 -193 -68q-121 0 -199.5 76.5t-78.5 193.5q0 118 77.5 194.5t200.5 76.5q113 0 190 -67q72 67 187 67q106 0 175 -65.5t69 -172.5q0 -36 -6 -73h-386q7 -60 51 -92t111 -32q88 0 139 69zM314 97q78 0 124 49
q-21 51 -21 115q0 57 19 111q-44 54 -129 54q-70 0 -115.5 -45t-45.5 -120q0 -71 46 -117.5t122 -46.5zM679 429q-57 0 -93.5 -29t-48.5 -80h273q-14 109 -131 109z" />
    <glyph glyph-name="Racute" unicode="&#x154;" horiz-adv-x="683" 
d="M191 0h-121v700h275q79 0 135 -18t85.5 -49.5t42.5 -68.5t13 -82q0 -72 -42 -127t-112 -75l210 -280h-147l-191 257h-148v-257zM342 586h-151v-215h157q69 0 108 29.5t39 81.5q0 50 -34.5 77t-118.5 27zM492 849l-220 -104l-43 76l210 128z" />
    <glyph glyph-name="racute" unicode="&#x155;" horiz-adv-x="363" 
d="M53 0v520h114v-35q10 20 37.5 33t56.5 13q67 0 103 -46l-65 -83q-15 23 -52 23q-28 0 -49.5 -19t-30.5 -54v-352h-114zM322 755l-127 -157l-77 54l118 167z" />
    <glyph glyph-name="Rcommaaccent" unicode="&#x156;" horiz-adv-x="683" 
d="M191 0h-121v700h275q79 0 135 -18t85.5 -49.5t42.5 -68.5t13 -82q0 -72 -42 -127t-112 -75l210 -280h-147l-191 257h-148v-257zM342 586h-151v-215h157q69 0 108 29.5t39 81.5q0 50 -34.5 77t-118.5 27zM267 -100l94 62q45 -36 45 -87q0 -52 -28 -91.5t-64 -61.5l-53 41
q35 35 35 78q0 28 -29 59z" />
    <glyph glyph-name="rcommaaccent" unicode="&#x157;" horiz-adv-x="363" 
d="M53 0v520h114v-35q10 20 37.5 33t56.5 13q67 0 103 -46l-65 -83q-15 23 -52 23q-28 0 -49.5 -19t-30.5 -54v-352h-114zM71 -100l95 62q45 -38 45 -87q0 -52 -28 -91.5t-64 -61.5l-53 41q35 35 35 78q0 27 -30 59z" />
    <glyph glyph-name="Rcaron" unicode="&#x158;" horiz-adv-x="683" 
d="M191 0h-121v700h275q79 0 135 -18t85.5 -49.5t42.5 -68.5t13 -82q0 -72 -42 -127t-112 -75l210 -280h-147l-191 257h-148v-257zM342 586h-151v-215h157q69 0 108 29.5t39 81.5q0 50 -34.5 77t-118.5 27zM312 750l-183 111l46 68l139 -79l138 79l41 -67l-177 -112h-4z" />
    <glyph glyph-name="rcaron" unicode="&#x159;" horiz-adv-x="363" 
d="M53 0v520h114v-35q10 20 37.5 33t56.5 13q67 0 103 -46l-65 -83q-15 23 -52 23q-28 0 -49.5 -19t-30.5 -54v-352h-114zM190 609l-157 131l57 69l102 -87l106 85l52 -68l-156 -130h-4z" />
    <glyph glyph-name="Sacute" unicode="&#x15a;" horiz-adv-x="631" 
d="M476 190q0 32 -24 54t-62 34.5t-84 23t-92 25t-84 35.5t-62 58.5t-24 89.5q0 83 77.5 140.5t196.5 57.5q173 0 271 -100l-66 -86q-88 73 -208 73q-62 0 -104 -20.5t-42 -61.5q0 -33 32 -54.5t80 -32t104 -27t104 -36t80 -62t32 -102.5q0 -91 -78 -149t-191 -58
q-92 0 -177 36.5t-131 91.5l72 85q95 -100 247 -100q63 0 98 22.5t35 62.5zM513 849l-220 -104l-43 76l210 128z" />
    <glyph glyph-name="sacute" unicode="&#x15b;" horiz-adv-x="496" 
d="M356 148q0 21 -32.5 36t-78.5 27.5t-92.5 29.5t-79 52t-32.5 84q0 72 57 113.5t157 41.5q67 0 125 -27t85 -65l-78 -74q-52 60 -151 60q-77 0 -77 -47q0 -16 23.5 -29t58.5 -21.5t75.5 -23t75.5 -31.5t58.5 -49.5t23.5 -75.5q0 -78 -61 -118t-153 -40q-84 0 -148 35
t-93 90l90 62q22 -35 67 -58t95 -23q36 0 60.5 12.5t24.5 38.5zM389 755l-127 -157l-77 54l118 167z" />
    <glyph glyph-name="Scircumflex" unicode="&#x15c;" horiz-adv-x="631" 
d="M476 190q0 32 -24 54t-62 34.5t-84 23t-92 25t-84 35.5t-62 58.5t-24 89.5q0 83 77.5 140.5t196.5 57.5q173 0 271 -100l-66 -86q-88 73 -208 73q-62 0 -104 -20.5t-42 -61.5q0 -33 32 -54.5t80 -32t104 -27t104 -36t80 -62t32 -102.5q0 -91 -78 -149t-191 -58
q-92 0 -177 36.5t-131 91.5l72 85q95 -100 247 -100q63 0 98 22.5t35 62.5zM320 929l184 -111l-47 -69l-139 73l-138 -73l-40 67l176 113h4z" />
    <glyph glyph-name="scircumflex" unicode="&#x15d;" horiz-adv-x="496" 
d="M356 148q0 21 -32.5 36t-78.5 27.5t-92.5 29.5t-79 52t-32.5 84q0 72 57 113.5t157 41.5q67 0 125 -27t85 -65l-78 -74q-52 60 -151 60q-77 0 -77 -47q0 -16 23.5 -29t58.5 -21.5t75.5 -23t75.5 -31.5t58.5 -49.5t23.5 -75.5q0 -78 -61 -118t-153 -40q-84 0 -148 35
t-93 90l90 62q22 -35 67 -58t95 -23q36 0 60.5 12.5t24.5 38.5zM257 790l157 -131l-57 -70l-102 88l-106 -85l-52 68l156 130h4z" />
    <glyph glyph-name="Scedilla" unicode="&#x15e;" horiz-adv-x="611" 
d="M177 -163l41 56q32 -25 79 -25q39 0 39 21q0 23 -50 23h-12v83q-79 10 -147 48t-100 88l75 87q40 -51 100.5 -82t130.5 -31q54 0 88.5 23t34.5 62q0 40 -42.5 64t-103 39t-121 35t-103 65.5t-42.5 116.5q0 83 73 140.5t191 57.5q180 0 264 -111l-80 -78q-72 76 -187 76
q-53 0 -94.5 -20.5t-41.5 -61.5q0 -33 30.5 -55.5t76.5 -34t99 -28.5t99 -37t76.5 -61t30.5 -98q0 -88 -69 -145t-175 -62v-24q109 -6 109 -85q0 -41 -31.5 -65.5t-97.5 -24.5q-90 0 -140 44z" />
    <glyph glyph-name="scedilla" unicode="&#x15f;" horiz-adv-x="496" 
d="M130 -166l35 59q32 -25 78 -25q40 0 40 21q0 23 -50 23h-13v81q-70 8 -123 41.5t-78 81.5l90 62q22 -35 67 -58t95 -23q36 0 60.5 12.5t24.5 38.5q0 21 -32.5 36t-78.5 27.5t-92.5 29.5t-79 52t-32.5 84q0 72 57 113.5t157 41.5q67 0 125 -27t85 -65l-78 -74
q-52 60 -151 60q-77 0 -77 -47q0 -16 23.5 -29t58.5 -21.5t75.5 -23t75.5 -31.5t58.5 -49.5t23.5 -75.5q0 -73 -53.5 -112.5t-137.5 -44.5v-24q50 -3 76.5 -25.5t26.5 -59.5q0 -40 -35 -65t-102 -25t-119 41z" />
    <glyph glyph-name="Scaron" unicode="&#x160;" horiz-adv-x="631" 
d="M476 190q0 32 -24 54t-62 34.5t-84 23t-92 25t-84 35.5t-62 58.5t-24 89.5q0 83 77.5 140.5t196.5 57.5q173 0 271 -100l-66 -86q-88 73 -208 73q-62 0 -104 -20.5t-42 -61.5q0 -33 32 -54.5t80 -32t104 -27t104 -36t80 -62t32 -102.5q0 -91 -78 -149t-191 -58
q-92 0 -177 36.5t-131 91.5l72 85q95 -100 247 -100q63 0 98 22.5t35 62.5zM316 750l-183 111l46 68l139 -79l138 79l41 -67l-177 -112h-4z" />
    <glyph glyph-name="scaron" unicode="&#x161;" horiz-adv-x="496" 
d="M356 148q0 21 -32.5 36t-78.5 27.5t-92.5 29.5t-79 52t-32.5 84q0 72 57 113.5t157 41.5q67 0 125 -27t85 -65l-78 -74q-52 60 -151 60q-77 0 -77 -47q0 -16 23.5 -29t58.5 -21.5t75.5 -23t75.5 -31.5t58.5 -49.5t23.5 -75.5q0 -78 -61 -118t-153 -40q-84 0 -148 35
t-93 90l90 62q22 -35 67 -58t95 -23q36 0 60.5 12.5t24.5 38.5zM247 609l-157 131l57 69l102 -87l106 85l52 -68l-156 -130h-4z" />
    <glyph glyph-name="Tcedilla" unicode="&#x162;" horiz-adv-x="593" 
d="M1 586v114h591v-114h-235v-586h-29v-32q107 -6 107 -85q0 -41 -31.5 -65.5t-97.5 -24.5q-90 0 -140 44l41 56q32 -25 79 -25q39 0 39 21q0 23 -50 23h-11v88h-28v586h-235z" />
    <glyph glyph-name="tcedilla" unicode="&#x163;" horiz-adv-x="413" 
d="M125 -166l35 59q32 -25 78 -25q40 0 40 21q0 23 -50 23h-13v86q-58 12 -90 58.5t-32 124.5v233h-90v106h90v107h114v-107h168v-106h-168v-201q0 -62 15.5 -87.5t51.5 -25.5q40 0 74 44l68 -64q-19 -34 -56 -57.5t-82 -27.5v-27q50 -3 76.5 -25.5t26.5 -59.5
q0 -40 -35 -65t-102 -25t-119 41z" />
    <glyph glyph-name="Tcaron" unicode="&#x164;" horiz-adv-x="593" 
d="M1 586v114h591v-114h-235v-586h-121v586h-235zM298 750l-183 111l46 68l139 -79l138 79l41 -67l-177 -112h-4z" />
    <glyph glyph-name="tcaron" unicode="&#x165;" horiz-adv-x="413" 
d="M3 414v106h91v107h112v-414q0 -62 16 -87.5t52 -25.5q40 0 74 44l68 -64q-22 -38 -64.5 -62t-94.5 -24q-76 0 -119.5 48t-43.5 139v233h-91zM280 711h119q13 -23 13 -67q0 -52 -32 -96.5t-76 -71.5l-49 44q24 21 36 51t12 55q0 55 -23 85z" />
    <glyph glyph-name="Umacron" unicode="&#x16a;" horiz-adv-x="726" 
d="M662 700v-402q0 -79 -24.5 -139.5t-67 -95.5t-92.5 -52.5t-107 -17.5q-131 0 -219.5 81.5t-88.5 229.5v396h121v-381q0 -96 52 -154.5t135 -58.5q84 0 127 57t43 152v385h121zM209 780v95h307v-95h-307z" />
    <glyph glyph-name="umacron" unicode="&#x16b;" horiz-adv-x="578" 
d="M525 523v-523h-114v55q-57 -64 -145 -64q-109 0 -162.5 57t-53.5 176v299h114v-288q0 -138 113 -138q89 0 134 90v336h114zM149 625v95h281v-95h-281z" />
    <glyph glyph-name="Ubreve" unicode="&#x16c;" horiz-adv-x="726" 
d="M662 700v-402q0 -79 -24.5 -139.5t-67 -95.5t-92.5 -52.5t-107 -17.5q-131 0 -219.5 81.5t-88.5 229.5v396h121v-381q0 -96 52 -154.5t135 -58.5q84 0 127 57t43 152v385h121zM173 865l52 59q56 -61 143 -61t140 61l45 -58q-27 -44 -77.5 -74.5t-107.5 -30.5
q-65 0 -116.5 31t-78.5 73z" />
    <glyph glyph-name="ubreve" unicode="&#x16d;" horiz-adv-x="578" 
d="M525 523v-523h-114v55q-57 -64 -145 -64q-109 0 -162.5 57t-53.5 176v299h114v-288q0 -138 113 -138q89 0 134 90v336h114zM127 717l51 58q48 -55 112 -55q70 0 115 53l40 -55q-63 -95 -159 -95q-57 0 -98 30.5t-61 63.5z" />
    <glyph glyph-name="Uring" unicode="&#x16e;" horiz-adv-x="726" 
d="M662 700v-402q0 -79 -24.5 -139.5t-67 -95.5t-92.5 -52.5t-107 -17.5q-131 0 -219.5 81.5t-88.5 229.5v396h121v-381q0 -96 52 -154.5t135 -58.5q84 0 127 57t43 152v385h121zM224 838q0 53 39 81t98 28q62 0 102 -27.5t40 -81.5q0 -52 -40 -81.5t-102 -29.5
q-60 0 -98.5 29t-38.5 82zM311 838q0 -21 14 -33t38 -12t38.5 12t14.5 33q0 42 -53 42q-52 0 -52 -42z" />
    <glyph glyph-name="uring" unicode="&#x16f;" horiz-adv-x="578" 
d="M525 523v-523h-114v55q-57 -64 -145 -64q-109 0 -162.5 57t-53.5 176v299h114v-288q0 -138 113 -138q89 0 134 90v336h114zM167 701q0 49 35 83t87 34q53 0 88.5 -34t35.5 -83q0 -48 -35.5 -81.5t-88.5 -33.5q-52 0 -87 33.5t-35 81.5zM244 702q0 -20 12.5 -33t33.5 -13
t33.5 12.5t12.5 33.5q0 22 -12.5 34t-33.5 12t-33.5 -12.5t-12.5 -33.5z" />
    <glyph glyph-name="Uhungarumlaut" unicode="&#x170;" horiz-adv-x="726" 
d="M662 700v-402q0 -79 -24.5 -139.5t-67 -95.5t-92.5 -52.5t-107 -17.5q-131 0 -219.5 81.5t-88.5 229.5v396h121v-381q0 -96 52 -154.5t135 -58.5q84 0 127 57t43 152v385h121zM626 845l-187 -106l-47 53l157 129zM423 864l-163 -125l-48 49l117 133z" />
    <glyph glyph-name="uhungarumlaut" unicode="&#x171;" horiz-adv-x="578" 
d="M525 523v-523h-114v55q-57 -64 -145 -64q-109 0 -162.5 57t-53.5 176v299h114v-288q0 -138 113 -138q89 0 134 90v336h114zM506 755l-138 -157l-61 45l124 170zM342 766l-127 -168l-62 46l114 175z" />
    <glyph glyph-name="Uogonek" unicode="&#x172;" horiz-adv-x="726" 
d="M662 700v-402q0 -131 -63.5 -205.5t-162.5 -93.5q-31 -26 -31 -59q0 -47 44 -47q25 0 46 10l31 -73q-32 -30 -101 -30q-56 -1 -94.5 22.5t-38.5 70.5q0 56 70 100q-128 3 -213.5 84t-85.5 227v396h121v-381q0 -96 52 -154.5t135 -58.5q84 0 127 57t43 152v385h121z" />
    <glyph glyph-name="uogonek" unicode="&#x173;" horiz-adv-x="578" 
d="M503 -96l34 -73q-33 -31 -101 -31q-55 0 -92.5 24.5t-37.5 71.5q0 39 29 67t76 43v49q-57 -64 -145 -64q-109 0 -162.5 57t-53.5 176v299h114v-288q0 -138 113 -138q89 0 134 90v336h114v-523h-11q-35 -2 -63 -22.5t-28 -45.5q0 -17 10.5 -27t26.5 -10q24 0 43 9z" />
    <glyph glyph-name="Ydieresis" unicode="&#x178;" horiz-adv-x="671" 
d="M678 700l-283 -397v-303h-121v303l-281 397h150l193 -279l197 279h145zM146 828q0 27 20 44.5t50 17.5q25 0 45.5 -18t20.5 -44q0 -27 -20 -44.5t-46 -17.5q-31 0 -50.5 17t-19.5 45zM389 828q0 27 20.5 44.5t48.5 17.5q26 0 46 -17.5t20 -44.5t-20 -44.5t-46 -17.5
q-29 0 -49 17t-20 45z" />
    <glyph glyph-name="Zacute" unicode="&#x179;" horiz-adv-x="633" 
d="M29 586v114h574v-81l-418 -505h428v-114h-601v81l416 505h-399zM495 849l-220 -104l-43 76l210 128z" />
    <glyph glyph-name="zacute" unicode="&#x17a;" horiz-adv-x="504" 
d="M36 414v106h448v-73l-292 -341h287v-106h-459v74l292 340h-276zM389 755l-127 -157l-77 54l118 167z" />
    <glyph glyph-name="Zdotaccent" unicode="&#x17b;" horiz-adv-x="633" 
d="M29 586v114h574v-81l-418 -505h428v-114h-601v81l416 505h-399zM250 827q0 26 19 43t48 17q28 0 47 -17.5t19 -42.5q0 -27 -19 -44.5t-47 -17.5q-30 0 -48.5 17.5t-18.5 44.5z" />
    <glyph glyph-name="zdotaccent" unicode="&#x17c;" horiz-adv-x="504" 
d="M36 414v106h448v-73l-292 -341h287v-106h-459v74l292 340h-276zM185 671q0 25 19 42t48 17q28 0 47 -17t19 -42q0 -27 -19 -45t-47 -18q-30 0 -48.5 17.5t-18.5 45.5z" />
    <glyph glyph-name="Zcaron" unicode="&#x17d;" horiz-adv-x="633" 
d="M29 586v114h574v-81l-418 -505h428v-114h-601v81l416 505h-399zM317 750l-183 111l46 68l139 -79l138 79l41 -67l-177 -112h-4z" />
    <glyph glyph-name="zcaron" unicode="&#x17e;" horiz-adv-x="504" 
d="M36 414v106h448v-73l-292 -341h287v-106h-459v74l292 340h-276zM251 609l-157 131l57 69l102 -87l106 85l52 -68l-156 -130h-4z" />
    <glyph glyph-name="uni018F" unicode="&#x18f;" horiz-adv-x="761" 
d="M27 312q0 54 16 102h558q-14 84 -76 132.5t-158 48.5q-57 0 -116.5 -25t-97.5 -74l-81 78q49 66 130 100t171 34q164 0 259 -96t95 -259q0 -160 -96 -260.5t-262 -100.5q-85 0 -153 29.5t-107.5 77.5t-60.5 102.5t-21 110.5zM602 301h-454q8 -88 65.5 -142t159.5 -54
q95 0 158.5 54t70.5 142z" />
    <glyph glyph-name="florin" unicode="&#x192;" horiz-adv-x="555" 
d="M335 481l-5 -24h144v-105h-162l-61 -342q-9 -48 -20 -82t-31 -67.5t-53.5 -51t-79.5 -17.5q-75 0 -121 48l38 88q31 -30 73 -30q60 0 76 89l66 365h-134v105h153l7 42q33 210 204 210q80 0 127 -40l-41 -90q-35 24 -78 24q-44 0 -66 -27.5t-36 -94.5z" />
    <glyph glyph-name="uni01DD" unicode="&#x1dd;" horiz-adv-x="569" 
d="M120 357l-70 69q82 106 234 106q110 0 183 -74.5t73 -195.5q0 -119 -70.5 -195t-196.5 -76q-106 0 -175 66.5t-69 173.5q0 36 6 73h386q-7 58 -48 90t-92 32q-110 0 -161 -69zM278 94q57 0 94.5 30t47.5 81h-273q6 -52 40.5 -81.5t90.5 -29.5z" />
    <glyph glyph-name="Scommaaccent" unicode="&#x218;" horiz-adv-x="631" 
d="M476 190q0 32 -24 54t-62 34.5t-84 23t-92 25t-84 35.5t-62 58.5t-24 89.5q0 83 77.5 140.5t196.5 57.5q173 0 271 -100l-66 -86q-88 73 -208 73q-62 0 -104 -20.5t-42 -61.5q0 -33 32 -54.5t80 -32t104 -27t104 -36t80 -62t32 -102.5q0 -91 -78 -149t-191 -58
q-92 0 -177 36.5t-131 91.5l72 85q95 -100 247 -100q63 0 98 22.5t35 62.5zM249 -100l94 62q45 -36 45 -87q0 -52 -28 -91.5t-64 -61.5l-53 41q35 35 35 78q0 28 -29 59z" />
    <glyph glyph-name="scommaaccent" unicode="&#x219;" horiz-adv-x="496" 
d="M356 148q0 21 -32.5 36t-78.5 27.5t-92.5 29.5t-79 52t-32.5 84q0 72 57 113.5t157 41.5q67 0 125 -27t85 -65l-78 -74q-52 60 -151 60q-77 0 -77 -47q0 -16 23.5 -29t58.5 -21.5t75.5 -23t75.5 -31.5t58.5 -49.5t23.5 -75.5q0 -78 -61 -118t-153 -40q-84 0 -148 35
t-93 90l90 62q22 -35 67 -58t95 -23q36 0 60.5 12.5t24.5 38.5zM181 -100l95 62q45 -38 45 -87q0 -52 -28 -91.5t-64 -61.5l-53 41q35 35 35 78q0 27 -30 59z" />
    <glyph glyph-name="Tcommaaccent" unicode="&#x21a;" horiz-adv-x="593" 
d="M1 586v114h591v-114h-235v-586h-121v586h-235zM230 -100l94 62q45 -36 45 -87q0 -52 -28 -91.5t-64 -61.5l-53 41q35 35 35 78q0 28 -29 59z" />
    <glyph glyph-name="tcommaaccent" unicode="&#x21b;" horiz-adv-x="413" 
d="M3 414v106h90v107h114v-107h168v-106h-168v-201q0 -62 15.5 -87.5t51.5 -25.5q40 0 74 44l68 -64q-22 -38 -64.5 -62t-94.5 -24q-76 0 -120 48t-44 139v233h-90zM163 -100l95 62q45 -38 45 -87q0 -52 -28 -91.5t-64 -61.5l-53 41q35 35 35 78q0 27 -30 59z" />
    <glyph glyph-name="uni0237" unicode="&#x237;" horiz-adv-x="254" 
d="M186 520v-521q0 -100 -43 -154t-129 -54q-123 0 -166 100l97 43q23 -37 60 -37q67 0 67 105v518h114z" />
    <glyph glyph-name="uni0259" unicode="&#x259;" horiz-adv-x="569" 
d="M120 357l-70 69q82 106 234 106q110 0 183 -74.5t73 -195.5q0 -119 -70.5 -195t-196.5 -76q-106 0 -175 66.5t-69 173.5q0 36 6 73h386q-7 58 -48 90t-92 32q-110 0 -161 -69zM278 94q57 0 94.5 30t47.5 81h-273q6 -52 40.5 -81.5t90.5 -29.5z" />
    <glyph glyph-name="afii57929" unicode="&#x2bc;" horiz-adv-x="198" 
d="M58 677l95 60q45 -38 45 -100q0 -51 -31.5 -94t-76.5 -71l-49 45q47 39 47 87q0 37 -30 73z" />
    <glyph glyph-name="circumflex" unicode="&#x2c6;" horiz-adv-x="461" 
d="M304 790l157 -131l-57 -70l-102 88l-106 -85l-52 68l156 130h4z" />
    <glyph glyph-name="caron" unicode="&#x2c7;" horiz-adv-x="458" 
d="M298 609l-157 131l57 69l102 -87l106 85l52 -68l-156 -130h-4z" />
    <glyph glyph-name="breve" unicode="&#x2d8;" horiz-adv-x="462" 
d="M144 717l51 58q48 -55 112 -55q70 0 115 53l40 -55q-63 -95 -159 -95q-57 0 -98 30.5t-61 63.5z" />
    <glyph glyph-name="dotaccent" unicode="&#x2d9;" horiz-adv-x="250" 
d="M60 671q0 25 19 42t48 17q28 0 47 -17t19 -42q0 -27 -19 -45t-47 -18q-30 0 -48.5 17.5t-18.5 45.5z" />
    <glyph glyph-name="ring" unicode="&#x2da;" horiz-adv-x="430" 
d="M184 701q0 49 35 83t87 34q53 0 88.5 -34t35.5 -83q0 -48 -35.5 -81.5t-88.5 -33.5q-52 0 -87 33.5t-35 81.5zM261 702q0 -20 12.5 -33t33.5 -13t33.5 12.5t12.5 33.5q0 22 -12.5 34t-33.5 12t-33.5 -12.5t-12.5 -33.5z" />
    <glyph glyph-name="ogonek" unicode="&#x2db;" horiz-adv-x="384" 
d="M350 -96l34 -73q-33 -31 -101 -31q-55 0 -92.5 24.5t-37.5 71.5q0 41 35 71.5t83 43.5t98 12v-23q-38 0 -68.5 -21t-30.5 -47q0 -17 10.5 -27t26.5 -10q24 0 43 9z" />
    <glyph glyph-name="tilde" unicode="&#x2dc;" horiz-adv-x="466" 
d="M167 612l-49 53q56 71 122 71q24 0 62 -22t58 -22q34 0 66 30l40 -58q-54 -66 -116 -66q-25 0 -62 21.5t-57 21.5q-30 0 -64 -29z" />
    <glyph glyph-name="hungarumlaut" unicode="&#x2dd;" horiz-adv-x="537" 
d="M537 755l-138 -157l-61 45l124 170zM373 766l-127 -168l-62 46l114 175z" />
    <glyph glyph-name="gravecomb" unicode="&#x300;" horiz-adv-x="0" 
d="M-275 598l-137 154l89 67l115 -167z" />
    <glyph glyph-name="acutecomb" unicode="&#x301;" horiz-adv-x="0" 
d="M-168 755l-127 -157l-77 54l118 167z" />
    <glyph glyph-name="uni0394" unicode="&#x394;" horiz-adv-x="726" 
d="M18 0l303 707h78l309 -707h-690zM360 509l-173 -406h350z" />
    <glyph glyph-name="uni0394" unicode="&#x2206;" horiz-adv-x="726" 
d="M18 0l303 707h78l309 -707h-690zM360 509l-173 -406h350z" />
    <glyph glyph-name="uni03A9" unicode="&#x3a9;" horiz-adv-x="821" 
d="M59 0v117h124q-43 17 -82 90t-39 169q0 150 98.5 242t250.5 92q153 0 250.5 -91.5t97.5 -242.5q0 -100 -40.5 -167.5t-88.5 -91.5h132v-117h-312v117q76 23 130 91.5t54 157.5q0 91 -62.5 159t-160.5 68q-103 0 -163.5 -65.5t-60.5 -163.5q0 -89 54.5 -159t128.5 -88
v-117h-311z" />
    <glyph glyph-name="uni03A9" unicode="&#x2126;" horiz-adv-x="821" 
d="M59 0v117h124q-43 17 -82 90t-39 169q0 150 98.5 242t250.5 92q153 0 250.5 -91.5t97.5 -242.5q0 -100 -40.5 -167.5t-88.5 -91.5h132v-117h-312v117q76 23 130 91.5t54 157.5q0 91 -62.5 159t-160.5 68q-103 0 -163.5 -65.5t-60.5 -163.5q0 -89 54.5 -159t128.5 -88
v-117h-311z" />
    <glyph glyph-name="pi" unicode="&#x3c0;" horiz-adv-x="667" 
d="M42 414v106h583v-106h-94v-257q0 -33 10 -47t31 -14q25 0 56 22l26 -86q-52 -42 -120 -42q-116 0 -116 151v273h-162v-63q0 -145 -23.5 -223.5t-70 -107.5t-130.5 -29l-9 109q24 0 40 4.5t32 18.5t25.5 38.5t15 67t6.5 103.5l1 82h-101z" />
    <glyph glyph-name="afii10023" unicode="&#x401;" horiz-adv-x="645" 
d="M70 0v700h520v-114h-399v-176h373v-110h-373v-186h409v-114h-530zM136 828q0 27 20 44.5t50 17.5q25 0 45.5 -18t20.5 -44q0 -27 -20 -44.5t-46 -17.5q-31 0 -50.5 17t-19.5 45zM379 828q0 27 20.5 44.5t48.5 17.5q26 0 46 -17.5t20 -44.5t-20 -44.5t-46 -17.5
q-29 0 -49 17t-20 45z" />
    <glyph glyph-name="afii10051" unicode="&#x402;" horiz-adv-x="754" 
d="M598 203q0 62 -31 95.5t-86 34.5q-40 0 -74 -18t-53 -48v-267h-121v587h-232v113h587v-113h-234v-190q53 49 150 49q93 0 154.5 -55t61.5 -171q0 -115 -55.5 -172t-136.5 -57q-83 0 -123 58l68 80q23 -25 53 -25q34 0 53 25.5t19 73.5z" />
    <glyph glyph-name="afii10052" unicode="&#x403;" horiz-adv-x="580" 
d="M70 0v700h510v-114h-389v-586h-121zM502 849l-220 -104l-43 76l210 128z" />
    <glyph glyph-name="afii10053" unicode="&#x404;" horiz-adv-x="687" 
d="M483 413v-113h-326q12 -96 79 -145.5t162 -49.5q60 0 106.5 27.5t74.5 71.5l93 -50q-33 -78 -111.5 -120t-154.5 -42q-168 0 -270.5 98t-102.5 260q0 157 100.5 257.5t265.5 100.5q73 0 148 -31.5t112 -93.5l-89 -66q-57 78 -179 78q-88 0 -151 -48.5t-81 -133.5h324z
" />
    <glyph glyph-name="afii10054" unicode="&#x405;" horiz-adv-x="631" 
d="M476 190q0 32 -24 54t-62 34.5t-84 23t-92 25t-84 35.5t-62 58.5t-24 89.5q0 83 77.5 140.5t196.5 57.5q173 0 271 -100l-66 -86q-88 73 -208 73q-62 0 -104 -20.5t-42 -61.5q0 -33 32 -54.5t80 -32t104 -27t104 -36t80 -62t32 -102.5q0 -91 -78 -149t-191 -58
q-92 0 -177 36.5t-131 91.5l72 85q95 -100 247 -100q63 0 98 22.5t35 62.5z" />
    <glyph glyph-name="afii10055" unicode="&#x406;" horiz-adv-x="261" 
d="M70 0v700h121v-700h-121z" />
    <glyph glyph-name="afii10056" unicode="&#x407;" horiz-adv-x="275" 
d="M-12 805q0 25 18.5 41.5t45.5 16.5q25 0 45 -17t20 -41q0 -25 -19.5 -42t-45.5 -17q-27 0 -45.5 16.5t-18.5 42.5zM158 805q0 25 19.5 41.5t46.5 16.5q26 0 44.5 -17t18.5 -41q0 -26 -18.5 -42.5t-44.5 -16.5q-28 0 -47 16.5t-19 42.5zM77 0v700h121v-700h-121z" />
    <glyph glyph-name="afii10057" unicode="&#x408;" horiz-adv-x="486" 
d="M419 700v-483q0 -108 -57 -166.5t-153 -58.5q-81 0 -134.5 37t-81.5 93l90 68q50 -85 116 -85q52 1 75.5 30.5t23.5 104.5v460h121z" />
    <glyph glyph-name="afii10058" unicode="&#x409;" horiz-adv-x="1046" 
d="M510 586h-250v-94q0 -114 -12 -202t-32.5 -143t-49 -90t-59 -48.5t-65.5 -12.5q-3 0 -42 3v117q26 -3 45 3t38 31t31.5 71t20 128t7.5 196v155h489v-250h118q274 0 274 -219q0 -113 -76.5 -172t-209.5 -59h-227v586zM747 336h-116v-222h110q78 0 117 27.5t39 89.5
q0 105 -150 105z" />
    <glyph glyph-name="afii10059" unicode="&#x40a;" horiz-adv-x="1047" 
d="M637 432h118q269 0 269 -211q0 -112 -73 -166.5t-207 -54.5h-228v318h-325v-318h-121v700h121v-268h325v268h121v-268zM754 318h-117v-204h111q77 0 113.5 24t36.5 81q0 53 -35 76t-109 23z" />
    <glyph glyph-name="afii10060" unicode="&#x40b;" horiz-adv-x="735" 
d="M1 586v114h587v-114h-234v-185q63 45 135 45q100 0 156.5 -57t56.5 -177v-212h-121v195q0 62 -26.5 100t-84.5 38q-32 0 -64 -16t-52 -43v-274h-121v586h-232z" />
    <glyph glyph-name="afii10061" unicode="&#x40c;" horiz-adv-x="680" 
d="M70 0v700h121v-307l314 307h158l-318 -314l341 -386h-161l-271 305l-63 -61v-244h-121zM497 849l-220 -104l-43 76l210 128z" />
    <glyph glyph-name="afii10062" unicode="&#x40e;" horiz-adv-x="707" 
d="M196 14l47 101q12 -5 23 -5q33 0 67 70l-333 520h149l246 -393l185 393h127l-259 -538q-40 -84 -81.5 -124.5t-103.5 -40.5q-36 0 -67 17zM160 908h114q22 -59 86 -59q73 0 86 59h114q-5 -68 -61 -113t-135 -45q-87 0 -139 43t-65 115z" />
    <glyph glyph-name="afii10145" unicode="&#x40f;" horiz-adv-x="733" 
d="M70 0v700h121v-587h351v587h121v-700h-238v-144h-117v144h-238z" />
    <glyph glyph-name="afii10017" unicode="&#x410;" horiz-adv-x="704" 
d="M-1 0l307 700h92l307 -700h-127l-68 155h-319l-67 -155h-125zM350 525l-115 -266h230z" />
    <glyph glyph-name="afii10018" unicode="&#x411;" horiz-adv-x="662" 
d="M582 700v-114h-391v-159h193q123 0 185.5 -54t62.5 -154q0 -219 -284 -219h-278v700h512zM360 313h-169v-199h163q153 0 153 104q0 49 -35 72t-112 23z" />
    <glyph glyph-name="afii10019" unicode="&#x412;" horiz-adv-x="675" 
d="M70 0v700h297q132 0 188 -46.5t56 -129.5q0 -105 -84 -156q108 -34 108 -164q0 -104 -73 -154t-201 -50h-291zM361 302h-170v-188h162q82 0 119 23t37 74q0 47 -34.5 69t-113.5 22zM351 586h-160v-174h173q58 0 90 22.5t32 62.5q0 46 -30 67.5t-105 21.5z" />
    <glyph glyph-name="afii10020" unicode="&#x413;" horiz-adv-x="580" 
d="M70 0v700h510v-114h-389v-586h-121z" />
    <glyph glyph-name="afii10021" unicode="&#x414;" horiz-adv-x="743" 
d="M0 -123v236h75q39 58 58.5 163t19.5 322v102h495v-587h85v-236h-117v123h-499v-123h-117zM268 587v-44q0 -305 -67 -430h326v474h-259z" />
    <glyph glyph-name="afii10022" unicode="&#x415;" horiz-adv-x="645" 
d="M70 0v700h520v-114h-399v-176h373v-110h-373v-186h409v-114h-530z" />
    <glyph glyph-name="afii10024" unicode="&#x416;" horiz-adv-x="948" 
d="M288 381l-286 319h148l263 -291v291h121v-292l262 292h150l-289 -318l291 -382h-145l-239 315l-30 -31v-284h-121v284l-33 32l-241 -316h-139z" />
    <glyph glyph-name="afii10025" unicode="&#x417;" horiz-adv-x="650" 
d="M332 -10q-229 0 -325 149l94 66q79 -102 228 -102q73 0 117.5 31t44.5 77q0 42 -43 65.5t-120 23.5h-117v114h111q64 0 104.5 25t40.5 65q0 48 -44 70.5t-112 22.5q-116 0 -189 -90l-94 65q100 138 300 138q113 0 187 -53.5t74 -145.5q0 -45 -26 -82.5t-71 -60.5
q60 -20 90.5 -62.5t30.5 -93.5q0 -102 -80 -162t-201 -60z" />
    <glyph glyph-name="afii10026" unicode="&#x418;" horiz-adv-x="747" 
d="M171 0h-101v700h121v-485l384 485h102v-700h-121v485z" />
    <glyph glyph-name="afii10027" unicode="&#x419;" horiz-adv-x="747" 
d="M171 0h-101v700h121v-485l384 485h102v-700h-121v485zM174 908h114q22 -59 86 -59q73 0 86 59h114q-5 -68 -61 -113t-135 -45q-87 0 -139 43t-65 115z" />
    <glyph glyph-name="afii10028" unicode="&#x41a;" horiz-adv-x="680" 
d="M70 0v700h121v-307l314 307h158l-318 -314l341 -386h-161l-271 305l-63 -61v-244h-121z" />
    <glyph glyph-name="afii10029" unicode="&#x41b;" horiz-adv-x="718" 
d="M527 0v587h-267v-95q0 -114 -12 -202t-32.5 -143t-49 -90t-59 -48.5t-65.5 -12.5q-3 0 -42 3v117q26 -3 45 3t38 31t31.5 71t20 128t7.5 196v155h506v-700h-121z" />
    <glyph glyph-name="afii10030" unicode="&#x41c;" horiz-adv-x="844" 
d="M70 0v700h107l250 -325l241 325h106v-700h-121v485l-213 -278h-31l-218 279v-486h-121z" />
    <glyph glyph-name="afii10031" unicode="&#x41d;" horiz-adv-x="749" 
d="M558 0v297h-367v-297h-121v700h121v-289h367v289h121v-700h-121z" />
    <glyph glyph-name="afii10032" unicode="&#x41e;" horiz-adv-x="782" 
d="M33 350q0 151 103.5 254.5t254.5 103.5t254.5 -102t103.5 -256q0 -153 -104 -255.5t-254 -102.5t-254 102t-104 256zM159 350q0 -106 68 -174t164 -68q99 0 165.5 67.5t66.5 174.5q0 106 -68.5 174t-163.5 68q-96 0 -164 -67.5t-68 -174.5z" />
    <glyph glyph-name="afii10033" unicode="&#x41f;" horiz-adv-x="746" 
d="M555 0v586h-364v-586h-121v700h606v-700h-121z" />
    <glyph glyph-name="afii10034" unicode="&#x420;" horiz-adv-x="678" 
d="M191 0h-121v700h283q85 0 144.5 -19.5t90 -54.5t43.5 -72.5t13 -83.5q0 -45 -15.5 -84.5t-48 -73t-91 -53t-137.5 -19.5h-161v-240zM357 587h-166v-234h159q168 0 168 118q0 116 -161 116z" />
    <glyph glyph-name="afii10035" unicode="&#x421;" horiz-adv-x="692" 
d="M606 200l71 -78q-43 -61 -118.5 -95.5t-165.5 -34.5q-165 0 -262.5 97.5t-97.5 260.5q0 153 99 255.5t259 102.5q92 0 165 -33.5t110 -87.5l-80 -76q-73 81 -189 81q-108 0 -173 -66t-65 -176q0 -109 67.5 -175.5t175.5 -66.5q127 0 204 92z" />
    <glyph glyph-name="afii10036" unicode="&#x422;" horiz-adv-x="593" 
d="M1 586v114h591v-114h-235v-586h-121v586h-235z" />
    <glyph glyph-name="afii10037" unicode="&#x423;" horiz-adv-x="707" 
d="M196 14l47 101q12 -5 23 -5q33 0 67 70l-333 520h149l246 -393l185 393h127l-259 -538q-40 -84 -81.5 -124.5t-103.5 -40.5q-36 0 -67 17z" />
    <glyph glyph-name="afii10038" unicode="&#x424;" horiz-adv-x="877" 
d="M379 -15v83h-4q-156 0 -252 80t-96 212q0 138 98 215t254 77v63h120v-63q149 0 250.5 -76t101.5 -216q0 -132 -96 -212t-251 -80h-5v-83h-120zM501 539h-2v-358h5q100 0 160.5 46.5t60.5 132.5t-57 132.5t-167 46.5zM153 360q0 -79 58.5 -129t163.5 -50h4v358
q-102 0 -164 -45t-62 -134z" />
    <glyph glyph-name="afii10039" unicode="&#x425;" horiz-adv-x="682" 
d="M667 700l-253 -345l262 -355h-148l-187 257l-187 -257h-147l262 355l-251 345h145l179 -245l179 245h146z" />
    <glyph glyph-name="afii10040" unicode="&#x426;" horiz-adv-x="747" 
d="M70 0v700h121v-586h340v586h121v-586h85v-237h-117v123h-550z" />
    <glyph glyph-name="afii10041" unicode="&#x427;" horiz-adv-x="696" 
d="M627 700v-700h-121v281q-31 -18 -86 -31t-107 -13q-122 0 -196 57.5t-74 177.5v228h121v-159q0 -103 40 -147t128 -44q99 0 174 49v301h121z" />
    <glyph glyph-name="afii10042" unicode="&#x428;" horiz-adv-x="925" 
d="M70 0v700h121v-586h211v586h121v-586h211v586h121v-700h-785z" />
    <glyph glyph-name="afii10043" unicode="&#x429;" horiz-adv-x="950" 
d="M70 0v700h121v-586h211v586h121v-586h211v586h121v-586h85v-237h-117v123h-753z" />
    <glyph glyph-name="afii10044" unicode="&#x42a;" horiz-adv-x="749" 
d="M0 587v113h282v-247h156q288 0 288 -222q0 -116 -77 -173.5t-220 -57.5h-268v587h-161zM436 340h-154v-226h151q84 0 125.5 27t41.5 90q0 109 -164 109z" />
    <glyph glyph-name="afii10045" unicode="&#x42b;" horiz-adv-x="865" 
d="M675 0v700h121v-700h-121zM318 340h-127v-226h125q84 0 125.5 27t41.5 90q0 109 -165 109zM191 700v-247h130q142 0 215 -59t73 -163q0 -113 -77.5 -172t-219.5 -59h-242v700h121z" />
    <glyph glyph-name="afii10046" unicode="&#x42c;" horiz-adv-x="661" 
d="M348 340h-157v-226h154q167 0 167 117q0 109 -164 109zM191 700v-247h159q143 0 215.5 -57t72.5 -165q0 -113 -77.5 -172t-218.5 -59h-272v700h121z" />
    <glyph glyph-name="afii10047" unicode="&#x42d;" horiz-adv-x="701" 
d="M204 301v113h337q-14 84 -75.5 132.5t-158.5 48.5q-57 0 -116 -25t-98 -74l-80 78q49 66 130 100t170 34q164 0 259.5 -96t95.5 -259q0 -160 -97 -260.5t-266 -100.5q-86 0 -165.5 33t-132.5 108l82 69q35 -48 95.5 -72.5t125.5 -24.5q97 0 159.5 53.5t73.5 142.5h-339z
" />
    <glyph glyph-name="afii10048" unicode="&#x42e;" horiz-adv-x="997" 
d="M70 0v700h121v-291h89q19 130 112.5 214.5t227.5 84.5q154 0 249 -100.5t95 -257.5q0 -155 -98 -256.5t-246 -101.5q-140 0 -232.5 84.5t-108.5 227.5h-88v-304h-121zM400 350q0 -108 62.5 -176.5t157.5 -68.5q99 0 158.5 67.5t59.5 177.5q0 109 -60.5 177t-157.5 68
q-95 0 -157.5 -68t-62.5 -177z" />
    <glyph glyph-name="afii10049" unicode="&#x42f;" horiz-adv-x="691" 
d="M500 0v246h-155l-197 -246h-145l217 267q-80 20 -124 73.5t-44 131.5q0 100 73 164t211 64h285v-700h-121zM315 359h185v228h-173q-149 0 -149 -115q0 -47 37 -78.5t100 -34.5z" />
    <glyph glyph-name="afii10065" unicode="&#x430;" horiz-adv-x="534" 
d="M109 371l-56 84q37 36 95.5 56.5t122.5 20.5q102 0 157.5 -56t55.5 -158v-318h-114v57q-57 -63 -161 -63q-86 0 -137.5 44.5t-51.5 119.5q0 83 66.5 124t176.5 41q65 0 107 -14q1 59 -25 88t-87 29q-77 0 -149 -55zM234 93q89 0 136 71v50q-42 14 -95 14q-137 0 -137 -69
q0 -31 26 -48.5t70 -17.5z" />
    <glyph glyph-name="afii10066" unicode="&#x431;" horiz-adv-x="604" 
d="M508 743l19 -103q-44 -18 -145.5 -25t-139.5 -24q-89 -42 -97 -174q56 80 190 80q105 0 172.5 -63.5t67.5 -177.5q0 -116 -73 -191t-191 -75q-128 0 -203.5 81.5t-75.5 230.5q0 154 36 247t133 142q52 26 160.5 33t146.5 19zM150 283v-11q0 -75 45 -125.5t115 -50.5
q69 0 108 42.5t39 110.5q0 65 -37.5 103.5t-106.5 38.5q-60 0 -102 -30.5t-61 -77.5z" />
    <glyph glyph-name="afii10067" unicode="&#x432;" horiz-adv-x="536" 
d="M53 0v520h222q111 0 165 -32t54 -106q0 -63 -58 -106q73 -28 73 -121q0 -76 -55 -115.5t-155 -39.5h-246zM291 215h-124v-112h121q103 0 103 55q0 30 -24 43.5t-76 13.5zM272 417h-105v-103h134q75 0 75 53q0 30 -25 40t-79 10z" />
    <glyph glyph-name="afii10068" unicode="&#x433;" horiz-adv-x="449" 
d="M53 0v520h392v-106h-278v-414h-114z" />
    <glyph glyph-name="afii10069" unicode="&#x434;" horiz-adv-x="599" 
d="M5 -119v225h60q59 103 59 324v90h398v-414h73v-225h-106v119h-378v-119h-106zM232 414v-43q0 -165 -49 -265h225v308h-176z" />
    <glyph glyph-name="afii10070" unicode="&#x435;" horiz-adv-x="569" 
d="M449 166l70 -69q-79 -106 -211 -106q-126 0 -202.5 73.5t-76.5 196.5q0 119 70.5 195t196.5 76q106 0 175 -65.5t69 -172.5q0 -26 -6 -73h-386q7 -60 51 -92t111 -32q88 0 139 69zM291 429q-57 0 -94 -29t-48 -80h273q-7 53 -41 81t-90 28z" />
    <glyph glyph-name="afii10072" unicode="&#x436;" horiz-adv-x="761" 
d="M213 283l-214 237h142l182 -203v203h114v-204l186 204h138l-216 -236l221 -284h-139l-168 220l-22 -23v-197h-114v196l-24 25l-166 -221h-136z" />
    <glyph glyph-name="afii10073" unicode="&#x437;" horiz-adv-x="510" 
d="M248 -12q-166 0 -240 126l86 60q48 -83 155 -83q52 0 84 19.5t32 52.5q0 52 -83 52h-115v99h109q32 0 51.5 15t19.5 40q0 31 -28.5 47t-70.5 16q-53 0 -86.5 -18t-60.5 -52l-81 54q29 50 88 84.5t146 34.5q100 0 155.5 -41t55.5 -109q0 -64 -51 -104q69 -40 69 -117
q0 -81 -66 -128.5t-169 -47.5z" />
    <glyph glyph-name="afii10074" unicode="&#x438;" horiz-adv-x="596" 
d="M152 0h-99v520h114v-339l276 339h99v-520h-114v338z" />
    <glyph glyph-name="afii10075" unicode="&#x439;" horiz-adv-x="596" 
d="M152 0h-99v520h114v-339l276 339h99v-520h-114v338zM132 741h105q1 -31 19.5 -49.5t52.5 -18.5q33 0 50.5 18.5t17.5 49.5h104q-1 -73 -50.5 -114.5t-121.5 -41.5q-77 0 -126.5 40.5t-50.5 115.5z" />
    <glyph glyph-name="afii10076" unicode="&#x43a;" horiz-adv-x="545" 
d="M53 0v520h114v-211l225 211h149l-253 -235l262 -285h-146l-199 214l-38 -37v-177h-114z" />
    <glyph glyph-name="afii10077" unicode="&#x43b;" horiz-adv-x="580" 
d="M413 0v414h-184v-81q0 -101 -15.5 -170.5t-46 -106t-68.5 -50.5t-89 -10l-9 106q18 -2 33 2.5t31 21t27 45.5t18 80t7 121v148h410v-520h-114z" />
    <glyph glyph-name="afii10078" unicode="&#x43c;" horiz-adv-x="667" 
d="M53 0v520h102l182 -236l182 236h94v-520h-114v323l-161 -209l-171 212v-326h-114z" />
    <glyph glyph-name="afii10079" unicode="&#x43d;" horiz-adv-x="585" 
d="M417 0v211h-250v-211h-114v520h114v-204h250v204h114v-520h-114z" />
    <glyph glyph-name="afii10080" unicode="&#x43e;" horiz-adv-x="615" 
d="M29 261q0 118 77.5 194.5t200.5 76.5t201 -76.5t78 -194.5q0 -117 -78 -193.5t-201 -76.5q-121 0 -199.5 76.5t-78.5 193.5zM147 261q0 -71 44.5 -117.5t115.5 -46.5q72 0 116.5 45t44.5 119t-46 119.5t-115 45.5q-70 0 -115 -45t-45 -120z" />
    <glyph glyph-name="afii10081" unicode="&#x43f;" horiz-adv-x="579" 
d="M411 0v414h-244v-414h-114v520h472v-520h-114z" />
    <glyph glyph-name="afii10082" unicode="&#x440;" horiz-adv-x="592" 
d="M53 -200v720h114v-47q23 29 62.5 44t81.5 15q116 0 184 -73t68 -190q0 -121 -72 -199.5t-188 -78.5q-101 0 -136 43v-234h-114zM299 426q-47 0 -81 -24t-51 -61v-180q38 -64 123 -64q70 0 112.5 45t42.5 118q0 78 -39 122t-107 44z" />
    <glyph glyph-name="afii10083" unicode="&#x441;" horiz-adv-x="538" 
d="M451 171l81 -52q-31 -61 -92 -94.5t-131 -33.5q-126 0 -203 74t-77 196q0 117 76 194t198 77q78 0 137.5 -32.5t85.5 -85.5l-85 -56q-51 68 -133 68q-71 0 -116 -46t-45 -119q0 -71 47.5 -117.5t125.5 -46.5q82 0 131 74z" />
    <glyph glyph-name="afii10084" unicode="&#x442;" horiz-adv-x="496" 
d="M3 414v106h490v-106h-188v-414h-114v414h-188z" />
    <glyph glyph-name="afii10085" unicode="&#x443;" horiz-adv-x="548" 
d="M75 -194l45 97q10 -6 23 -6q47 0 82 87l18 47l-256 489h132l179 -351l138 351h122l-204 -505q-52 -127 -97.5 -175.5t-109.5 -48.5q-42 0 -72 15z" />
    <glyph glyph-name="afii10086" unicode="&#x444;" horiz-adv-x="734" 
d="M310 -200v190h-6q-130 0 -204.5 75t-74.5 194q0 112 75 191t203 79h7v201h114v-201h8q125 0 201 -76t76 -194q0 -119 -74.5 -194t-204.5 -75h-6v-190h-114zM143 259q0 -77 41.5 -120t119.5 -43h6v327h-7q-80 0 -120 -44.5t-40 -119.5zM430 423h-6v-327h6q161 0 161 163
q0 75 -40.5 119.5t-120.5 44.5z" />
    <glyph glyph-name="afii10087" unicode="&#x445;" horiz-adv-x="555" 
d="M548 520l-199 -251l209 -269h-141l-141 185l-144 -185h-135l208 267l-198 253h140l132 -167l132 167h137z" />
    <glyph glyph-name="afii10088" unicode="&#x446;" horiz-adv-x="598" 
d="M53 0v520h114v-414h241v414h114v-414h70v-225h-106v119h-433z" />
    <glyph glyph-name="afii10089" unicode="&#x447;" horiz-adv-x="546" 
d="M493 520v-520h-114v204q-53 -48 -140 -48q-209 0 -209 207v157h114v-118q0 -76 28 -108t92 -32q34 0 65.5 16.5t49.5 40.5v201h114z" />
    <glyph glyph-name="afii10090" unicode="&#x448;" horiz-adv-x="748" 
d="M53 0v520h114v-414h150v414h114v-414h150v414h114v-520h-642z" />
    <glyph glyph-name="afii10091" unicode="&#x449;" horiz-adv-x="771" 
d="M53 0v520h114v-414h150v414h114v-414h150v414h114v-414h69v-225h-106v119h-605z" />
    <glyph glyph-name="afii10092" unicode="&#x44a;" horiz-adv-x="593" 
d="M3 414v106h241v-149h110q117 0 168 -51.5t51 -133.5q0 -81 -54 -133.5t-172 -52.5h-217v414h-127zM344 265h-100v-159h100q60 0 85.5 19.5t25.5 59.5q0 80 -111 80z" />
    <glyph glyph-name="afii10093" unicode="&#x44b;" horiz-adv-x="696" 
d="M53 0v520h114v-151h90q117 0 168.5 -50.5t51.5 -132.5q0 -80 -55 -133t-173 -53h-196zM248 263h-81v-157h80q60 0 86 19.5t26 59.5q0 39 -26 58.5t-85 19.5zM529 0v520h114v-520h-114z" />
    <glyph glyph-name="afii10094" unicode="&#x44c;" horiz-adv-x="517" 
d="M53 0v520h114v-151h110q117 0 168.5 -50.5t51.5 -132.5q0 -80 -54.5 -133t-172.5 -53h-217zM267 263h-100v-157h99q60 0 86.5 19.5t26.5 59.5q0 78 -112 78z" />
    <glyph glyph-name="afii10095" unicode="&#x44d;" horiz-adv-x="547" 
d="M155 216v99h243q-24 111 -157 111q-101 0 -153 -76l-83 61q88 121 245 121q123 0 196 -73.5t73 -197.5q0 -118 -73.5 -194t-200.5 -76q-78 0 -143 28t-97 87l83 60q50 -69 147 -69q69 0 112 32t53 87h-245z" />
    <glyph glyph-name="afii10096" unicode="&#x44e;" horiz-adv-x="815" 
d="M53 0v520h114v-202h90q18 97 87.5 155.5t172.5 58.5q119 0 194 -76.5t75 -194.5q0 -117 -75.5 -193.5t-193.5 -76.5q-107 0 -177 61.5t-85 162.5h-88v-215h-114zM370 261q0 -74 41.5 -119t106.5 -45q67 0 108.5 45t41.5 119q0 75 -41.5 120t-108.5 45q-63 0 -105.5 -45.5
t-42.5 -119.5z" />
    <glyph glyph-name="afii10097" unicode="&#x44f;" horiz-adv-x="539" 
d="M272 520h214v-520h-114v171h-97l-132 -171h-133l150 190q-55 13 -87 55.5t-32 102.5q0 76 55.5 124t175.5 48zM159 344q0 -30 26 -48.5t74 -18.5h113v137h-110q-103 0 -103 -70z" />
    <glyph glyph-name="afii10071" unicode="&#x451;" horiz-adv-x="569" 
d="M449 166l70 -69q-79 -106 -211 -106q-126 0 -202.5 73.5t-76.5 196.5q0 119 70.5 195t196.5 76q106 0 175 -65.5t69 -172.5q0 -26 -6 -73h-386q7 -60 51 -92t111 -32q88 0 139 69zM291 429q-57 0 -94 -29t-48 -80h273q-7 53 -41 81t-90 28zM122 672q0 25 19 41.5t44 16.5
q24 0 44 -16.5t20 -41.5q0 -27 -19.5 -44t-44.5 -17q-26 0 -44.5 17t-18.5 44zM339 672q0 25 19.5 41.5t46.5 16.5q25 0 44.5 -16.5t19.5 -41.5q0 -28 -18.5 -44.5t-45.5 -16.5t-46.5 16.5t-19.5 44.5z" />
    <glyph glyph-name="afii10099" unicode="&#x452;" horiz-adv-x="649" 
d="M0 520v103h128v107h114v-107h210v-103h-210v-156q59 57 150 57q107 0 165.5 -61t58.5 -182q0 -260 -227 -385l-66 79q97 58 136.5 127.5t39.5 164.5q0 151 -128 151q-38 0 -75 -24.5t-54 -60.5v-230h-114v520h-128z" />
    <glyph glyph-name="afii10100" unicode="&#x453;" horiz-adv-x="449" 
d="M53 0v520h392v-106h-278v-414h-114zM398 755l-127 -157l-77 54l118 167z" />
    <glyph glyph-name="afii10101" unicode="&#x454;" horiz-adv-x="541" 
d="M371 315v-99h-224q23 -119 163 -119q86 0 132 65l85 -48q-32 -62 -93 -92.5t-133 -30.5q-120 0 -196 75.5t-76 194.5q0 124 77 197.5t203 73.5q68 0 125.5 -26t91.5 -80l-86 -59q-46 59 -132 59q-60 0 -102.5 -28t-56.5 -83h222z" />
    <glyph glyph-name="afii10102" unicode="&#x455;" horiz-adv-x="496" 
d="M356 148q0 21 -32.5 36t-78.5 27.5t-92.5 29.5t-79 52t-32.5 84q0 72 57 113.5t157 41.5q67 0 125 -27t85 -65l-78 -74q-52 60 -151 60q-77 0 -77 -47q0 -16 23.5 -29t58.5 -21.5t75.5 -23t75.5 -31.5t58.5 -49.5t23.5 -75.5q0 -78 -61 -118t-153 -40q-84 0 -148 35
t-93 90l90 62q22 -35 67 -58t95 -23q36 0 60.5 12.5t24.5 38.5z" />
    <glyph glyph-name="afii10103" unicode="&#x456;" horiz-adv-x="239" 
d="M63 0v520h114v-520h-114zM53 669q0 26 19.5 43t47.5 17t47 -17.5t19 -42.5q0 -27 -19 -44.5t-47 -17.5q-30 0 -48.5 17.5t-18.5 44.5z" />
    <glyph glyph-name="afii10104" unicode="&#x457;" horiz-adv-x="247" 
d="M66 0v520h114v-520h-114zM-17 669q0 25 17.5 43t44.5 18q21 0 39.5 -18t18.5 -43q0 -27 -18.5 -45t-39.5 -18q-27 0 -44.5 18t-17.5 45zM144 669q0 26 18 43.5t43 17.5q24 0 42 -17.5t18 -43.5q0 -27 -18 -45t-42 -18q-25 0 -43 18t-18 45z" />
    <glyph glyph-name="afii10105" unicode="&#x458;" horiz-adv-x="239" 
d="M178 520v-521q0 -100 -43 -154t-129 -54q-123 0 -166 100l97 43q23 -37 60 -37q67 0 67 105v518h114zM54 670q0 26 18.5 43t48.5 17q28 0 46.5 -17t18.5 -43q0 -28 -18 -45.5t-47 -17.5q-30 0 -48.5 17.5t-18.5 45.5z" />
    <glyph glyph-name="afii10106" unicode="&#x459;" horiz-adv-x="831" 
d="M411 414h-182v-81q0 -101 -15.5 -170.5t-46 -106t-68.5 -50.5t-89 -10l-9 106q18 -2 33 2.5t31 21t27 45.5t18 80t7 121v148h408v-157h63q219 0 219 -181q0 -79 -54 -130.5t-171 -51.5h-171v414zM580 256h-55v-150h62q57 0 79.5 19t22.5 56q0 39 -25 57t-84 18z" />
    <glyph glyph-name="afii10107" unicode="&#x45a;" horiz-adv-x="835" 
d="M53 0v520h114v-184h249v184h114v-184h62q120 0 170 -43.5t50 -122.5q0 -170 -227 -170h-169v230h-249v-230h-114zM584 231h-54v-125h53q61 0 86 15t25 48q0 34 -25 48t-85 14z" />
    <glyph glyph-name="afii10108" unicode="&#x45b;" horiz-adv-x="647" 
d="M0 520v103h128v107h114v-107h210v-103h-210v-163q55 58 154 58q214 0 214 -238v-177h-114v169q0 70 -28.5 105t-96.5 35q-40 0 -76 -22.5t-53 -61.5v-225h-114v520h-128z" />
    <glyph glyph-name="afii10109" unicode="&#x45c;" horiz-adv-x="545" 
d="M53 0v520h114v-211l225 211h149l-253 -235l262 -285h-146l-199 214l-38 -37v-177h-114zM409 755l-127 -157l-77 54l118 167z" />
    <glyph glyph-name="afii10110" unicode="&#x45e;" horiz-adv-x="548" 
d="M75 -193l45 97q10 -6 23 -6q47 0 82 87l18 47l-256 489h132l179 -351l138 351h122l-204 -505q-52 -127 -97.5 -175.5t-109.5 -48.5q-42 0 -72 15zM108 741h105q1 -31 19.5 -49.5t52.5 -18.5q33 0 50.5 18.5t17.5 49.5h104q-1 -73 -50.5 -114.5t-121.5 -41.5
q-77 0 -126.5 40.5t-50.5 115.5z" />
    <glyph glyph-name="afii10193" unicode="&#x45f;" horiz-adv-x="597" 
d="M62 0v520h114v-414h247v414h114v-520h-185v-138h-106v138h-184z" />
    <glyph glyph-name="afii10146" unicode="&#x462;" horiz-adv-x="717" 
d="M0 502v113h126v85h121v-85h227v-113h-227v-75h159q146 0 217 -51.5t71 -158.5q0 -217 -296 -217h-272v502h-126zM404 313h-157v-199h154q86 0 126.5 23t40.5 80q0 53 -40 74.5t-124 21.5z" />
    <glyph glyph-name="afii10194" unicode="&#x463;" horiz-adv-x="582" 
d="M402 419h-170v-76h110q117 0 168.5 -47.5t51.5 -123.5t-54.5 -124t-172.5 -48h-217v419h-115v101h115v210h114v-210h170v-101zM332 236h-100v-130h100q61 0 86.5 15.5t25.5 49.5q0 35 -25.5 50t-86.5 15z" />
    <glyph glyph-name="afii10147" unicode="&#x472;" horiz-adv-x="782" 
d="M33 350q0 151 103.5 254.5t254.5 103.5t254.5 -102t103.5 -256q0 -153 -104 -255.5t-254 -102.5t-254 102t-104 256zM391 108q85 0 147.5 51t79.5 136h-454q18 -84 81.5 -135.5t145.5 -51.5zM391 592q-81 0 -144 -50t-82 -133h451q-18 82 -81.5 132.5t-143.5 50.5z" />
    <glyph glyph-name="afii10195" unicode="&#x473;" horiz-adv-x="615" 
d="M29 261q0 118 77.5 194.5t200.5 76.5t201 -76.5t78 -194.5q0 -117 -78 -193.5t-201 -76.5q-121 0 -199.5 76.5t-78.5 193.5zM307 97q59 0 100.5 31t54.5 85h-309q14 -53 55 -84.5t99 -31.5zM307 426q-56 0 -97.5 -30t-55.5 -82h307q-15 52 -57 82t-97 30z" />
    <glyph glyph-name="afii10148" unicode="&#x474;" horiz-adv-x="769" 
d="M645 514l-233 -514h-86l-333 700h131l246 -525l172 392q62 141 168 141q45 0 86 -29l-47 -98q-11 10 -30 10q-40 -2 -74 -77z" />
    <glyph glyph-name="afii10196" unicode="&#x475;" horiz-adv-x="568" 
d="M454 331l-147 -331h-84l-242 520h129l157 -347l103 237q50 118 140 116q56 -2 91 -37l-50 -86q-11 11 -28 11q-32 0 -69 -83z" />
    <glyph glyph-name="afii10050" unicode="&#x490;" horiz-adv-x="582" 
d="M70 0v700h396v121h114v-234h-389v-587h-121z" />
    <glyph glyph-name="afii10098" unicode="&#x491;" horiz-adv-x="445" 
d="M53 0v520h286v100h106v-206h-278v-414h-114z" />
    <glyph glyph-name="uni1E9E" unicode="&#x1e9e;" horiz-adv-x="656" 
d="M345 708q99 0 160 -43.5t82 -108.5l-136 -160q90 -11 129.5 -63t38.5 -126q0 -99 -64.5 -158t-173.5 -59q-68 0 -122 27l37 107q40 -20 81 -20q52 0 86 26t34 75q0 98 -136 98h-44v91l133 153q-44 48 -113 48q-149 0 -149 -166v-429h-121v448q0 138 75.5 199t202.5 61z
" />
    <glyph glyph-name="uni2010" unicode="&#x2010;" horiz-adv-x="416" 
d="M69 227v101h278v-101h-278z" />
    <glyph glyph-name="uni2011" unicode="&#x2011;" horiz-adv-x="416" 
d="M69 227v101h278v-101h-278z" />
    <glyph glyph-name="figuredash" unicode="&#x2012;" horiz-adv-x="607" 
d="M85 311v99h437v-99h-437z" />
    <glyph glyph-name="endash" unicode="&#x2013;" horiz-adv-x="607" 
d="M85 227v99h437v-99h-437z" />
    <glyph glyph-name="emdash" unicode="&#x2014;" horiz-adv-x="796" 
d="M85 227v99h626v-99h-626z" />
    <glyph glyph-name="quoteleft" unicode="&#x2018;" horiz-adv-x="247" 
d="M189 530l-96 -59q-47 53 -47 99q0 100 111 165l49 -44q-46 -38 -46 -92q0 -34 29 -69z" />
    <glyph glyph-name="quoteright" unicode="&#x2019;" horiz-adv-x="247" 
d="M58 677l95 60q47 -53 47 -100q0 -99 -110 -165l-49 45q45 37 45 92q0 34 -28 68z" />
    <glyph glyph-name="quotesinglbase" unicode="&#x201a;" horiz-adv-x="247" 
d="M58 71l95 60q47 -53 47 -100q0 -99 -110 -165l-49 45q45 36 45 92q0 34 -28 68z" />
    <glyph glyph-name="quotedblleft" unicode="&#x201c;" horiz-adv-x="424" 
d="M189 530l-96 -59q-47 53 -47 99q0 100 111 165l49 -44q-46 -38 -46 -92q0 -34 29 -69zM365 530l-95 -59q-47 53 -47 99q0 100 111 165l49 -44q-46 -38 -46 -92q0 -32 28 -69z" />
    <glyph glyph-name="quotedblright" unicode="&#x201d;" horiz-adv-x="424" 
d="M235 677l95 60q47 -53 47 -100q0 -99 -110 -165l-50 45q46 38 46 92q0 31 -28 68zM58 677l95 60q47 -53 47 -100q0 -99 -110 -165l-49 45q45 37 45 92q0 34 -28 68z" />
    <glyph glyph-name="quotedblbase" unicode="&#x201e;" horiz-adv-x="424" 
d="M235 71l95 60q47 -53 47 -100q0 -99 -110 -165l-50 45q46 37 46 92q0 31 -28 68zM58 71l95 60q47 -53 47 -100q0 -99 -110 -165l-49 45q45 36 45 92q0 34 -28 68z" />
    <glyph glyph-name="dagger" unicode="&#x2020;" horiz-adv-x="458" 
d="M33 386v106h139v208h114v-208h139v-106h-139v-478h-114v478h-139z" />
    <glyph glyph-name="daggerdbl" unicode="&#x2021;" horiz-adv-x="458" 
d="M33 386v106h139v208h114v-208h139v-106h-139v-137h139v-106h-139v-235h-114v235h-139v106h139v137h-139z" />
    <glyph glyph-name="bullet" unicode="&#x2022;" horiz-adv-x="302" 
d="M51 361q0 34 26 57t62 23q35 0 60.5 -23.5t25.5 -56.5t-25.5 -57t-60.5 -24q-36 0 -62 24t-26 57z" />
    <glyph glyph-name="ellipsis" unicode="&#x2026;" horiz-adv-x="795" 
d="M604 62q0 24 20 43t50 19q28 0 47.5 -19.5t19.5 -42.5q0 -25 -19.5 -44.5t-47.5 -19.5q-31 0 -50.5 19t-19.5 45zM329 62q0 24 20 43t50 19q28 0 47.5 -19t19.5 -43q0 -26 -19 -45t-48 -19q-31 0 -50.5 19t-19.5 45zM54 62q0 24 20 43t50 19q28 0 48 -19.5t20 -42.5
q0 -25 -20 -44.5t-48 -19.5q-31 0 -50.5 19t-19.5 45z" />
    <glyph glyph-name="perthousand" unicode="&#x2030;" horiz-adv-x="1332" 
d="M37 525q0 78 54.5 128t137.5 50q82 0 136.5 -50t54.5 -128q0 -77 -54.5 -127t-136.5 -50t-137 50t-55 127zM150 525q0 -36 23.5 -59t55.5 -23q33 0 55.5 22.5t22.5 59.5q0 36 -23 58.5t-55 22.5q-33 0 -56 -22.5t-23 -58.5zM157 34l515 689l82 -58l-515 -688zM487 174
q0 78 54.5 127.5t137.5 49.5q82 0 136.5 -49.5t54.5 -127.5q0 -77 -54.5 -127.5t-136.5 -50.5t-137 50.5t-55 127.5zM600 174q0 -36 23.5 -58.5t55.5 -22.5t55 22.5t23 58.5t-23 59t-55 23q-33 0 -56 -23t-23 -59zM912 174q0 78 54.5 127.5t137.5 49.5t137 -49.5t54 -127.5
t-54.5 -128t-136.5 -50t-137 50.5t-55 127.5zM1025 174q0 -36 23.5 -58.5t55.5 -22.5q33 0 55.5 22.5t22.5 58.5t-23 59t-55 23q-33 0 -56 -23t-23 -59z" />
    <glyph glyph-name="guilsinglleft" unicode="&#x2039;" horiz-adv-x="342" 
d="M222 38l-185 218v6l185 212l78 -69l-127 -147l127 -148z" />
    <glyph glyph-name="guilsinglright" unicode="&#x203a;" horiz-adv-x="342" 
d="M301 256l-185 -218l-78 72l127 148l-127 147l77 69l186 -212v-6z" />
    <glyph glyph-name="fraction" unicode="&#x2044;" horiz-adv-x="332" 
d="M-150 48l549 672l83 -66l-547 -676z" />
    <glyph glyph-name="uni2070" unicode="&#x2070;" horiz-adv-x="483" 
d="M43 510q0 95 53.5 154.5t144.5 59.5t145 -60t54 -154q0 -95 -53 -154.5t-144 -59.5t-145.5 60t-54.5 154zM149 510q0 -54 26.5 -85.5t67.5 -31.5q42 0 66.5 30t24.5 87q0 117 -93 117q-44 0 -68 -30t-24 -87z" />
    <glyph glyph-name="uni2074" unicode="&#x2074;" horiz-adv-x="453" 
d="M258 300v76h-246v73l258 271h87v-253h76v-91h-76v-76h-99zM133 467h125v126z" />
    <glyph glyph-name="uni2075" unicode="&#x2075;" horiz-adv-x="416" 
d="M61 471l21 249h278v-94h-195l-9 -57q22 5 57 5q74 0 117.5 -38t43.5 -99q0 -64 -50 -103t-124 -39q-119 0 -173 81l74 60q14 -21 39.5 -34t54.5 -13q36 0 55 13t19 35q0 53 -90 53q-51 0 -118 -19z" />
    <glyph glyph-name="uni2076" unicode="&#x2076;" horiz-adv-x="469" 
d="M43 499q0 109 59.5 167.5t154.5 58.5q94 0 151 -41l-42 -75q-45 25 -111 25q-50 0 -79.5 -26.5t-29.5 -68.5q46 46 120 46q80 0 124.5 -38.5t44.5 -101.5q0 -66 -53.5 -108t-131.5 -42q-92 0 -149.5 54t-57.5 150zM159 457q2 -29 26.5 -48.5t63.5 -19.5q37 0 59 14.5
t22 41.5q0 26 -23.5 39t-60.5 13q-65 0 -87 -40z" />
    <glyph glyph-name="uni2077" unicode="&#x2077;" horiz-adv-x="386" 
d="M20 622v98h346v-75l-192 -345h-117l185 322h-222z" />
    <glyph glyph-name="uni2078" unicode="&#x2078;" horiz-adv-x="484" 
d="M232 556h20q27 0 44 10.5t17 30.5q0 37 -72 37q-70 0 -70 -37q0 -41 61 -41zM251 475h-17q-36 0 -57 -12t-21 -33q0 -44 86 -44t86 43q0 46 -77 46zM242 295q-84 0 -138 33t-54 89q0 69 68 101q-52 26 -52 89q0 53 49 85.5t127 32.5t127 -32.5t49 -85.5q0 -57 -53 -87
q69 -24 69 -100q0 -58 -54 -91.5t-138 -33.5z" />
    <glyph glyph-name="uni2079" unicode="&#x2079;" horiz-adv-x="469" 
d="M425 521q0 -109 -59.5 -167.5t-153.5 -58.5t-151 41l42 75q45 -25 110 -25q50 0 80 26.5t30 68.5q-46 -46 -120 -46q-80 0 -125 38.5t-45 101.5q0 66 54 108t132 42q92 0 149 -53.5t57 -150.5zM310 563q-2 29 -26.5 48.5t-64.5 19.5q-37 0 -58.5 -14.5t-21.5 -41.5
q0 -26 23 -39t60 -13q66 0 88 40z" />
    <glyph glyph-name="uni207A" unicode="&#x207a;" horiz-adv-x="437" 
d="M53 468v94h114v113h101v-113h115v-94h-115v-113h-101v113h-114z" />
    <glyph glyph-name="uni207B" unicode="&#x207b;" horiz-adv-x="421" 
d="M53 469v94h315v-94h-315z" />
    <glyph glyph-name="uni207C" unicode="&#x207c;" horiz-adv-x="409" 
d="M53 541v88h303v-88h-303zM53 402v88h303v-88h-303z" />
    <glyph glyph-name="uni207D" unicode="&#x207d;" horiz-adv-x="276" 
d="M263 251l-65 -59q-81 60 -118 134t-37 145q0 70 37 143t119 136l59 -62q-54 -42 -81.5 -99.5t-27.5 -117.5t31.5 -118t82.5 -102z" />
    <glyph glyph-name="uni207E" unicode="&#x207e;" horiz-adv-x="275" 
d="M77 193l-61 62q110 86 110 216q0 124 -111 218l62 61q155 -120 155 -279q0 -71 -37 -145t-118 -133z" />
    <glyph glyph-name="uni2080" unicode="&#x2080;" horiz-adv-x="483" 
d="M43 110q0 95 53.5 154.5t144.5 59.5t145 -60t54 -154q0 -95 -53 -154.5t-144 -59.5t-145.5 60t-54.5 154zM149 110q0 -54 26.5 -85.5t67.5 -31.5q42 0 66.5 30t24.5 87q0 117 -93 117q-44 0 -68 -30t-24 -87z" />
    <glyph glyph-name="uni2081" unicode="&#x2081;" horiz-adv-x="315" 
d="M10 253l162 68h77v-421h-105v305l-97 -40z" />
    <glyph glyph-name="uni2082" unicode="&#x2082;" horiz-adv-x="421" 
d="M110 168l-75 46q22 53 70 81.5t112 28.5q71 0 113 -34t42 -89q0 -101 -113 -174l-52 -33h181v-94h-345v81l88 54q136 84 136 142q0 53 -59 53q-66 0 -98 -62z" />
    <glyph glyph-name="uni2083" unicode="&#x2083;" horiz-adv-x="429" 
d="M106 179l-70 54q56 92 180 92q74 0 117.5 -28.5t43.5 -76.5q0 -65 -63 -96q73 -22 73 -99q0 -59 -50 -94.5t-127 -35.5q-132 0 -183 104l78 48q11 -26 39 -42t66 -16q71 0 71 41t-73 41h-47v81h39q71 0 71 43q0 36 -57 36q-39 0 -63.5 -12.5t-44.5 -39.5z" />
    <glyph glyph-name="uni2084" unicode="&#x2084;" horiz-adv-x="453" 
d="M258 -100v76h-246v73l258 271h87v-253h76v-91h-76v-76h-99zM133 67h125v126z" />
    <glyph glyph-name="uni2085" unicode="&#x2085;" horiz-adv-x="416" 
d="M61 71l21 249h278v-94h-195l-9 -57q22 5 57 5q74 0 117.5 -38t43.5 -99q0 -64 -50 -103t-124 -39q-119 0 -173 81l74 60q14 -21 39.5 -34t54.5 -13q36 0 55 13t19 35q0 53 -90 53q-51 0 -118 -19z" />
    <glyph glyph-name="uni2086" unicode="&#x2086;" horiz-adv-x="469" 
d="M43 99q0 109 59.5 167.5t154.5 58.5q94 0 151 -41l-42 -75q-45 25 -111 25q-50 0 -79.5 -26.5t-29.5 -68.5q46 46 120 46q80 0 124.5 -38.5t44.5 -101.5q0 -66 -53.5 -108t-131.5 -42q-92 0 -149.5 54t-57.5 150zM159 57q2 -29 26.5 -48.5t63.5 -19.5q37 0 59 14.5
t22 41.5q0 26 -23.5 39t-60.5 13q-65 0 -87 -40z" />
    <glyph glyph-name="uni2087" unicode="&#x2087;" horiz-adv-x="386" 
d="M20 222v98h346v-75l-192 -345h-117l185 322h-222z" />
    <glyph glyph-name="uni2088" unicode="&#x2088;" horiz-adv-x="484" 
d="M232 156h20q27 0 44 10.5t17 30.5q0 37 -72 37q-70 0 -70 -37q0 -41 61 -41zM251 75h-17q-36 0 -57 -12t-21 -33q0 -44 86 -44t86 43q0 46 -77 46zM242 -105q-84 0 -138 33t-54 89q0 69 68 101q-52 26 -52 89q0 53 49 85.5t127 32.5t127 -32.5t49 -85.5q0 -57 -53 -87
q69 -24 69 -100q0 -58 -54 -91.5t-138 -33.5z" />
    <glyph glyph-name="uni2089" unicode="&#x2089;" horiz-adv-x="469" 
d="M425 121q0 -109 -59.5 -167.5t-153.5 -58.5t-151 41l42 75q45 -25 110 -25q50 0 80 26.5t30 68.5q-46 -46 -120 -46q-80 0 -125 38.5t-45 101.5q0 66 54 108t132 42q92 0 149 -53.5t57 -150.5zM310 163q-2 29 -26.5 48.5t-64.5 19.5q-37 0 -58.5 -14.5t-21.5 -41.5
q0 -26 23 -39t60 -13q66 0 88 40z" />
    <glyph glyph-name="uni208A" unicode="&#x208a;" horiz-adv-x="437" 
d="M53 68v94h114v113h101v-113h115v-94h-115v-113h-101v113h-114z" />
    <glyph glyph-name="uni208B" unicode="&#x208b;" horiz-adv-x="421" 
d="M53 69v94h315v-94h-315z" />
    <glyph glyph-name="uni208C" unicode="&#x208c;" horiz-adv-x="409" 
d="M53 141v88h303v-88h-303zM53 2v88h303v-88h-303z" />
    <glyph glyph-name="uni208D" unicode="&#x208d;" horiz-adv-x="276" 
d="M263 -149l-65 -59q-81 60 -118 134t-37 145q0 70 37 143t119 136l59 -62q-54 -42 -81.5 -99.5t-27.5 -117.5t31.5 -118t82.5 -102z" />
    <glyph glyph-name="uni208E" unicode="&#x208e;" horiz-adv-x="275" 
d="M77 -207l-61 62q110 86 110 216q0 124 -111 218l62 61q155 -120 155 -279q0 -71 -37 -145t-118 -133z" />
    <glyph glyph-name="Euro" unicode="&#x20ac;" horiz-adv-x="660" 
d="M20 386l39 98h68q36 101 121 162.5t202 61.5q112 0 178 -46l-43 -91q-55 33 -135 33q-65 0 -115.5 -31.5t-77.5 -88.5h307l-37 -98h-299q-2 -26 -2 -49q0 -10 1 -17h281l-32 -98h-226q22 -58 79.5 -92.5t131.5 -34.5q73 0 122 32l30 -93q-21 -17 -66 -29.5t-89 -12.5
q-127 0 -214 59.5t-122 170.5h-100l37 98l47 1q0 1 -0.5 7.5t-0.5 10.5q0 23 2 47h-87z" />
    <glyph glyph-name="uni20B4" unicode="&#x20b4;" horiz-adv-x="610" 
d="M51 397v95h326q16 21 16 46q0 26 -22.5 42t-66.5 16q-94 0 -151 -44l-50 93q77 64 209 64q83 0 143.5 -42.5t60.5 -105.5q0 -42 -20 -69h64v-95h-128q-17 -15 -40 -28.5t-49 -26.5t-35 -19h252v-95h-329q-23 -31 -23 -53q0 -35 31.5 -53t82.5 -18q106 0 166 62l54 -80
q-28 -44 -95 -69.5t-133 -25.5q-100 0 -163 44t-63 126q0 33 19 67h-56v95h120q35 20 79 42t59 32h-258z" />
    <glyph glyph-name="uni20BD" unicode="&#x20bd;" horiz-adv-x="615" 
d="M27 295v106h103v299q81 0 111 1q16 0 43 0.5t35 0.5q137 0 200.5 -54.5t63.5 -145.5q0 -92 -66 -149.5t-198 -57.5h-72v-65h168v-106h-168v-124h-117v124h-103v106h103v65h-103zM325 595h-78v-194h70q145 0 145 98q0 50 -33.5 73t-103.5 23z" />
    <glyph glyph-name="afii61352" unicode="&#x2116;" horiz-adv-x="1142" 
d="M655 0h-93l-369 483v-483h-116v700h93l369 -486v486h116v-700zM708 484q0 79 51 128t133 49t133.5 -49t51.5 -128q0 -78 -51.5 -128t-133.5 -50q-81 0 -132.5 50t-51.5 128zM814 484q0 -36 22.5 -58.5t55.5 -22.5q36 0 58 22t22 59q0 36 -23.5 58t-56.5 22q-34 0 -56 -22
t-22 -58zM732 154v102h322v-102h-322z" />
    <glyph glyph-name="trademark" unicode="&#x2122;" horiz-adv-x="831" 
d="M369 353v347h92l115 -132l110 132h92v-347h-114v170l-89 -108h-3l-89 108v-170h-114zM11 600v100h330v-100h-95v-247h-114v247h-121z" />
    <glyph glyph-name="partialdiff" unicode="&#x2202;" horiz-adv-x="592" 
d="M25 234q0 130 73 208t188 78q52 0 94 -21.5t63 -59.5q-4 88 -72 132t-173 35l17 105q339 0 339 -323q0 -112 -31.5 -201t-97 -143.5t-156.5 -54.5q-109 0 -176.5 70t-67.5 175zM146 237q0 -69 37.5 -105t88.5 -36q62 0 104 54.5t49 138.5q-13 56 -49.5 90.5t-82.5 34.5
q-61 0 -104 -49.5t-43 -127.5z" />
    <glyph glyph-name="product" unicode="&#x220f;" horiz-adv-x="882" 
d="M658 -200v784h-434v-784h-124v900h682v-900h-124z" />
    <glyph glyph-name="summation" unicode="&#x2211;" horiz-adv-x="640" 
d="M323 250l-283 364v86h560v-116h-387l253 -334l-261 -334h395v-116h-560v86z" />
    <glyph glyph-name="minus" unicode="&#x2212;" horiz-adv-x="566" 
d="M44 309v101h478v-101h-478z" />
    <glyph glyph-name="uni2215" unicode="&#x2215;" horiz-adv-x="332" 
d="M-150 48l549 672l83 -66l-547 -676z" />
    <glyph glyph-name="radical" unicode="&#x221a;" horiz-adv-x="605" 
d="M1 367v104h178l134 -277l108 506h294v-97h-207l-140 -608h-75l-191 372h-101z" />
    <glyph glyph-name="infinity" unicode="&#x221e;" horiz-adv-x="701" 
d="M510 179q-86 0 -159 79q-60 -69 -135 -76q-72 -8 -128.5 38.5t-56.5 121.5q0 66 47.5 114.5t122.5 48.5q76 0 148 -78q62 69 141 75q76 9 128 -37t52 -127q0 -62 -42 -110.5t-118 -48.5zM502 406q-43 0 -87 -61q53 -67 92 -67q25 0 39 19t14 42q0 29 -15 48t-43 19z
M202 278q38 0 83 62q-50 66 -82 66q-28 0 -45 -18.5t-17 -45.5q0 -29 19 -46.5t42 -17.5z" />
    <glyph glyph-name="integral" unicode="&#x222b;" horiz-adv-x="343" 
d="M88 537q0 104 52 152.5t129 48.5q42 0 78 -16.5t56 -44.5l-64 -72q-22 27 -64 27q-74 0 -74 -98v-541q0 -104 -52 -152.5t-129 -48.5q-42 0 -78 16.5t-56 44.5l64 73q23 -28 64 -28q74 0 74 99v540z" />
    <glyph glyph-name="approxequal" unicode="&#x2248;" horiz-adv-x="576" 
d="M85 375l-46 76q64 70 137 70q40 0 108 -29t105 -29q53 0 104 48l44 -73q-70 -67 -142 -67q-46 0 -112 27.5t-96 27.5q-46 0 -102 -51zM85 191l-46 76q64 70 137 70q41 0 109 -29.5t104 -29.5q52 0 104 49l44 -73q-69 -68 -142 -68q-46 0 -112 28t-96 28q-46 0 -102 -51z
" />
    <glyph glyph-name="notequal" unicode="&#x2260;" horiz-adv-x="566" 
d="M51 402v99h224l81 216l101 -33l-68 -183h127v-99h-165l-32 -86h197v-99h-232l-89 -237l-100 38l76 199h-120v99h154l32 86h-186z" />
    <glyph glyph-name="lessequal" unicode="&#x2264;" horiz-adv-x="498" 
d="M42 245v116l400 -249v-119zM442 184l-400 253v47l400 249v-123l-243 -150l243 -153v-123z" />
    <glyph glyph-name="greaterequal" unicode="&#x2265;" horiz-adv-x="498" 
d="M442 361v-116l-400 -252v119zM442 437l-400 -253v123l243 153l-243 150v123l400 -249v-47z" />
    <glyph glyph-name="lozenge" unicode="&#x25ca;" horiz-adv-x="485" 
d="M194 -3l-167 255l168 268h96l167 -257l-168 -266h-96zM145 253l97 -150l98 160l-98 146z" />
    <glyph glyph-name="uniF350" unicode="&#xf350;" horiz-adv-x="605" 
d="M-2 0l261 560h88l261 -560h-123l-53 109h-261l-53 -109h-120zM301 387l-89 -179h177z" />
    <glyph glyph-name="uniF351" unicode="&#xf351;" horiz-adv-x="565" 
d="M499 560v-109h-324v-101h156q104 0 157 -44.5t53 -126.5q0 -179 -245 -179h-238v560h441zM307 241h-132v-132h127q60 0 88.5 16.5t28.5 52.5q0 33 -26 48t-86 15z" />
    <glyph glyph-name="uniF352" unicode="&#xf352;" horiz-adv-x="575" 
d="M58 0v560h259q206 0 206 -142q0 -77 -64 -122q84 -32 84 -130q0 -85 -62 -125.5t-170 -40.5h-253zM307 233h-132v-124h125q65 0 93.5 15t28.5 48q0 32 -26.5 46.5t-88.5 14.5zM299 451h-124v-112h135q44 0 68 14t24 38q0 31 -22.5 45.5t-80.5 14.5z" />
    <glyph glyph-name="uniF353" unicode="&#xf353;" horiz-adv-x="497" 
d="M58 0v560h439v-109h-322v-451h-117z" />
    <glyph glyph-name="uniF354" unicode="&#xf354;" horiz-adv-x="634" 
d="M0 -105v214h64q63 120 63 380v71h428v-451h71v-214h-114v105h-399v-105h-113zM240 451v-38q0 -206 -53 -304h251v342h-198z" />
    <glyph glyph-name="uniF355" unicode="&#xf355;" horiz-adv-x="550" 
d="M58 0v560h448v-109h-331v-114h309v-106h-309v-122h339v-109h-456z" />
    <glyph glyph-name="uniF356" unicode="&#xf356;" horiz-adv-x="814" 
d="M235 305l-236 255h147l202 -217v217h117v-218l206 218h144l-239 -254l240 -306h-140l-188 240l-23 -20v-220h-117v219l-22 23l-189 -242h-138z" />
    <glyph glyph-name="uniF357" unicode="&#xf357;" horiz-adv-x="554" 
d="M284 -8q-197 0 -281 123l92 63q64 -77 186 -77q64 0 95.5 20.5t31.5 50.5q0 59 -132 59h-96v109h91q54 0 85.5 16t31.5 44q0 59 -118 59q-101 0 -157 -64l-91 62q84 111 260 111q96 0 160 -43.5t64 -117.5q0 -75 -70 -113q90 -32 90 -121q0 -85 -65.5 -133t-176.5 -48z
" />
    <glyph glyph-name="uniF358" unicode="&#xf358;" horiz-adv-x="638" 
d="M154 0h-96v560h117v-351l307 351h98v-560h-117v352z" />
    <glyph glyph-name="uniF359" unicode="&#xf359;" horiz-adv-x="638" 
d="M154 0h-96v560h117v-351l307 351h98v-560h-117v352zM145 761h105q1 -31 19.5 -49.5t52.5 -18.5q33 0 50.5 18.5t17.5 49.5h104q-1 -73 -50.5 -114.5t-121.5 -41.5q-77 0 -126.5 40.5t-50.5 115.5z" />
    <glyph glyph-name="uniF35A" unicode="&#xf35a;" horiz-adv-x="588" 
d="M58 0v560h117v-225l249 225h153l-265 -249l282 -311h-154l-217 233l-48 -43v-190h-117z" />
    <glyph glyph-name="uniF35B" unicode="&#xf35b;" horiz-adv-x="614" 
d="M439 0v451h-193v-65q0 -389 -212 -389q-12 0 -34 2v113q21 -3 37.5 1.5t34.5 23.5t30 53t19.5 95.5t7.5 145.5v129h427v-560h-117z" />
    <glyph glyph-name="uniF35C" unicode="&#xf35c;" horiz-adv-x="720" 
d="M58 0v560h101l206 -242l198 242h100v-560h-117v363l-168 -207h-30l-173 208v-364h-117z" />
    <glyph glyph-name="uniF35D" unicode="&#xf35d;" horiz-adv-x="638" 
d="M463 0v228h-288v-228h-117v560h117v-222h288v222h117v-560h-117z" />
    <glyph glyph-name="uniF35E" unicode="&#xf35e;" horiz-adv-x="665" 
d="M27 280q0 121 88.5 203.5t217.5 82.5q128 0 216.5 -81.5t88.5 -204.5t-88.5 -204.5t-216.5 -81.5t-217 81.5t-89 204.5zM149 280q0 -78 54 -125.5t130 -47.5q78 0 130.5 47.5t52.5 125.5t-54 125.5t-129 47.5q-77 0 -130.5 -47.5t-53.5 -125.5z" />
    <glyph glyph-name="uniF35F" unicode="&#xf35f;" horiz-adv-x="636" 
d="M461 0v451h-286v-451h-117v560h520v-560h-117z" />
    <glyph glyph-name="uniF360" unicode="&#xf360;" horiz-adv-x="581" 
d="M175 0h-117v560h246q137 0 193.5 -54.5t56.5 -135.5q0 -80 -60.5 -135t-189.5 -55h-129v-180zM308 451h-133v-162h127q130 0 130 82q0 80 -124 80z" />
    <glyph glyph-name="uniF361" unicode="&#xf361;" horiz-adv-x="590" 
d="M511 179l68 -75q-38 -53 -102.5 -81.5t-143.5 -28.5q-140 0 -223 78t-83 208q0 122 85 204t221 82q80 0 143 -27.5t94 -73.5l-78 -73q-55 61 -152 61q-87 0 -139 -46.5t-52 -126.5q0 -78 54 -125.5t139 -47.5q108 0 169 72z" />
    <glyph glyph-name="uniF362" unicode="&#xf362;" horiz-adv-x="515" 
d="M4 451v109h507v-109h-195v-451h-117v451h-195z" />
    <glyph glyph-name="uniF363" unicode="&#xf363;" horiz-adv-x="609" 
d="M168 13l44 102q7 -5 18 -5q27 0 47 33l3 5l-280 412h144l196 -292l147 292h123l-218 -429q-34 -67 -70.5 -99t-88.5 -32q-40 0 -65 13z" />
    <glyph glyph-name="uniF364" unicode="&#xf364;" horiz-adv-x="757" 
d="M319 -12v65h-2q-133 0 -214 64.5t-81 170.5q0 110 83 171.5t214 63.5v49h117v-49q127 0 213 -61t86 -174q0 -106 -81.5 -170.5t-213.5 -64.5h-4v-65h-117zM437 413h-1v-250h4q80 0 127 31.5t47 93.5q0 125 -177 125zM143 288q0 -53 45.5 -89t129.5 -36h1v250
q-82 0 -129 -31t-47 -94z" />
    <glyph glyph-name="uniF365" unicode="&#xf365;" horiz-adv-x="590" 
d="M580 560l-215 -276l222 -284h-143l-149 189l-150 -189h-142l223 284l-214 276h141l143 -180l143 180h141z" />
    <glyph glyph-name="uniF366" unicode="&#xf366;" horiz-adv-x="636" 
d="M58 0v560h117v-451h265v451h117v-451h70v-214h-114v105h-455z" />
    <glyph glyph-name="uniF367" unicode="&#xf367;" horiz-adv-x="597" 
d="M540 560v-560h-118v214q-66 -32 -154 -32q-105 0 -169 46.5t-64 144.5v187h118v-115q0 -84 31 -118.5t101 -34.5q79 0 137 35v233h118z" />
    <glyph glyph-name="uniF368" unicode="&#xf368;" horiz-adv-x="789" 
d="M58 0v560h117v-451h161v451h117v-451h161v451h117v-560h-673z" />
    <glyph glyph-name="uniF369" unicode="&#xf369;" horiz-adv-x="810" 
d="M58 0v560h117v-451h161v451h117v-451h161v451h117v-451h71v-214h-114v105h-630z" />
    <glyph glyph-name="uniF36A" unicode="&#xf36a;" horiz-adv-x="637" 
d="M0 451v109h251v-189h121q247 0 247 -183q0 -95 -66 -141.5t-189 -46.5h-230v451h-134zM370 261h-119v-152h117q66 0 97.5 17.5t31.5 61.5q0 73 -127 73z" />
    <glyph glyph-name="uniF36B" unicode="&#xf36b;" horiz-adv-x="742" 
d="M568 0v560h117v-560h-117zM272 261h-97v-152h95q67 0 98.5 17.5t31.5 61.5q0 73 -128 73zM175 560v-189h99q121 0 184.5 -49t63.5 -134q0 -92 -67 -140t-188 -48h-209v560h117z" />
    <glyph glyph-name="uniF36C" unicode="&#xf36c;" horiz-adv-x="564" 
d="M297 261h-122v-152h120q129 0 129 79q0 73 -127 73zM175 560v-189h124q247 0 247 -183q0 -92 -66.5 -140t-187.5 -48h-234v560h117z" />
    <glyph glyph-name="uniF36D" unicode="&#xf36d;" horiz-adv-x="598" 
d="M174 231v109h275q-13 55 -61.5 86t-123.5 31q-48 0 -96.5 -17.5t-80.5 -55.5l-78 75q42 53 112 80t148 27q139 0 220.5 -76.5t81.5 -207.5q0 -128 -82.5 -208t-226.5 -80q-175 0 -259 117l78 67q57 -75 185 -75q76 0 125.5 35t58.5 93h-276z" />
    <glyph glyph-name="uniF36E" unicode="&#xf36e;" horiz-adv-x="861" 
d="M58 0v560h117v-225h74q17 102 97 166.5t193 64.5q133 0 214 -80t81 -206q0 -124 -84 -205t-211 -81q-119 0 -198 64t-93 177h-73v-235h-117zM364 280q0 -79 50 -128t125 -49q79 0 126 48t47 129t-47.5 129t-125.5 48q-76 0 -125.5 -48.5t-49.5 -128.5z" />
    <glyph glyph-name="uniF36F" unicode="&#xf36f;" horiz-adv-x="591" 
d="M417 0v188h-117l-160 -188h-139l180 209q-138 40 -138 163q0 83 63.5 135.5t181.5 52.5h246v-560h-117zM273 297h144v154h-136q-117 0 -117 -78q0 -32 30 -53.5t79 -22.5z" />
    <glyph glyph-name="uniF371" unicode="&#xf371;" horiz-adv-x="550" 
d="M107 656q0 25 19 41.5t47 16.5q24 0 43.5 -17t19.5 -41q0 -26 -19.5 -42.5t-43.5 -16.5q-29 0 -47.5 16t-18.5 43zM316 656q0 24 19 41t46 17q24 0 43 -16.5t19 -41.5q0 -26 -19 -42.5t-43 -16.5q-27 0 -46 16.5t-19 42.5zM58 0v560h448v-109h-331v-114h309v-106h-309
v-122h339v-109h-456z" />
    <glyph glyph-name="uniF372" unicode="&#xf372;" horiz-adv-x="497" 
d="M58 0v560h439v-109h-322v-451h-117zM417 769l-127 -158l-76 54l118 168z" />
    <glyph glyph-name="uniF373" unicode="&#xf373;" horiz-adv-x="894" 
d="M638 257h-92v-148h88q61 0 91 18t30 61q0 37 -28.5 53t-88.5 16zM546 560v-194h94q236 0 236 -178q0 -92 -66 -140t-180 -48h-201v451h-183v-65q0 -389 -212 -389q-12 0 -34 2v113q21 -3 37.5 1.5t34.5 23.5t30 53t19.5 95.5t7.5 145.5v129h417z" />
    <glyph glyph-name="uniF374" unicode="&#xf374;" horiz-adv-x="890" 
d="M547 353h94q231 0 231 -173q0 -91 -62.5 -135.5t-177.5 -44.5h-202v243h-255v-243h-117v560h117v-207h255v207h117v-207zM639 243h-92v-134h88q62 0 89 14.5t27 56.5q0 36 -26 49.5t-86 13.5z" />
    <glyph glyph-name="uniF375" unicode="&#xf375;" horiz-adv-x="588" 
d="M58 0v560h117v-225l249 225h153l-265 -249l282 -311h-154l-217 233l-48 -43v-190h-117zM411 769l-127 -158l-76 54l118 168z" />
    <glyph glyph-name="uniF376" unicode="&#xf376;" horiz-adv-x="627" 
d="M0 451v109h504v-109h-195v-116q50 29 106 29q184 0 184 -191v-173h-117v158q0 41 -20 68.5t-64 27.5q-56 0 -89 -38v-216h-117v451h-192z" />
    <glyph glyph-name="uniF377" unicode="&#xf377;" horiz-adv-x="628" 
d="M58 0v560h117v-451h279v451h117v-560h-200v-111h-114v111h-199z" />
    <glyph glyph-name="uniF378" unicode="&#xf378;" horiz-adv-x="415" 
d="M361 560v-383q0 -88 -49 -135.5t-132 -47.5q-133 0 -187 106l86 66q43 -64 91 -63q40 0 57 21t17 76v360h117z" />
    <glyph glyph-name="uniF379" unicode="&#xf379;" horiz-adv-x="498" 
d="M58 0v560h329v93h110v-202h-322v-451h-117z" />
    <glyph glyph-name="uniF37A" unicode="&#xf37a;" horiz-adv-x="586" 
d="M412 340v-109h-266q12 -65 64 -96.5t125 -31.5q94 0 150 78l90 -47q-27 -67 -95.5 -103.5t-134.5 -36.5q-143 0 -230.5 78t-87.5 208q0 125 86 205.5t226 80.5q63 0 128 -26t96 -77l-86 -63q-47 57 -145 57q-69 0 -118 -30.5t-65 -86.5h263z" />
    <glyph glyph-name="uniF37B" unicode="&#xf37b;" horiz-adv-x="243" 
d="M63 0v560h117v-560h-117z" />
    <glyph glyph-name="uniF37C" unicode="&#xf37c;" horiz-adv-x="243" 
d="M-16 645q0 23 18 38.5t44 15.5q24 0 42.5 -15.5t18.5 -38.5q0 -24 -18.5 -39.5t-42.5 -15.5q-27 0 -44.5 15.5t-17.5 39.5zM135 645q0 23 18 38.5t44 15.5q25 0 43 -15.5t18 -38.5q0 -24 -18 -39.5t-43 -15.5q-26 0 -44 15.5t-18 39.5zM63 0v560h117v-560h-117z" />
    <glyph glyph-name="uniF37E" unicode="&#xf37e;" horiz-adv-x="609" 
d="M168 13l44 102q7 -5 18 -5q27 0 47 33l3 5l-280 412h144l196 -292l147 292h123l-218 -429q-34 -67 -70.5 -99t-88.5 -32q-40 0 -65 13zM144 761h105q1 -31 19.5 -49.5t52.5 -18.5q33 0 50.5 18.5t17.5 49.5h104q-1 -73 -50.5 -114.5t-121.5 -41.5q-77 0 -126.5 40.5
t-50.5 115.5z" />
    <glyph glyph-name="uniF37F" unicode="&#xf37f;" horiz-adv-x="539" 
d="M396 155q0 25 -26.5 41.5t-67 25t-87 22t-87 29t-67 49.5t-26.5 82q0 67 67.5 114.5t169.5 47.5q156 0 229 -76l-62 -86q-74 53 -178 53q-105 0 -105 -51q0 -25 37 -41t90 -28t106.5 -28.5t90.5 -53t37 -92.5q0 -75 -65 -122t-168 -47q-79 0 -152.5 28t-113.5 71l64 87
q104 -77 218 -77q96 0 96 52z" />
    <glyph glyph-name="uniF381" unicode="&#xf381;" horiz-adv-x="609" 
d="M0 392v109h103v59h117v-59h188v-109h-188v-50h124q126 0 186.5 -40t60.5 -129q0 -173 -254 -173h-234v392h-103zM342 232h-122v-123h120q68 0 98.5 13.5t30.5 50.5q0 36 -29 47.5t-98 11.5z" />
    <glyph glyph-name="uniF389" unicode="&#xf389;" horiz-adv-x="665" 
d="M27 280q0 121 88.5 203.5t217.5 82.5q128 0 216.5 -81.5t88.5 -204.5t-88.5 -204.5t-216.5 -81.5t-217 81.5t-89 204.5zM333 107q63 0 111.5 32t64.5 88h-353q17 -56 66 -88t111 -32zM333 453q-61 0 -109.5 -31.5t-66.5 -85.5h350q-18 54 -66.5 85.5t-107.5 31.5z" />
    <glyph glyph-name="uniF38A" unicode="&#xf38a;" horiz-adv-x="654" 
d="M550 399l-194 -399h-81l-282 560h127l197 -390l133 279q55 118 150 118q42 0 78 -26l-44 -96q-10 7 -25 7q-34 -2 -59 -53z" />
    <glyph glyph-name="uniF393" unicode="&#xf393;" horiz-adv-x="646" 
d="M501 162q0 46 -25 69t-67 24q-68 0 -100 -46v-209h-117v451h-192v109h504v-109h-195v-119q41 32 122 32q80 0 134 -44.5t54 -138.5t-50 -141t-119 -47q-74 0 -109 49l63 79q19 -19 45 -19q24 0 38 16.5t14 43.5z" />
    <glyph glyph-name="uniF3CF" unicode="&#xf3cf;" horiz-adv-x="966" 
d="M555 0h-89l-295 351v-351h-112v560h89l295 -353v353h112v-560zM594 384q0 65 44 105.5t115 40.5q72 0 116 -40.5t44 -105.5t-44 -106t-116 -41q-71 0 -115 41t-44 106zM696 384q0 -24 16.5 -39t40.5 -15q27 0 43 14.5t16 39.5q0 23 -17 37.5t-42 14.5t-41 -14.5
t-16 -37.5zM612 104v98h284v-98h-284z" />
    <glyph glyph-name="uniF3D0" unicode="&#xf3d0;" horiz-adv-x="501" 
d="M152 761h105q1 -31 19.5 -49.5t52.5 -18.5q33 0 50.5 18.5t17.5 49.5h104q-1 -73 -50.5 -114.5t-121.5 -41.5q-77 0 -126.5 40.5t-50.5 115.5z" />
    <glyph glyph-name="uniF3E4" unicode="&#xf3e4;" horiz-adv-x="0" 
d="M-188 769l-127 -158l-76 54l118 168z" />
    <glyph glyph-name="uniF400" unicode="&#xf400;" horiz-adv-x="0" 
d="M-168 755l-127 -157l-77 54l118 167z" />
    <glyph glyph-name="uniF401" unicode="&#xf401;" horiz-adv-x="0" 
d="M-198 849l-220 -104l-43 76l210 128z" />
    <glyph glyph-name="uniF406" unicode="&#xf406;" horiz-adv-x="562" 
d="M182 865l52 59q56 -61 143 -61t140 61l45 -58q-27 -44 -77.5 -74.5t-107.5 -30.5q-65 0 -116.5 31t-78.5 73z" />
    <glyph glyph-name="uniF407" unicode="&#xf407;" horiz-adv-x="521" 
d="M252 -163l41 56q32 -25 79 -25q39 0 39 21q0 23 -50 23h-12v88h63v-32q109 -6 109 -85q0 -41 -31.5 -65.5t-97.5 -24.5q-90 0 -140 44z" />
    <glyph glyph-name="uniF408" unicode="&#xf408;" horiz-adv-x="531" 
d="M353 929l184 -111l-47 -69l-139 73l-138 -73l-40 67l176 113h4z" />
    <glyph glyph-name="uniF409" unicode="&#xf409;" horiz-adv-x="449" 
d="M310 -100l94 62q45 -36 45 -87q0 -52 -28 -91.5t-64 -61.5l-53 41q35 35 35 78q0 28 -29 59z" />
    <glyph glyph-name="uniF40A" unicode="&#xf40a;" horiz-adv-x="198" 
d="M58 677l95 60q45 -38 45 -100q0 -51 -31.5 -94t-76.5 -71l-49 45q47 39 47 87q0 37 -30 73z" />
    <glyph glyph-name="uniF40B" unicode="&#xf40b;" horiz-adv-x="450" 
d="M317 827q0 26 19 43t48 17q28 0 47 -17.5t19 -42.5q0 -27 -19 -44.5t-47 -17.5q-30 0 -48.5 17.5t-18.5 44.5z" />
    <glyph glyph-name="uniF40C" unicode="&#xf40c;" horiz-adv-x="522" 
d="M244 838q0 53 39 81t98 28q62 0 102 -27.5t40 -81.5q0 -52 -40 -81.5t-102 -29.5q-60 0 -98.5 29t-38.5 82zM331 838q0 -21 14 -33t38 -12t38.5 12t14.5 33q0 42 -53 42q-52 0 -52 -42z" />
    <glyph glyph-name="uniF40D" unicode="&#xf40d;" horiz-adv-x="557" 
d="M226 779l-36 72q21 25 53.5 40.5t61.5 15.5q31 0 75 -18t70 -18q47 0 76 31l31 -72q-41 -60 -117 -60q-25 0 -72 18t-76 18q-33 0 -66 -27z" />
    <glyph glyph-name="uniF40E" unicode="&#xf40e;" horiz-adv-x="462" 
d="M443 -97l31 -73q-32 -30 -101 -30q-56 -1 -94.5 22.5t-38.5 70.5q0 61 66.5 95t155.5 34v-22q-42 0 -75.5 -22t-33.5 -48q0 -37 44 -37q25 0 46 10z" />
    <glyph glyph-name="uniF410" unicode="&#xf410;" horiz-adv-x="0" 
d="M-272 745l-219 104l53 100l210 -128z" />
    <glyph glyph-name="uniF416" unicode="&#xf416;" horiz-adv-x="399" 
d="M260 -100l94 62q45 -36 45 -87q0 -52 -28 -91.5t-64 -61.5l-53 41q35 35 35 78q0 28 -29 59z" />
    <glyph glyph-name="uniF418" unicode="&#xf418;" horiz-adv-x="198" 
d="M58 517l95 60q45 -38 45 -100q0 -51 -31.5 -94t-76.5 -71l-49 45q47 39 47 87q0 37 -30 73z" />
    <glyph glyph-name="uniF447" unicode="&#xf447;" horiz-adv-x="515" 
d="M136 -166l35 59q32 -25 78 -25q39 0 39 21q0 23 -49 23h-13v88h-27v451h-195v109h507v-109h-195v-451h-27v-32q50 -3 76.5 -25.5t26.5 -59.5q0 -40 -35 -65t-102 -25t-119 41z" />
    <glyph glyph-name="uniF44E" unicode="&#xf44e;" horiz-adv-x="649" 
d="M22 246q0 55 16 94h461q-13 55 -61.5 86t-123.5 31q-113 0 -177 -73l-78 75q42 53 112 80t148 27q140 0 221 -76.5t81 -207.5q0 -128 -82 -208t-225 -80q-72 0 -130 23t-92 60t-52 80.5t-18 88.5zM501 231h-361q9 -58 53.5 -93t123.5 -35q76 0 126 35t58 93z" />
    <glyph glyph-name="uniF452" unicode="&#xf452;" horiz-adv-x="756" 
d="M58 0v560h443v-109h-326v-133h305v-109h-305v-209h-117zM576 0v560h117v-560h-117z" />
    <glyph glyph-name="uniF453" unicode="&#xf453;" horiz-adv-x="1030" 
d="M58 0v560h443v-109h-326v-133h305v-109h-305v-209h-117zM575 0v560h117v-451h329v-109h-446z" />
    <glyph glyph-name="zero.tab" unicode="&#xf4e0;" 
d="M36 350q0 159 71.5 258t200.5 99q131 0 202.5 -98.5t71.5 -258.5q0 -159 -72.5 -258t-199.5 -99t-200.5 99.5t-73.5 257.5zM160 350q0 -116 39.5 -179t110.5 -63q68 0 108 63.5t40 178.5q0 116 -39.5 179t-110.5 63q-70 0 -109 -63.5t-39 -178.5z" />
    <glyph glyph-name="one.tab" unicode="&#xf4e1;" 
d="M71 0v112h241v447l-209 -93l-41 100l290 136h76v-590h143v-112h-500z" />
    <glyph glyph-name="two.tab" unicode="&#xf4e2;" 
d="M135 478l-105 42q26 90 101 138.5t178 48.5q119 0 185.5 -57t66.5 -150q0 -68 -28 -124.5t-80 -105t-144 -112.5l-80 -46h354v-112h-543v89l158 115q7 6 44 34t49 38.5t42.5 36.5t43 41.5t30 39t24 44.5t6.5 43q0 51 -34.5 80.5t-95.5 29.5q-65 0 -108 -32t-64 -81z" />
    <glyph glyph-name="three.tab" unicode="&#xf4e3;" 
d="M151 500l-103 46q26 76 99 119.5t164 43.5q111 0 182 -48.5t71 -127.5q0 -59 -31.5 -102t-81.5 -58q53 -13 90.5 -52.5t37.5 -111.5q0 -98 -75.5 -157.5t-187.5 -59.5q-60 0 -114 16.5t-101 57.5t-67 100l110 46q21 -47 66 -75.5t96 -28.5q64 0 106 26.5t42 73.5
q0 53 -44.5 74t-125.5 21h-68v110h72q68 0 110 27t42 68t-39 64t-100 23q-99 0 -150 -95z" />
    <glyph glyph-name="four.tab" unicode="&#xf4e4;" 
d="M401 0v133h-376v78l393 489h100v-460h89v-107h-89v-133h-117zM185 240h216v269z" />
    <glyph glyph-name="five.tab" unicode="&#xf4e5;" 
d="M58 317l32 383h457v-113h-351l-15 -155q50 25 124 25q126 0 194 -62.5t68 -167.5q0 -106 -75.5 -170.5t-193.5 -64.5q-43 0 -82.5 9t-78 27.5t-68.5 53t-46 80.5l112 41q17 -45 64 -70t105 -25q65 0 102 32t37 83q0 59 -40.5 92t-111.5 33q-82 0 -132 -41z" />
    <glyph glyph-name="six.tab" unicode="&#xf4e6;" 
d="M32 331q0 184 85 281t230 97q75 0 121 -23.5t87 -67.5l-67 -85q-34 30 -65 44.5t-78 14.5q-88 0 -141 -57t-52 -164q73 107 192 107q113 0 180 -64.5t67 -171.5q0 -111 -73.5 -181t-186.5 -70q-135 0 -217 89.5t-82 250.5zM171 255q5 -31 14 -54.5t26.5 -46.5t49 -35
t75.5 -12q62 0 96.5 35t34.5 94q0 62 -35 95.5t-101 33.5q-60 0 -104.5 -35.5t-55.5 -74.5z" />
    <glyph glyph-name="seven.tab" unicode="&#xf4e7;" 
d="M39 587v113h544v-76l-330 -624h-127l314 587h-401z" />
    <glyph glyph-name="eight.tab" unicode="&#xf4e8;" 
d="M296 411h29q55 0 86 25.5t31 69.5q0 47 -31 69.5t-102 22.5q-64 0 -98 -23.5t-34 -67.5t29.5 -70t89.5 -26zM323 308h-24q-64 0 -104 -29.5t-40 -72.5q0 -49 40 -77t115 -28q71 0 112.5 27.5t41.5 75.5q0 49 -37 76.5t-104 27.5zM311 -8q-132 0 -206 54t-74 149
q0 58 30.5 103t86.5 65q-95 48 -95 155q0 87 65 138.5t192 51.5q130 0 193.5 -50.5t63.5 -137.5q0 -52 -29.5 -94.5t-75.5 -60.5q127 -32 127 -166q0 -98 -75 -152.5t-203 -54.5z" />
    <glyph glyph-name="nine.tab" unicode="&#xf4e9;" 
d="M590 369q0 -185 -80 -281.5t-211 -96.5q-137 0 -222 91l67 85q34 -30 65 -44.5t78 -14.5q86 0 134 55t48 152q-59 -89 -186 -89q-113 0 -179.5 64t-66.5 168q0 111 73 181t186 70q140 0 217 -88t77 -252zM455 432q-1 64 -40.5 112.5t-117.5 48.5q-61 0 -98.5 -35.5
t-37.5 -93.5q0 -61 36.5 -95t99.5 -34q55 0 101.5 30.5t56.5 66.5z" />
    <glyph glyph-name="dollar.tab" unicode="&#xf4ec;" 
d="M475 190q0 32 -24 54t-62 34.5t-84 23t-92 25t-84 35.5t-62 58.5t-24 89.5q0 70 58 124t152 69v80h115v-78q136 -13 220 -97l-66 -86q-88 73 -208 73q-62 0 -104 -20.5t-42 -61.5q0 -33 32 -54.5t80 -32t104 -27t104 -36t80 -62t32 -102.5q0 -83 -66 -139.5t-166 -65.5
v-86h-115v91q-71 13 -132.5 45.5t-97.5 75.5l72 85q95 -100 247 -100q63 0 98 22.5t35 62.5z" />
    <glyph glyph-name="Euro.tab" unicode="&#xf4ed;" 
d="M7 386l39 98h68q36 101 121 162.5t202 61.5q112 0 178 -46l-43 -91q-55 33 -135 33q-65 0 -115.5 -31.5t-77.5 -88.5h307l-37 -98h-299q-2 -26 -2 -49q0 -10 1 -17h281l-32 -98h-226q22 -58 79.5 -92.5t131.5 -34.5q73 0 122 32l30 -93q-21 -17 -66 -29.5t-89 -12.5
q-127 0 -214 59.5t-122 170.5h-100l37 98l47 1q0 1 -0.5 7.5t-0.5 10.5q0 23 2 47h-87z" />
    <glyph glyph-name="cent.tab" unicode="&#xf4ee;" 
d="M476 171l81 -52q-26 -50 -71.5 -82t-101.5 -41v-196h-120v198q-97 19 -153.5 89t-56.5 174q0 100 57 172.5t153 91.5v175h120v-173q58 -10 102 -40t65 -73l-85 -56q-41 54 -95 64v-323q64 10 105 72zM172 261q0 -54 28.5 -95t77.5 -58v309q-49 -16 -77.5 -57.5
t-28.5 -98.5z" />
    <glyph glyph-name="sterling.tab" unicode="&#xf4ef;" 
d="M77 260v96h57q-1 3 -8 19t-9 22l-7 21t-6.5 25.5t-3.5 25.5t-2 31q0 84 62 145.5t163 61.5q135 0 213 -89l-64 -91q-67 67 -151 67q-42 0 -71.5 -28t-29.5 -74q0 -21 6 -42t18 -50.5t17 -43.5h168v-96h-148q1 -7 1 -21q0 -62 -29 -98q27 -1 86.5 -21t89.5 -20
q31 0 51.5 11.5t47.5 43.5l59 -79q-63 -77 -157 -77q-43 0 -114 22.5t-109 22.5q-64 0 -119 -54l-53 85q45 45 96 62q33 42 33 98q0 9 -2 25h-85z" />
    <glyph glyph-name="yen.tab" unicode="&#xf4fa;" 
d="M83 302v99h95l-181 299h140l173 -299l177 299h135l-183 -299h96v-99h-166v-85h166v-99h-166v-118h-121v118h-165v99h165v85h-165z" />
    <glyph glyph-name="florin.tab" unicode="&#xf4fb;" 
d="M390 481l-5 -24h144v-105h-162l-61 -342q-9 -48 -20 -82t-31 -67.5t-53.5 -51t-79.5 -17.5q-75 0 -121 48l38 88q31 -30 73 -30q60 0 76 89l66 365h-134v105h153l7 42q33 210 204 210q80 0 127 -40l-41 -90q-35 24 -78 24q-44 0 -66 -27.5t-36 -94.5z" />
    <glyph glyph-name="uni20B4.tab" unicode="&#xf4fc;" 
d="M52 397v95h326q16 21 16 46q0 26 -22.5 42t-66.5 16q-94 0 -151 -44l-50 93q77 64 209 64q83 0 143.5 -42.5t60.5 -105.5q0 -42 -20 -69h64v-95h-128q-17 -15 -40 -28.5t-49 -26.5t-35 -19h252v-95h-329q-23 -31 -23 -53q0 -35 31.5 -53t82.5 -18q106 0 166 62l54 -80
q-28 -44 -95 -69.5t-133 -25.5q-100 0 -163 44t-63 126q0 33 19 67h-56v95h120q35 20 79 42t59 32h-258z" />
    <glyph glyph-name="uni20BD.tab" unicode="&#xf4fd;" 
d="M28 295v106h103v299q81 0 111 1q16 0 43 0.5t35 0.5q137 0 200.5 -54.5t63.5 -145.5q0 -92 -66 -149.5t-198 -57.5h-72v-65h168v-106h-168v-124h-117v124h-103v106h103v65h-103zM326 595h-78v-194h70q145 0 145 98q0 50 -33.5 73t-103.5 23z" />
    <glyph glyph-name="uniF66D" unicode="&#xf66d;" horiz-adv-x="605" 
d="M-2 0l261 560h88l261 -560h-123l-53 109h-261l-53 -109h-120zM301 387l-89 -179h177zM143 717l51 58q48 -55 112 -55q72 0 115 53l40 -55q-63 -95 -159 -95q-57 0 -98 30.5t-61 63.5z" />
    <glyph glyph-name="uniF66E" unicode="&#xf66e;" horiz-adv-x="605" 
d="M-2 0l261 560h88l261 -560h-123l-53 109h-261l-53 -109h-120zM301 387l-89 -179h177zM162 638v96h281v-96h-281z" />
    <glyph glyph-name="uniF66F" unicode="&#xf66f;" horiz-adv-x="605" 
d="M582 -96l35 -73q-33 -31 -101 -31q-55 0 -92.5 24.5t-37.5 71.5q0 74 96 109l-50 104h-261l-53 -109h-120l261 560h88l261 -560h-39q-26 -2 -46 -21.5t-20 -44.5q0 -17 10.5 -28t26.5 -11q23 0 42 9zM301 387l-89 -179h177z" />
    <glyph glyph-name="uniF671" unicode="&#xf671;" horiz-adv-x="590" 
d="M511 179l68 -75q-38 -53 -102.5 -81.5t-143.5 -28.5q-140 0 -223 78t-83 208q0 122 85 204t221 82q80 0 143 -27.5t94 -73.5l-78 -73q-55 61 -152 61q-87 0 -139 -46.5t-52 -126.5q0 -78 54 -125.5t139 -47.5q108 0 169 72zM454 769l-127 -158l-76 54l118 168z" />
    <glyph glyph-name="uniF672" unicode="&#xf672;" horiz-adv-x="590" 
d="M511 179l68 -75q-38 -53 -102.5 -81.5t-143.5 -28.5q-140 0 -223 78t-83 208q0 122 85 204t221 82q80 0 143 -27.5t94 -73.5l-78 -73q-55 61 -152 61q-87 0 -139 -46.5t-52 -126.5q0 -78 54 -125.5t139 -47.5q108 0 169 72zM314 609l-156 131l56 69l103 -87l105 85
l52 -68l-156 -130h-4z" />
    <glyph glyph-name="uniF673" unicode="&#xf673;" horiz-adv-x="590" 
d="M511 179l68 -75q-38 -53 -102.5 -81.5t-143.5 -28.5q-140 0 -223 78t-83 208q0 122 85 204t221 82q80 0 143 -27.5t94 -73.5l-78 -73q-55 61 -152 61q-87 0 -139 -46.5t-52 -126.5q0 -78 54 -125.5t139 -47.5q108 0 169 72zM314 803l157 -131l-57 -69l-102 87l-106 -85
l-52 68l156 130h4z" />
    <glyph glyph-name="uniF674" unicode="&#xf674;" horiz-adv-x="590" 
d="M511 179l68 -75q-38 -53 -102.5 -81.5t-143.5 -28.5q-140 0 -223 78t-83 208q0 122 85 204t221 82q80 0 143 -27.5t94 -73.5l-78 -73q-55 61 -152 61q-87 0 -139 -46.5t-52 -126.5q0 -78 54 -125.5t139 -47.5q108 0 169 72zM253 697q0 26 19.5 43t47.5 17t47 -17t19 -43
q0 -27 -18.5 -44.5t-47.5 -17.5q-30 0 -48.5 17.5t-18.5 44.5z" />
    <glyph glyph-name="uniF675" unicode="&#xf675;" horiz-adv-x="611" 
d="M58 0v560h187q91 0 158.5 -21.5t106 -60t56.5 -86t18 -105.5q0 -128 -87.5 -207.5t-263.5 -79.5h-175zM243 451h-68v-342h68q219 0 219 178q0 164 -219 164zM264 609l-156 131l56 69l103 -87l105 85l52 -68l-156 -130h-4z" />
    <glyph glyph-name="uniF676" unicode="&#xf676;" horiz-adv-x="665" 
d="M15 231v97h97v232h187q91 0 158.5 -21.5t106 -60t56.5 -86t18 -105.5q0 -128 -87.5 -207.5t-262.5 -79.5h-176v231h-97zM297 451h-68v-123h142v-97h-142v-122h68q219 0 219 178q0 164 -219 164z" />
    <glyph glyph-name="uniF678" unicode="&#xf678;" horiz-adv-x="550" 
d="M58 0v560h448v-109h-331v-114h309v-106h-309v-122h339v-109h-456zM281 609l-156 131l56 69l103 -87l105 85l52 -68l-156 -130h-4z" />
    <glyph glyph-name="uniF679" unicode="&#xf679;" horiz-adv-x="550" 
d="M58 0v560h448v-109h-331v-114h309v-106h-309v-122h339v-109h-456zM220 697q0 26 19.5 43t47.5 17t47 -17t19 -43q0 -27 -18.5 -44.5t-47.5 -17.5q-30 0 -48.5 17.5t-18.5 44.5z" />
    <glyph glyph-name="uniF67A" unicode="&#xf67a;" horiz-adv-x="550" 
d="M58 0v560h448v-109h-331v-114h309v-106h-309v-122h339v-109h-456zM147 638v96h281v-96h-281z" />
    <glyph glyph-name="uniF67C" unicode="&#xf67c;" horiz-adv-x="550" 
d="M58 0v560h448v-109h-331v-114h309v-106h-309v-122h339v-109h-11q-26 -2 -46 -21.5t-20 -44.5q0 -17 10.5 -28t26.5 -11q23 0 42 9l35 -73q-33 -31 -101 -31q-55 0 -92.5 24.5t-37.5 71.5q0 68 83 104h-345z" />
    <glyph glyph-name="uniF67D" unicode="&#xf67d;" horiz-adv-x="611" 
d="M317 204v106h266v-224q-42 -44 -104 -68t-132 -24q-141 0 -230.5 78.5t-89.5 207.5q0 122 86.5 204t220.5 82q76 0 140 -25.5t96 -69.5l-80 -73q-50 55 -151 55q-87 0 -138.5 -46t-51.5 -127q0 -83 54.5 -128t144.5 -45q77 0 123 31v66h-154zM160 717l51 58
q48 -55 112 -55q72 0 115 53l40 -55q-63 -95 -159 -95q-57 0 -98 30.5t-61 63.5z" />
    <glyph glyph-name="uniF67E" unicode="&#xf67e;" horiz-adv-x="611" 
d="M317 204v106h266v-224q-42 -44 -104 -68t-132 -24q-141 0 -230.5 78.5t-89.5 207.5q0 122 86.5 204t220.5 82q76 0 140 -25.5t96 -69.5l-80 -73q-50 55 -151 55q-87 0 -138.5 -46t-51.5 -127q0 -83 54.5 -128t144.5 -45q77 0 123 31v66h-154zM327 803l157 -131l-57 -69
l-102 87l-106 -85l-52 68l156 130h4z" />
    <glyph glyph-name="uniF67F" unicode="&#xf67f;" horiz-adv-x="611" 
d="M317 204v106h266v-224q-42 -44 -104 -68t-132 -24q-141 0 -230.5 78.5t-89.5 207.5q0 122 86.5 204t220.5 82q76 0 140 -25.5t96 -69.5l-80 -73q-50 55 -151 55q-87 0 -138.5 -46t-51.5 -127q0 -83 54.5 -128t144.5 -45q77 0 123 31v66h-154zM270 -100l94 62
q45 -36 45 -87q0 -52 -28 -91.5t-64 -61.5l-53 41q35 35 35 78q0 28 -29 59z" />
    <glyph glyph-name="uniF680" unicode="&#xf680;" horiz-adv-x="611" 
d="M317 204v106h266v-224q-42 -44 -104 -68t-132 -24q-141 0 -230.5 78.5t-89.5 207.5q0 122 86.5 204t220.5 82q76 0 140 -25.5t96 -69.5l-80 -73q-50 55 -151 55q-87 0 -138.5 -46t-51.5 -127q0 -83 54.5 -128t144.5 -45q77 0 123 31v66h-154zM263 697q0 26 19.5 43
t47.5 17t47 -17t19 -43q0 -27 -18.5 -44.5t-47.5 -17.5q-30 0 -48.5 17.5t-18.5 44.5z" />
    <glyph glyph-name="uniF681" unicode="&#xf681;" horiz-adv-x="637" 
d="M0 403v91h58v66h117v-66h288v66h117v-66h57v-91h-57v-403h-117v228h-288v-228h-117v403h-58zM175 337h288v66h-288v-66z" />
    <glyph glyph-name="uniF682" unicode="&#xf682;" horiz-adv-x="638" 
d="M463 0v228h-288v-228h-117v560h117v-222h288v222h117v-560h-117zM321 803l157 -131l-57 -69l-102 87l-106 -85l-52 68l156 130h4z" />
    <glyph glyph-name="uniF685" unicode="&#xf685;" horiz-adv-x="243" 
d="M63 0v560h117v-560h-117zM-19 638v96h281v-96h-281z" />
    <glyph glyph-name="uniF686" unicode="&#xf686;" horiz-adv-x="243" 
d="M63 0v560h117v-560h-9q-26 -2 -46 -21.5t-20 -44.5q0 -17 10.5 -28t26.5 -11q23 0 42 9l35 -73q-33 -31 -101 -31q-55 0 -92.5 24.5t-37.5 71.5q0 68 83 104h-8z" />
    <glyph glyph-name="uniF688" unicode="&#xf688;" horiz-adv-x="415" 
d="M361 560v-383q0 -88 -49 -135.5t-132 -47.5q-133 0 -187 106l86 66q43 -64 91 -63q40 0 57 21t17 76v360h117zM290 803l157 -131l-57 -69l-102 87l-106 -85l-52 68l156 130h4z" />
    <glyph glyph-name="uniF689" unicode="&#xf689;" horiz-adv-x="588" 
d="M58 0v560h117v-225l249 225h153l-265 -249l282 -311h-154l-217 233l-48 -43v-190h-117zM210 -100l94 62q45 -36 45 -87q0 -52 -28 -91.5t-64 -61.5l-53 41q35 35 35 78q0 28 -29 59z" />
    <glyph glyph-name="uniF68A" unicode="&#xf68a;" horiz-adv-x="513" 
d="M58 0v560h117v-451h329v-109h-446zM341 769l-127 -158l-76 54l118 168z" />
    <glyph glyph-name="uniF68B" unicode="&#xf68b;" horiz-adv-x="513" 
d="M58 0v560h117v-451h329v-109h-446zM329 560h119q13 -23 13 -67q0 -52 -32 -96t-76 -72l-49 45q24 21 36 50.5t12 54.5q0 55 -23 85z" />
    <glyph glyph-name="uniF68C" unicode="&#xf68c;" horiz-adv-x="513" 
d="M58 0v560h117v-451h329v-109h-446zM213 -100l94 62q45 -36 45 -87q0 -52 -28 -91.5t-64 -61.5l-53 41q35 35 35 78q0 28 -29 59z" />
    <glyph glyph-name="uniF68D" unicode="&#xf68d;" horiz-adv-x="513" 
d="M58 0v560h117v-451h329v-109h-446zM297 309q0 28 23 50.5t58 22.5q33 0 56.5 -23t23.5 -50q0 -30 -23 -52.5t-57 -22.5q-36 0 -58.5 22.5t-22.5 52.5z" />
    <glyph glyph-name="uniF68E" unicode="&#xf68e;" horiz-adv-x="629" 
d="M571 0h-91l-308 357v-357h-114v560h90l309 -359v359h114v-560zM441 769l-127 -158l-76 54l118 168z" />
    <glyph glyph-name="uniF68F" unicode="&#xf68f;" horiz-adv-x="629" 
d="M571 0h-91l-308 357v-357h-114v560h90l309 -359v359h114v-560zM312 609l-156 131l56 69l103 -87l105 85l52 -68l-156 -130h-4z" />
    <glyph glyph-name="uniF690" unicode="&#xf690;" horiz-adv-x="629" 
d="M571 0h-91l-308 357v-357h-114v560h90l309 -359v359h114v-560zM247 -100l94 62q45 -36 45 -87q0 -52 -28 -91.5t-64 -61.5l-53 41q35 35 35 78q0 28 -29 59z" />
    <glyph glyph-name="uniF692" unicode="&#xf692;" horiz-adv-x="665" 
d="M27 280q0 121 88.5 203.5t217.5 82.5q128 0 216.5 -81.5t88.5 -204.5t-88.5 -204.5t-216.5 -81.5t-217 81.5t-89 204.5zM149 280q0 -78 54 -125.5t130 -47.5q78 0 130.5 47.5t52.5 125.5t-54 125.5t-129 47.5q-77 0 -130.5 -47.5t-53.5 -125.5zM544 769l-138 -158l-61 45
l124 170zM380 779l-127 -168l-62 46l114 176z" />
    <glyph glyph-name="uniF693" unicode="&#xf693;" horiz-adv-x="665" 
d="M27 280q0 121 88.5 203.5t217.5 82.5q128 0 216.5 -81.5t88.5 -204.5t-88.5 -204.5t-216.5 -81.5t-217 81.5t-89 204.5zM149 280q0 -78 54 -125.5t130 -47.5q78 0 130.5 47.5t52.5 125.5t-54 125.5t-129 47.5q-77 0 -130.5 -47.5t-53.5 -125.5zM192 638v96h281v-96h-281z
" />
    <glyph glyph-name="uniF695" unicode="&#xf695;" horiz-adv-x="583" 
d="M175 0h-117v560h237q129 0 183 -50.5t54 -129.5q0 -56 -33.5 -100t-90.5 -63l173 -217h-142l-154 195h-110v-195zM292 451h-117v-147h122q54 0 84 20t30 56q0 34 -26.5 52.5t-92.5 18.5zM394 769l-127 -158l-76 54l118 168z" />
    <glyph glyph-name="uniF696" unicode="&#xf696;" horiz-adv-x="583" 
d="M175 0h-117v560h237q129 0 183 -50.5t54 -129.5q0 -56 -33.5 -100t-90.5 -63l173 -217h-142l-154 195h-110v-195zM292 451h-117v-147h122q54 0 84 20t30 56q0 34 -26.5 52.5t-92.5 18.5zM267 609l-156 131l56 69l103 -87l105 85l52 -68l-156 -130h-4z" />
    <glyph glyph-name="uniF697" unicode="&#xf697;" horiz-adv-x="583" 
d="M175 0h-117v560h237q129 0 183 -50.5t54 -129.5q0 -56 -33.5 -100t-90.5 -63l173 -217h-142l-154 195h-110v-195zM292 451h-117v-147h122q54 0 84 20t30 56q0 34 -26.5 52.5t-92.5 18.5zM213 -100l94 62q45 -36 45 -87q0 -52 -28 -91.5t-64 -61.5l-53 41q35 35 35 78
q0 28 -29 59z" />
    <glyph glyph-name="uniF698" unicode="&#xf698;" horiz-adv-x="539" 
d="M396 155q0 25 -26.5 41.5t-67 25t-87 22t-87 29t-67 49.5t-26.5 82q0 67 67.5 114.5t169.5 47.5q156 0 229 -76l-62 -86q-74 53 -178 53q-105 0 -105 -51q0 -25 37 -41t90 -28t106.5 -28.5t90.5 -53t37 -92.5q0 -75 -65 -122t-168 -47q-79 0 -152.5 28t-113.5 71l64 87
q104 -77 218 -77q96 0 96 52zM397 769l-127 -158l-76 54l118 168z" />
    <glyph glyph-name="uniF699" unicode="&#xf699;" horiz-adv-x="519" 
d="M142 -166l35 59q32 -25 78 -25q39 0 39 21q0 23 -49 23h-13v85q-67 8 -126 39.5t-86 71.5l71 85q76 -90 199 -90q39 0 62.5 14t23.5 38q0 23 -25.5 38.5t-63 24t-82 22.5t-82 30.5t-63 51t-25.5 82.5q0 68 62.5 115t164.5 47q154 0 229 -94l-78 -76q-59 61 -162 61
q-40 0 -67.5 -13t-27.5 -38q0 -21 25.5 -37t63 -24.5t82 -22.5t82 -30.5t63 -50t25.5 -78.5q0 -72 -54.5 -118t-147.5 -50v-27q50 -3 76.5 -25.5t26.5 -59.5q0 -40 -35 -65t-102 -25t-119 41z" />
    <glyph glyph-name="uniF69A" unicode="&#xf69a;" horiz-adv-x="539" 
d="M396 155q0 25 -26.5 41.5t-67 25t-87 22t-87 29t-67 49.5t-26.5 82q0 67 67.5 114.5t169.5 47.5q156 0 229 -76l-62 -86q-74 53 -178 53q-105 0 -105 -51q0 -25 37 -41t90 -28t106.5 -28.5t90.5 -53t37 -92.5q0 -75 -65 -122t-168 -47q-79 0 -152.5 28t-113.5 71l64 87
q104 -77 218 -77q96 0 96 52zM271 803l157 -131l-57 -69l-102 87l-106 -85l-52 68l156 130h4z" />
    <glyph glyph-name="uniF69B" unicode="&#xf69b;" horiz-adv-x="539" 
d="M396 155q0 25 -26.5 41.5t-67 25t-87 22t-87 29t-67 49.5t-26.5 82q0 67 67.5 114.5t169.5 47.5q156 0 229 -76l-62 -86q-74 53 -178 53q-105 0 -105 -51q0 -25 37 -41t90 -28t106.5 -28.5t90.5 -53t37 -92.5q0 -75 -65 -122t-168 -47q-79 0 -152.5 28t-113.5 71l64 87
q104 -77 218 -77q96 0 96 52zM210 -100l94 62q45 -36 45 -87q0 -52 -28 -91.5t-64 -61.5l-53 41q35 35 35 78q0 28 -29 59z" />
    <glyph glyph-name="uniF69D" unicode="&#xf69d;" horiz-adv-x="515" 
d="M4 451v109h507v-109h-195v-451h-117v451h-195zM255 609l-156 131l56 69l103 -87l105 85l52 -68l-156 -130h-4z" />
    <glyph glyph-name="uniF69E" unicode="&#xf69e;" horiz-adv-x="515" 
d="M4 451v109h507v-109h-195v-451h-117v451h-195zM193 -100l94 62q45 -36 45 -87q0 -52 -28 -91.5t-64 -61.5l-53 41q35 35 35 78q0 28 -29 59z" />
    <glyph glyph-name="uniF69F" unicode="&#xf69f;" horiz-adv-x="618" 
d="M566 560v-320q0 -84 -37.5 -141t-92 -80.5t-120.5 -23.5q-112 0 -188 65t-76 184v316h117v-302q0 -66 40 -110t107 -44q66 0 99.5 42t33.5 109v305h117zM150 717l51 58q48 -55 112 -55q72 0 115 53l40 -55q-63 -95 -159 -95q-57 0 -98 30.5t-61 63.5z" />
    <glyph glyph-name="uniF6A0" unicode="&#xf6a0;" horiz-adv-x="618" 
d="M566 560v-320q0 -84 -37.5 -141t-92 -80.5t-120.5 -23.5q-112 0 -188 65t-76 184v316h117v-302q0 -66 40 -110t107 -44q66 0 99.5 42t33.5 109v305h117zM520 769l-138 -158l-61 45l124 170zM356 779l-127 -168l-62 46l114 176z" />
    <glyph glyph-name="uniF6A1" unicode="&#xf6a1;" horiz-adv-x="618" 
d="M566 560v-320q0 -84 -37.5 -141t-92 -80.5t-120.5 -23.5q-112 0 -188 65t-76 184v316h117v-302q0 -66 40 -110t107 -44q66 0 99.5 42t33.5 109v305h117zM169 638v96h281v-96h-281z" />
    <glyph glyph-name="uniF6A2" unicode="&#xf6a2;" horiz-adv-x="618" 
d="M566 560v-320q0 -89 -40 -146t-106 -81q-63 -40 -63 -81q0 -17 10.5 -27t26.5 -10q23 0 42 9l35 -73q-33 -31 -101 -31q-55 0 -92.5 24.5t-37.5 71.5q0 58 76 99q-112 0 -188 65t-76 184v316h117v-302q0 -66 40 -110t107 -44q66 0 99.5 42t33.5 109v305h117z" />
    <glyph glyph-name="uniF6A3" unicode="&#xf6a3;" horiz-adv-x="618" 
d="M566 560v-320q0 -84 -37.5 -141t-92 -80.5t-120.5 -23.5q-112 0 -188 65t-76 184v316h117v-302q0 -66 40 -110t107 -44q66 0 99.5 42t33.5 109v305h117zM186 721q0 49 35 83t87 34q53 0 88.5 -34t35.5 -83q0 -48 -35.5 -81.5t-88.5 -33.5q-52 0 -87 33.5t-35 81.5z
M263 722q0 -20 13 -33t34 -13q20 0 32.5 12t12.5 34t-12.5 34t-32.5 12q-21 0 -34 -12.5t-13 -33.5z" />
    <glyph glyph-name="uniF6AB" unicode="&#xf6ab;" horiz-adv-x="539" 
d="M24 451v109h490v-78l-337 -373h345v-109h-512v78l335 373h-321zM394 769l-127 -158l-76 54l118 168z" />
    <glyph glyph-name="uniF6AC" unicode="&#xf6ac;" horiz-adv-x="539" 
d="M24 451v109h490v-78l-337 -373h345v-109h-512v78l335 373h-321zM203 697q0 26 19.5 43t47.5 17t47 -17t19 -43q0 -27 -18.5 -44.5t-47.5 -17.5q-30 0 -48.5 17.5t-18.5 44.5z" />
    <glyph glyph-name="uniF6AD" unicode="&#xf6ad;" horiz-adv-x="243" 
d="M63 0v560h117v-560h-117zM55 697q0 26 19.5 43t47.5 17t47 -17t19 -43q0 -27 -18.5 -44.5t-47.5 -17.5q-30 0 -48.5 17.5t-18.5 44.5z" />
    <glyph glyph-name="uniF6BA" unicode="&#xf6ba;" horiz-adv-x="416" 
d="M69 309v101h278v-101h-278z" />
    <glyph glyph-name="uniF6BB" unicode="&#xf6bb;" horiz-adv-x="607" 
d="M85 311v99h437v-99h-437z" />
    <glyph glyph-name="uniF6BC" unicode="&#xf6bc;" horiz-adv-x="796" 
d="M85 311v99h626v-99h-626z" />
    <glyph glyph-name="uniF6C3" unicode="&#xf6c3;" horiz-adv-x="366" 
d="M226 -100l95 62q45 -38 45 -87q0 -52 -28 -91.5t-64 -61.5l-53 41q35 35 35 78q0 27 -30 59z" />
    <glyph glyph-name="uniF6C9" unicode="&#xf6c9;" horiz-adv-x="572" 
d="M572 849l-220 -104l-43 76l210 128z" />
    <glyph glyph-name="uniF6CA" unicode="&#xf6ca;" horiz-adv-x="529" 
d="M352 750l-183 111l46 68l139 -79l138 79l41 -67l-177 -112h-4z" />
    <glyph glyph-name="uniF6CB" unicode="&#xf6cb;" horiz-adv-x="513" 
d="M136 828q0 27 20 44.5t50 17.5q25 0 45.5 -18t20.5 -44q0 -27 -20 -44.5t-46 -17.5q-31 0 -50.5 17t-19.5 45zM379 828q0 27 20.5 44.5t48.5 17.5q26 0 46 -17.5t20 -44.5t-20 -44.5t-46 -17.5q-29 0 -49 17t-20 45z" />
    <glyph glyph-name="uniF6CE" unicode="&#xf6ce;" horiz-adv-x="471" 
d="M428 745l-219 104l53 100l210 -128z" />
    <glyph glyph-name="uniF6CF" unicode="&#xf6cf;" horiz-adv-x="643" 
d="M643 845l-187 -106l-47 53l157 129zM440 864l-163 -125l-48 49l117 133z" />
    <glyph glyph-name="uniF6D0" unicode="&#xf6d0;" horiz-adv-x="527" 
d="M220 780v95h307v-95h-307z" />
    <glyph glyph-name="uniF6D1" unicode="&#xf6d1;" horiz-adv-x="574" 
d="M174 908h114q22 -59 86 -59q73 0 86 59h114q-5 -68 -61 -113t-135 -45q-87 0 -139 43t-65 115z" />
    <glyph glyph-name="uniF6D4" unicode="&#xf6d4;" horiz-adv-x="481" 
d="M132 741h105q1 -31 19.5 -49.5t52.5 -18.5q33 0 50.5 18.5t17.5 49.5h104q-1 -73 -50.5 -114.5t-121.5 -41.5q-77 0 -126.5 40.5t-50.5 115.5z" />
    <glyph glyph-name="uniF6F4" unicode="&#xf6f4;" horiz-adv-x="496" 
d="M177 717l51 58q48 -55 112 -55q72 0 115 53l40 -55q-63 -95 -159 -95q-57 0 -98 30.5t-61 63.5z" />
    <glyph glyph-name="uniF6F5" unicode="&#xf6f5;" horiz-adv-x="484" 
d="M324 609l-156 131l56 69l103 -87l105 85l52 -68l-156 -130h-4z" />
    <glyph glyph-name="uniF6F6" unicode="&#xf6f6;" horiz-adv-x="481" 
d="M324 803l157 -131l-57 -69l-102 87l-106 -85l-52 68l156 130h4z" />
    <glyph glyph-name="uniF6F7" unicode="&#xf6f7;" horiz-adv-x="396" 
d="M263 697q0 26 19.5 43t47.5 17t47 -17t19 -43q0 -27 -18.5 -44.5t-47.5 -17.5q-30 0 -48.5 17.5t-18.5 44.5z" />
    <glyph glyph-name="uniF6F8" unicode="&#xf6f8;" horiz-adv-x="537" 
d="M537 769l-138 -158l-61 45l124 170zM373 779l-127 -168l-62 46l114 176z" />
    <glyph glyph-name="uniF6F9" unicode="&#xf6f9;" horiz-adv-x="523" 
d="M0 91v118l68 47v304h117v-224l160 111v-118l-160 -111v-109h330v-109h-447v138z" />
    <glyph glyph-name="uniF6FA" unicode="&#xf6fa;" horiz-adv-x="972" 
d="M480 0v35q-66 -41 -147 -41q-128 0 -217 81.5t-89 204.5q0 121 88.5 203.5t217.5 82.5q81 0 147 -39v33h449v-109h-332v-114h309v-106h-309v-122h339v-109h-456zM333 107q95 0 147 63v217q-55 66 -147 66q-77 0 -130.5 -47.5t-53.5 -125.5t54 -125.5t130 -47.5z" />
    <glyph glyph-name="uniF6FB" unicode="&#xf6fb;" horiz-adv-x="393" 
d="M396 -96l35 -73q-33 -31 -101 -31q-55 0 -92.5 24.5t-37.5 71.5q0 41 32.5 70.5t73.5 42t83 14.5v-23q-27 0 -49.5 -20t-22.5 -46q0 -17 10.5 -28t26.5 -11q23 0 42 9z" />
    <glyph glyph-name="uniF6FC" unicode="&#xf6fc;" horiz-adv-x="464" 
d="M217 721q0 49 35 83t87 34q53 0 88.5 -34t35.5 -83q0 -48 -35.5 -81.5t-88.5 -33.5q-52 0 -87 33.5t-35 81.5zM294 722q0 -20 13 -33t34 -13t33 12t12 34t-12 34t-33 12t-34 -12.5t-13 -33.5z" />
    <glyph glyph-name="uniF6FD" unicode="&#xf6fd;" horiz-adv-x="539" 
d="M396 155q0 25 -26.5 41.5t-67 25t-87 22t-87 29t-67 49.5t-26.5 82q0 67 67.5 114.5t169.5 47.5q156 0 229 -76l-62 -86q-74 53 -178 53q-105 0 -105 -51q0 -25 37 -41t90 -28t106.5 -28.5t90.5 -53t37 -92.5q0 -75 -65 -122t-168 -47q-79 0 -152.5 28t-113.5 71l64 87
q104 -77 218 -77q96 0 96 52zM267 609l-156 131l56 69l103 -87l105 85l52 -68l-156 -130h-4z" />
    <glyph glyph-name="uniF6FE" unicode="&#xf6fe;" horiz-adv-x="506" 
d="M207 632l-49 53q56 71 122 71q24 0 62 -21.5t58 -21.5q36 0 66 30l40 -59q-54 -66 -116 -66q-25 0 -62 22t-57 22q-28 0 -64 -30z" />
    <glyph glyph-name="uniF6FF" unicode="&#xf6ff;" horiz-adv-x="539" 
d="M24 451v109h490v-78l-337 -373h345v-109h-512v78l335 373h-321zM267 609l-156 131l56 69l103 -87l105 85l52 -68l-156 -130h-4z" />
    <glyph glyph-name="uniF760" unicode="&#xf760;" horiz-adv-x="401" 
d="M333 612l-136 154l88 67l116 -168z" />
    <glyph glyph-name="uniF761" unicode="&#xf761;" horiz-adv-x="605" 
d="M-2 0l261 560h88l261 -560h-123l-53 109h-261l-53 -109h-120zM301 387l-89 -179h177z" />
    <glyph glyph-name="uniF762" unicode="&#xf762;" horiz-adv-x="575" 
d="M58 0v560h259q206 0 206 -142q0 -77 -64 -122q84 -32 84 -130q0 -85 -62 -125.5t-170 -40.5h-253zM307 233h-132v-124h125q65 0 93.5 15t28.5 48q0 32 -26.5 46.5t-88.5 14.5zM299 451h-124v-112h135q44 0 68 14t24 38q0 31 -22.5 45.5t-80.5 14.5z" />
    <glyph glyph-name="uniF763" unicode="&#xf763;" horiz-adv-x="590" 
d="M511 179l68 -75q-38 -53 -102.5 -81.5t-143.5 -28.5q-140 0 -223 78t-83 208q0 122 85 204t221 82q80 0 143 -27.5t94 -73.5l-78 -73q-55 61 -152 61q-87 0 -139 -46.5t-52 -126.5q0 -78 54 -125.5t139 -47.5q108 0 169 72z" />
    <glyph glyph-name="uniF764" unicode="&#xf764;" horiz-adv-x="611" 
d="M58 0v560h187q91 0 158.5 -21.5t106 -60t56.5 -86t18 -105.5q0 -128 -87.5 -207.5t-263.5 -79.5h-175zM243 451h-68v-342h68q219 0 219 178q0 164 -219 164z" />
    <glyph glyph-name="uniF765" unicode="&#xf765;" horiz-adv-x="550" 
d="M58 0v560h448v-109h-331v-114h309v-106h-309v-122h339v-109h-456z" />
    <glyph glyph-name="uniF766" unicode="&#xf766;" horiz-adv-x="525" 
d="M58 0v560h443v-109h-326v-133h305v-109h-305v-209h-117z" />
    <glyph glyph-name="uniF767" unicode="&#xf767;" horiz-adv-x="611" 
d="M317 204v106h266v-224q-42 -44 -104 -68t-132 -24q-141 0 -230.5 78.5t-89.5 207.5q0 122 86.5 204t220.5 82q76 0 140 -25.5t96 -69.5l-80 -73q-50 55 -151 55q-87 0 -138.5 -46t-51.5 -127q0 -83 54.5 -128t144.5 -45q77 0 123 31v66h-154z" />
    <glyph glyph-name="uniF768" unicode="&#xf768;" horiz-adv-x="638" 
d="M463 0v228h-288v-228h-117v560h117v-222h288v222h117v-560h-117z" />
    <glyph glyph-name="uniF769" unicode="&#xf769;" horiz-adv-x="243" 
d="M63 0v560h117v-560h-117z" />
    <glyph glyph-name="uniF76A" unicode="&#xf76a;" horiz-adv-x="415" 
d="M361 560v-383q0 -88 -49 -135.5t-132 -47.5q-133 0 -187 106l86 66q43 -64 91 -63q40 0 57 21t17 76v360h117z" />
    <glyph glyph-name="uniF76B" unicode="&#xf76b;" horiz-adv-x="588" 
d="M58 0v560h117v-225l249 225h153l-265 -249l282 -311h-154l-217 233l-48 -43v-190h-117z" />
    <glyph glyph-name="uniF76C" unicode="&#xf76c;" horiz-adv-x="513" 
d="M58 0v560h117v-451h329v-109h-446z" />
    <glyph glyph-name="uniF76D" unicode="&#xf76d;" horiz-adv-x="720" 
d="M58 0v560h101l206 -242l198 242h100v-560h-117v363l-168 -207h-30l-173 208v-364h-117z" />
    <glyph glyph-name="uniF76E" unicode="&#xf76e;" horiz-adv-x="629" 
d="M571 0h-91l-308 357v-357h-114v560h90l309 -359v359h114v-560z" />
    <glyph glyph-name="uniF76F" unicode="&#xf76f;" horiz-adv-x="665" 
d="M27 280q0 121 88.5 203.5t217.5 82.5q128 0 216.5 -81.5t88.5 -204.5t-88.5 -204.5t-216.5 -81.5t-217 81.5t-89 204.5zM149 280q0 -78 54 -125.5t130 -47.5q78 0 130.5 47.5t52.5 125.5t-54 125.5t-129 47.5q-77 0 -130.5 -47.5t-53.5 -125.5z" />
    <glyph glyph-name="uniF770" unicode="&#xf770;" horiz-adv-x="581" 
d="M175 0h-117v560h246q137 0 193.5 -54.5t56.5 -135.5q0 -80 -60.5 -135t-189.5 -55h-129v-180zM308 451h-133v-162h127q130 0 130 82q0 80 -124 80z" />
    <glyph glyph-name="uniF771" unicode="&#xf771;" horiz-adv-x="665" 
d="M27 280q0 121 88.5 203.5t217.5 82.5q128 0 216.5 -81.5t88.5 -204.5q0 -116 -83 -196l54 -61l-82 -65l-56 64q-60 -28 -138 -28q-134 0 -220 80.5t-86 205.5zM149 280q0 -79 52 -126t132 -47q37 0 70 12l-46 49l73 64l50 -56q36 39 36 104q0 79 -51.5 126t-131.5 47
q-81 0 -132.5 -47t-51.5 -126z" />
    <glyph glyph-name="uniF772" unicode="&#xf772;" horiz-adv-x="583" 
d="M175 0h-117v560h237q129 0 183 -50.5t54 -129.5q0 -56 -33.5 -100t-90.5 -63l173 -217h-142l-154 195h-110v-195zM292 451h-117v-147h122q54 0 84 20t30 56q0 34 -26.5 52.5t-92.5 18.5z" />
    <glyph glyph-name="uniF773" unicode="&#xf773;" horiz-adv-x="539" 
d="M396 155q0 25 -26.5 41.5t-67 25t-87 22t-87 29t-67 49.5t-26.5 82q0 67 67.5 114.5t169.5 47.5q156 0 229 -76l-62 -86q-74 53 -178 53q-105 0 -105 -51q0 -25 37 -41t90 -28t106.5 -28.5t90.5 -53t37 -92.5q0 -75 -65 -122t-168 -47q-79 0 -152.5 28t-113.5 71l64 87
q104 -77 218 -77q96 0 96 52z" />
    <glyph glyph-name="uniF774" unicode="&#xf774;" horiz-adv-x="515" 
d="M4 451v109h507v-109h-195v-451h-117v451h-195z" />
    <glyph glyph-name="uniF775" unicode="&#xf775;" horiz-adv-x="618" 
d="M566 560v-320q0 -84 -37.5 -141t-92 -80.5t-120.5 -23.5q-112 0 -188 65t-76 184v316h117v-302q0 -66 40 -110t107 -44q66 0 99.5 42t33.5 109v305h117z" />
    <glyph glyph-name="uniF776" unicode="&#xf776;" horiz-adv-x="618" 
d="M624 560l-268 -560h-81l-282 560h127l197 -390l183 390h124z" />
    <glyph glyph-name="uniF777" unicode="&#xf777;" horiz-adv-x="823" 
d="M823 560l-176 -560h-97l-136 353l-132 -353h-97l-185 560h121l118 -361l129 361h95l131 -359l113 359h116z" />
    <glyph glyph-name="uniF778" unicode="&#xf778;" horiz-adv-x="590" 
d="M580 560l-215 -276l222 -284h-143l-149 189l-150 -189h-142l223 284l-214 276h141l143 -180l143 180h141z" />
    <glyph glyph-name="uniF779" unicode="&#xf779;" horiz-adv-x="583" 
d="M589 560l-241 -319v-241h-117v241l-238 319h145l155 -205l156 205h140z" />
    <glyph glyph-name="uniF77A" unicode="&#xf77a;" horiz-adv-x="539" 
d="M24 451v109h490v-78l-337 -373h345v-109h-512v78l335 373h-321z" />
    <glyph glyph-name="uniF7A1" unicode="&#xf7a1;" horiz-adv-x="263" 
d="M75 0v403h114v-403h-114zM66 503q0 24 18.5 41.5t48.5 17.5q26 0 44.5 -17.5t18.5 -41.5q0 -21 -19 -39t-44 -18q-29 0 -48 17.5t-19 39.5z" />
    <glyph glyph-name="uniF7A8" unicode="&#xf7a8;" horiz-adv-x="492" 
d="M146 698q0 25 19 41.5t44 16.5q24 0 44 -16.5t20 -41.5q0 -26 -19.5 -43t-44.5 -17q-26 0 -44.5 16.5t-18.5 43.5zM363 698q0 25 19.5 41.5t46.5 16.5q25 0 44.5 -16.5t19.5 -41.5q0 -27 -19 -43.5t-45 -16.5q-27 0 -46.5 16.5t-19.5 43.5z" />
    <glyph glyph-name="uniF7AF" unicode="&#xf7af;" horiz-adv-x="451" 
d="M170 638v96h281v-96h-281z" />
    <glyph glyph-name="uniF7B4" unicode="&#xf7b4;" horiz-adv-x="474" 
d="M474 769l-127 -158l-76 54l118 168z" />
    <glyph glyph-name="uniF7B8" unicode="&#xf7b8;" horiz-adv-x="467" 
d="M212 -166l35 59q32 -25 78 -25q39 0 39 21q0 23 -49 23h-13v88h63v-32q50 -3 76.5 -25.5t26.5 -59.5q0 -40 -35 -65t-102 -25t-119 41z" />
    <glyph glyph-name="uniF7BF" unicode="&#xf7bf;" horiz-adv-x="421" 
d="M132 158q0 -24 17.5 -37.5t50.5 -13.5q68 0 101 66l94 -44q-26 -70 -79.5 -102.5t-117.5 -32.5q-87 0 -136.5 41t-49.5 104q0 42 17 76t35 50.5t49 36.5q20 14 28 21t17 19.5t9 26.5q0 12 -2 22.5t-2 12.5l106 1q7 -21 7 -42q0 -31 -15 -56.5t-30.5 -38.5t-44.5 -33
q-54 -36 -54 -77zM284 503q0 -22 -18.5 -39.5t-47.5 -17.5q-26 0 -44.5 18t-18.5 39q0 24 18 41.5t45 17.5q30 0 48 -17.5t18 -41.5z" />
    <glyph glyph-name="uniF7E0" unicode="&#xf7e0;" horiz-adv-x="605" 
d="M-2 0l261 560h88l261 -560h-123l-53 109h-261l-53 -109h-120zM301 387l-89 -179h177zM310 612l-136 154l88 67l116 -168z" />
    <glyph glyph-name="uniF7E1" unicode="&#xf7e1;" horiz-adv-x="605" 
d="M-2 0l261 560h88l261 -560h-123l-53 109h-261l-53 -109h-120zM301 387l-89 -179h177zM437 769l-127 -158l-76 54l118 168z" />
    <glyph glyph-name="uniF7E2" unicode="&#xf7e2;" horiz-adv-x="605" 
d="M-2 0l261 560h88l261 -560h-123l-53 109h-261l-53 -109h-120zM301 387l-89 -179h177zM304 803l157 -131l-57 -69l-102 87l-106 -85l-52 68l156 130h4z" />
    <glyph glyph-name="uniF7E3" unicode="&#xf7e3;" horiz-adv-x="605" 
d="M-2 0l261 560h88l261 -560h-123l-53 109h-261l-53 -109h-120zM301 387l-89 -179h177zM178 632l-49 53q56 71 122 71q24 0 62 -21.5t58 -21.5q36 0 66 30l40 -59q-54 -66 -116 -66q-25 0 -62 22t-57 22q-28 0 -64 -30z" />
    <glyph glyph-name="uniF7E4" unicode="&#xf7e4;" horiz-adv-x="605" 
d="M-2 0l261 560h88l261 -560h-123l-53 109h-261l-53 -109h-120zM301 387l-89 -179h177zM129 698q0 25 19 41.5t44 16.5q24 0 44 -16.5t20 -41.5q0 -26 -19.5 -43t-44.5 -17q-26 0 -44.5 16.5t-18.5 43.5zM346 698q0 25 19.5 41.5t46.5 16.5q25 0 44.5 -16.5t19.5 -41.5
q0 -27 -19 -43.5t-45 -16.5q-27 0 -46.5 16.5t-19.5 43.5z" />
    <glyph glyph-name="uniF7E5" unicode="&#xf7e5;" horiz-adv-x="605" 
d="M-2 0l261 560h88l261 -560h-123l-53 109h-261l-53 -109h-120zM301 387l-89 -179h177zM179 729q0 49 35 83t87 34q53 0 88.5 -34t35.5 -83q0 -48 -35.5 -81.5t-88.5 -33.5q-52 0 -87 33.5t-35 81.5zM256 730q0 -20 13 -33t34 -13t33 12t12 34t-12 34t-33 12t-34 -12.5
t-13 -33.5z" />
    <glyph glyph-name="uniF7E6" unicode="&#xf7e6;" horiz-adv-x="972" 
d="M479 0v109h-258l-93 -109h-128l445 560h483v-109h-332v-114h310v-106h-310v-122h340v-109h-457zM292 208h187v232z" />
    <glyph glyph-name="uniF7E7" unicode="&#xf7e7;" horiz-adv-x="590" 
d="M205 -166l35 59q32 -25 78 -25q39 0 39 21q0 23 -49 23h-13v84q-124 11 -196 87t-72 197q0 122 85 204t221 82q80 0 143 -27.5t94 -73.5l-78 -73q-55 61 -152 61q-87 0 -139 -46.5t-52 -126.5q0 -78 54 -125.5t139 -47.5q108 0 169 72l68 -75q-72 -101 -221 -109v-27
q50 -3 76.5 -25.5t26.5 -59.5q0 -40 -35 -65t-102 -25t-119 41z" />
    <glyph glyph-name="uniF7E8" unicode="&#xf7e8;" horiz-adv-x="550" 
d="M58 0v560h448v-109h-331v-114h309v-106h-309v-122h339v-109h-456zM310 612l-136 154l88 67l116 -168z" />
    <glyph glyph-name="uniF7E9" unicode="&#xf7e9;" horiz-adv-x="550" 
d="M58 0v560h448v-109h-331v-114h309v-106h-309v-122h339v-109h-456zM417 769l-127 -158l-76 54l118 168z" />
    <glyph glyph-name="uniF7EA" unicode="&#xf7ea;" horiz-adv-x="550" 
d="M58 0v560h448v-109h-331v-114h309v-106h-309v-122h339v-109h-456zM289 803l157 -131l-57 -69l-102 87l-106 -85l-52 68l156 130h4z" />
    <glyph glyph-name="uniF7EB" unicode="&#xf7eb;" horiz-adv-x="550" 
d="M58 0v560h448v-109h-331v-114h309v-106h-309v-122h339v-109h-456zM103 698q0 25 19 41.5t44 16.5q24 0 44 -16.5t20 -41.5q0 -26 -19.5 -43t-44.5 -17q-26 0 -44.5 16.5t-18.5 43.5zM320 698q0 25 19.5 41.5t46.5 16.5q25 0 44.5 -16.5t19.5 -41.5q0 -27 -19 -43.5
t-45 -16.5q-27 0 -46.5 16.5t-19.5 43.5z" />
    <glyph glyph-name="uniF7EC" unicode="&#xf7ec;" horiz-adv-x="243" 
d="M63 0v560h117v-560h-117zM133 612l-136 154l88 67l116 -168z" />
    <glyph glyph-name="uniF7ED" unicode="&#xf7ed;" horiz-adv-x="243" 
d="M63 0v560h117v-560h-117zM257 769l-127 -158l-76 54l118 168z" />
    <glyph glyph-name="uniF7EE" unicode="&#xf7ee;" horiz-adv-x="243" 
d="M63 0v560h117v-560h-117zM123 803l157 -131l-57 -69l-102 87l-106 -85l-52 68l156 130h4z" />
    <glyph glyph-name="uniF7EF" unicode="&#xf7ef;" horiz-adv-x="243" 
d="M63 0v560h117v-560h-117zM-52 698q0 25 19 41.5t44 16.5q24 0 44 -16.5t20 -41.5q0 -26 -19.5 -43t-44.5 -17q-26 0 -44.5 16.5t-18.5 43.5zM165 698q0 25 19.5 41.5t46.5 16.5q25 0 44.5 -16.5t19.5 -41.5q0 -27 -19 -43.5t-45 -16.5q-27 0 -46.5 16.5t-19.5 43.5z" />
    <glyph glyph-name="uniF7F0" unicode="&#xf7f0;" horiz-adv-x="665" 
d="M15 231v97h97v232h187q91 0 158.5 -21.5t106 -60t56.5 -86t18 -105.5q0 -128 -87.5 -207.5t-262.5 -79.5h-176v231h-97zM297 451h-68v-123h142v-97h-142v-122h68q219 0 219 178q0 164 -219 164z" />
    <glyph glyph-name="uniF7F1" unicode="&#xf7f1;" horiz-adv-x="629" 
d="M571 0h-91l-308 357v-357h-114v560h90l309 -359v359h114v-560zM183 632l-49 53q56 71 122 71q24 0 62 -21.5t58 -21.5q36 0 66 30l40 -59q-54 -66 -116 -66q-25 0 -62 22t-57 22q-28 0 -64 -30z" />
    <glyph glyph-name="uniF7F2" unicode="&#xf7f2;" horiz-adv-x="665" 
d="M27 280q0 121 88.5 203.5t217.5 82.5q128 0 216.5 -81.5t88.5 -204.5t-88.5 -204.5t-216.5 -81.5t-217 81.5t-89 204.5zM149 280q0 -78 54 -125.5t130 -47.5q78 0 130.5 47.5t52.5 125.5t-54 125.5t-129 47.5q-77 0 -130.5 -47.5t-53.5 -125.5zM326 612l-136 154l88 67
l116 -168z" />
    <glyph glyph-name="uniF7F3" unicode="&#xf7f3;" horiz-adv-x="665" 
d="M27 280q0 121 88.5 203.5t217.5 82.5q128 0 216.5 -81.5t88.5 -204.5t-88.5 -204.5t-216.5 -81.5t-217 81.5t-89 204.5zM149 280q0 -78 54 -125.5t130 -47.5q78 0 130.5 47.5t52.5 125.5t-54 125.5t-129 47.5q-77 0 -130.5 -47.5t-53.5 -125.5zM474 769l-127 -158l-76 54
l118 168z" />
    <glyph glyph-name="uniF7F4" unicode="&#xf7f4;" horiz-adv-x="665" 
d="M27 280q0 121 88.5 203.5t217.5 82.5q128 0 216.5 -81.5t88.5 -204.5t-88.5 -204.5t-216.5 -81.5t-217 81.5t-89 204.5zM149 280q0 -78 54 -125.5t130 -47.5q78 0 130.5 47.5t52.5 125.5t-54 125.5t-129 47.5q-77 0 -130.5 -47.5t-53.5 -125.5zM334 803l157 -131l-57 -69
l-102 87l-106 -85l-52 68l156 130h4z" />
    <glyph glyph-name="uniF7F5" unicode="&#xf7f5;" horiz-adv-x="665" 
d="M27 280q0 121 88.5 203.5t217.5 82.5q128 0 216.5 -81.5t88.5 -204.5t-88.5 -204.5t-216.5 -81.5t-217 81.5t-89 204.5zM149 280q0 -78 54 -125.5t130 -47.5q78 0 130.5 47.5t52.5 125.5t-54 125.5t-129 47.5q-77 0 -130.5 -47.5t-53.5 -125.5zM208 632l-49 53
q56 71 122 71q24 0 62 -21.5t58 -21.5q36 0 66 30l40 -59q-54 -66 -116 -66q-25 0 -62 22t-57 22q-28 0 -64 -30z" />
    <glyph glyph-name="uniF7F6" unicode="&#xf7f6;" horiz-adv-x="665" 
d="M27 280q0 121 88.5 203.5t217.5 82.5q128 0 216.5 -81.5t88.5 -204.5t-88.5 -204.5t-216.5 -81.5t-217 81.5t-89 204.5zM149 280q0 -78 54 -125.5t130 -47.5q78 0 130.5 47.5t52.5 125.5t-54 125.5t-129 47.5q-77 0 -130.5 -47.5t-53.5 -125.5zM159 698q0 25 19 41.5
t44 16.5q24 0 44 -16.5t20 -41.5q0 -26 -19.5 -43t-44.5 -17q-26 0 -44.5 16.5t-18.5 43.5zM376 698q0 25 19.5 41.5t46.5 16.5q25 0 44.5 -16.5t19.5 -41.5q0 -27 -19 -43.5t-45 -16.5q-27 0 -46.5 16.5t-19.5 43.5z" />
    <glyph glyph-name="uniF7F8" unicode="&#xf7f8;" horiz-adv-x="665" 
d="M56 44l42 49q-71 79 -71 187q0 121 88.5 203.5t217.5 82.5q80 0 148 -34l43 49l80 -64l-40 -47q74 -79 74 -190q0 -123 -88.5 -204.5t-216.5 -81.5q-83 0 -150 35l-45 -52zM516 280q0 55 -31 99l-224 -260q33 -12 72 -12q78 0 130.5 47.5t52.5 125.5zM149 280
q0 -55 28 -97l225 258q-33 12 -69 12q-77 0 -130.5 -47.5t-53.5 -125.5z" />
    <glyph glyph-name="uniF7F9" unicode="&#xf7f9;" horiz-adv-x="618" 
d="M566 560v-320q0 -84 -37.5 -141t-92 -80.5t-120.5 -23.5q-112 0 -188 65t-76 184v316h117v-302q0 -66 40 -110t107 -44q66 0 99.5 42t33.5 109v305h117zM306 612l-136 154l88 67l116 -168z" />
    <glyph glyph-name="uniF7FA" unicode="&#xf7fa;" horiz-adv-x="618" 
d="M566 560v-320q0 -84 -37.5 -141t-92 -80.5t-120.5 -23.5q-112 0 -188 65t-76 184v316h117v-302q0 -66 40 -110t107 -44q66 0 99.5 42t33.5 109v305h117zM444 769l-127 -158l-76 54l118 168z" />
    <glyph glyph-name="uniF7FB" unicode="&#xf7fb;" horiz-adv-x="618" 
d="M566 560v-320q0 -84 -37.5 -141t-92 -80.5t-120.5 -23.5q-112 0 -188 65t-76 184v316h117v-302q0 -66 40 -110t107 -44q66 0 99.5 42t33.5 109v305h117zM311 803l157 -131l-57 -69l-102 87l-106 -85l-52 68l156 130h4z" />
    <glyph glyph-name="uniF7FC" unicode="&#xf7fc;" horiz-adv-x="618" 
d="M566 560v-320q0 -84 -37.5 -141t-92 -80.5t-120.5 -23.5q-112 0 -188 65t-76 184v316h117v-302q0 -66 40 -110t107 -44q66 0 99.5 42t33.5 109v305h117zM136 698q0 25 19 41.5t44 16.5q24 0 44 -16.5t20 -41.5q0 -26 -19.5 -43t-44.5 -17q-26 0 -44.5 16.5t-18.5 43.5z
M353 698q0 25 19.5 41.5t46.5 16.5q25 0 44.5 -16.5t19.5 -41.5q0 -27 -19 -43.5t-45 -16.5q-27 0 -46.5 16.5t-19.5 43.5z" />
    <glyph glyph-name="uniF7FD" unicode="&#xf7fd;" horiz-adv-x="583" 
d="M589 560l-241 -319v-241h-117v241l-238 319h145l155 -205l156 205h140zM417 769l-127 -158l-76 54l118 168z" />
    <glyph glyph-name="uniF7FE" unicode="&#xf7fe;" horiz-adv-x="561" 
d="M175 0h-117v560h117v-82h109q137 0 193.5 -54.5t56.5 -135.5q0 -80 -60.5 -134.5t-189.5 -54.5h-109v-99zM288 369h-113v-161h107q130 0 130 81q0 80 -124 80z" />
    <glyph glyph-name="uniF7FF" unicode="&#xf7ff;" horiz-adv-x="583" 
d="M589 560l-241 -319v-241h-117v241l-238 319h145l155 -205l156 205h140zM117 698q0 25 19 41.5t44 16.5q24 0 44 -16.5t20 -41.5q0 -26 -19.5 -43t-44.5 -17q-26 0 -44.5 16.5t-18.5 43.5zM334 698q0 25 19.5 41.5t46.5 16.5q25 0 44.5 -16.5t19.5 -41.5q0 -27 -19 -43.5
t-45 -16.5q-27 0 -46.5 16.5t-19.5 43.5z" />
    <glyph glyph-name="uniFE56" unicode="&#xfe56;" horiz-adv-x="421" 
d="M275 402q0 24 -17.5 37.5t-50.5 13.5q-67 0 -100 -65l-95 44q26 70 79.5 102t118.5 32q86 0 135.5 -40.5t49.5 -104.5q0 -42 -17 -76t-35 -50.5t-49 -36.5l-28 -21t-16.5 -18.5t-8.5 -26.5q0 -15 4 -35l-106 -1q-8 24 -8 42q1 44 24 71t66 56q27 19 40.5 35.5t13.5 41.5z
M123 57q0 22 18.5 40t47.5 18q26 0 45 -18t19 -40q0 -23 -19 -41t-45 -18q-29 0 -47.5 17.5t-18.5 41.5z" />
    <glyph glyph-name="uniFE57" unicode="&#xfe57;" horiz-adv-x="263" 
d="M75 157v403h114v-403h-114zM66 57q0 22 19 40t48 18q25 0 44 -18t19 -40q0 -23 -18.5 -41t-44.5 -18q-30 0 -48.5 17.5t-18.5 41.5z" />
    <glyph glyph-name="uniFEFF" unicode="&#xfeff;" horiz-adv-x="0" 
 />
    <glyph glyph-name="nbspace" horiz-adv-x="236" 
 />
    <glyph glyph-name="caron.l" horiz-adv-x="210" 
d="M66 711h119q13 -23 13 -67q0 -52 -32 -96.5t-76 -71.5l-49 44q24 21 36 51t12 55q0 55 -23 85z" />
    <glyph glyph-name="caron.lsmall" horiz-adv-x="210" 
d="M66 560h119q13 -23 13 -67q0 -52 -32 -96t-76 -72l-49 45q24 21 36 50.5t12 54.5q0 55 -23 85z" />
    <glyph glyph-name="a.ss02" horiz-adv-x="593" 
d="M426 0v57q-17 -24 -55.5 -44.5t-90.5 -20.5q-113 0 -182 71t-69 196q0 123 73 198t182 75q100 0 142 -44v32h114v-520h-114zM301 98q42 0 77 25.5t48 61.5v170q-43 71 -130 71q-65 0 -107 -44.5t-42 -120.5q0 -75 42.5 -119t111.5 -44z" />
    <glyph glyph-name="uniF35A.ss01" horiz-adv-x="588" 
d="M58 0v560h117v-222h61l188 222h153l-233 -267l250 -293h-154l-194 228h-71v-228h-117z" />
    <glyph glyph-name="afii10028.ss01" horiz-adv-x="680" 
d="M70 0v700h121v-300h65l249 300h158l-295 -345l318 -355h-161l-260 286h-74v-286h-121z" />
    <glyph glyph-name="abreve.ss02" horiz-adv-x="593" 
d="M426 0v57q-17 -24 -55.5 -44.5t-90.5 -20.5q-113 0 -182 71t-69 196q0 123 73 198t182 75q100 0 142 -44v32h114v-520h-114zM301 98q42 0 77 25.5t48 61.5v170q-43 71 -130 71q-65 0 -107 -44.5t-42 -120.5q0 -75 42.5 -119t111.5 -44zM158 717l51 58q48 -55 112 -55
q70 0 115 53l40 -55q-63 -95 -159 -95q-57 0 -98 30.5t-61 63.5z" />
    <glyph glyph-name="uniF356.ss01" horiz-adv-x="834" 
d="M476 228v-228h-117v228h-40l-180 -228h-140l221 293l-210 267h144l175 -222h30v222h117v-222h30l175 222h144l-211 -267l222 -293h-140l-180 228h-40z" />
    <glyph glyph-name="afii10024.ss01" horiz-adv-x="957" 
d="M539 286v-286h-121v286h-51l-217 -286h-150l264 350l-252 350h150l214 -300h42v300h121v-300h42l214 300h150l-252 -350l264 -350h-150l-217 286h-51z" />
    <glyph glyph-name="aogonek.ss02" horiz-adv-x="608" 
d="M537 -96l34 -73q-33 -31 -101 -31q-55 0 -92.5 24.5t-37.5 71.5q0 33 27.5 61.5t58.5 41.5v58q-65 -65 -146 -65q-113 0 -182 71t-69 196q0 123 73 198t182 75q100 0 142 -44v32h114v-520q-33 -5 -58 -24.5t-25 -43.5q0 -17 10.5 -27t26.5 -10q24 0 43 9zM301 98
q42 0 77 25.5t48 61.5v170q-43 71 -130 71q-65 0 -107 -44.5t-42 -120.5q0 -75 42.5 -119t111.5 -44z" />
    <glyph glyph-name="adieresis.ss02" horiz-adv-x="593" 
d="M426 0v57q-17 -24 -55.5 -44.5t-90.5 -20.5q-113 0 -182 71t-69 196q0 123 73 198t182 75q100 0 142 -44v32h114v-520h-114zM301 98q42 0 77 25.5t48 61.5v170q-43 71 -130 71q-65 0 -107 -44.5t-42 -120.5q0 -75 42.5 -119t111.5 -44zM132 672q0 25 19 41.5t44 16.5
q24 0 44 -16.5t20 -41.5q0 -27 -19.5 -44t-44.5 -17q-26 0 -44.5 17t-18.5 44zM349 672q0 25 19.5 41.5t46.5 16.5q25 0 44.5 -16.5t19.5 -41.5q0 -28 -18.5 -44.5t-45.5 -16.5t-46.5 16.5t-19.5 44.5z" />
    <glyph glyph-name="aring.ss02" horiz-adv-x="593" 
d="M426 0v57q-17 -24 -55.5 -44.5t-90.5 -20.5q-113 0 -182 71t-69 196q0 123 73 198t182 75q100 0 142 -44v32h114v-520h-114zM301 98q42 0 77 25.5t48 61.5v170q-43 71 -130 71q-65 0 -107 -44.5t-42 -120.5q0 -75 42.5 -119t111.5 -44zM194 701q0 49 35 83t87 34
q53 0 88.5 -34t35.5 -83q0 -48 -35.5 -81.5t-88.5 -33.5q-52 0 -87 33.5t-35 81.5zM271 702q0 -20 12.5 -33t33.5 -13t33.5 12.5t12.5 33.5q0 22 -12.5 34t-33.5 12t-33.5 -12.5t-12.5 -33.5z" />
    <glyph glyph-name="atilde.ss02" horiz-adv-x="593" 
d="M426 0v57q-17 -24 -55.5 -44.5t-90.5 -20.5q-113 0 -182 71t-69 196q0 123 73 198t182 75q100 0 142 -44v32h114v-520h-114zM301 98q42 0 77 25.5t48 61.5v170q-43 71 -130 71q-65 0 -107 -44.5t-42 -120.5q0 -75 42.5 -119t111.5 -44zM199 612l-49 53q56 71 122 71
q24 0 62 -22t58 -22q34 0 66 30l40 -58q-54 -66 -116 -66q-25 0 -62 21.5t-57 21.5q-30 0 -64 -29z" />
    <glyph glyph-name="kcommaaccent.ss01" horiz-adv-x="528" 
d="M53 0v730h114v-412h30l180 202h147l-221 -240l233 -280h-145l-179 213h-45v-213h-114zM206 -100l95 62q45 -38 45 -87q0 -52 -28 -91.5t-64 -61.5l-53 41q35 35 35 78q0 27 -30 59z" />
    <glyph glyph-name="afii10072.ss01" horiz-adv-x="769" 
d="M441 207v-207h-114v207h-41l-151 -207h-139l195 265l-188 255h138l157 -212h29v212h114v-212h30l157 212h138l-187 -253l194 -267h-139l-151 207h-42z" />
    <glyph glyph-name="K.ss01" horiz-adv-x="680" 
d="M70 0v700h121v-300h65l249 300h158l-295 -345l318 -355h-161l-260 286h-74v-286h-121z" />
    <glyph glyph-name="afii10065.var.accented.ss02" horiz-adv-x="593" 
d="M426 0v57q-17 -24 -55.5 -44.5t-90.5 -20.5q-113 0 -182 71t-69 196q0 123 73 198t182 75q100 0 142 -44v32h114v-520h-114zM301 98q42 0 77 25.5t48 61.5v170q-43 71 -130 71q-65 0 -107 -44.5t-42 -120.5q0 -75 42.5 -119t111.5 -44zM461 755l-127 -157l-77 54l118 167
z" />
    <glyph glyph-name="Kcommaaccent.ss01" horiz-adv-x="680" 
d="M70 0v700h121v-300h65l249 300h158l-295 -345l318 -355h-161l-260 286h-74v-286h-121zM276 -100l95 62q45 -38 45 -87q0 -52 -28 -91.5t-64 -61.5l-53 41q35 35 35 78q0 27 -30 59z" />
    <glyph glyph-name="uniF689.ss01" horiz-adv-x="588" 
d="M58 0v560h117v-222h61l188 222h153l-233 -267l250 -293h-154l-194 228h-71v-228h-117zM220 -100l95 62q45 -38 45 -87q0 -52 -28 -91.5t-64 -61.5l-53 41q35 35 35 78q0 27 -30 59z" />
    <glyph glyph-name="uniF76B.ss01" horiz-adv-x="588" 
d="M58 0v560h117v-222h61l188 222h153l-233 -267l250 -293h-154l-194 228h-71v-228h-117z" />
    <glyph glyph-name="afii10065.ss02" horiz-adv-x="593" 
d="M426 0v57q-17 -24 -55.5 -44.5t-90.5 -20.5q-113 0 -182 71t-69 196q0 123 73 198t182 75q100 0 142 -44v32h114v-520h-114zM301 98q42 0 77 25.5t48 61.5v170q-43 71 -130 71q-65 0 -107 -44.5t-42 -120.5q0 -75 42.5 -119t111.5 -44z" />
    <glyph glyph-name="afii10076.ss01" horiz-adv-x="545" 
d="M53 0v520h114v-212h34l191 212h149l-233 -251l242 -269h-146l-189 203h-48v-203h-114z" />
    <glyph glyph-name="afii10109.ss01" horiz-adv-x="545" 
d="M53 0v520h114v-212h34l191 212h149l-233 -251l242 -269h-146l-189 203h-48v-203h-114zM433 755l-127 -157l-77 54l118 167z" />
    <glyph glyph-name="afii10061.ss01" horiz-adv-x="680" 
d="M70 0v700h121v-300h65l249 300h158l-295 -345l318 -355h-161l-260 286h-74v-286h-121zM512 849l-220 -104l-43 76l210 128z" />
    <glyph glyph-name="uniF37C.ss01" horiz-adv-x="588" 
d="M58 0v560h117v-222h61l188 222h153l-233 -267l250 -293h-154l-194 228h-71v-228h-117zM432 769l-127 -158l-76 54l118 168z" />
    <glyph glyph-name="agrave.ss02" horiz-adv-x="593" 
d="M426 0v57q-17 -24 -55.5 -44.5t-90.5 -20.5q-113 0 -182 71t-69 196q0 123 73 198t182 75q100 0 142 -44v32h114v-520h-114zM301 98q42 0 77 25.5t48 61.5v170q-43 71 -130 71q-65 0 -107 -44.5t-42 -120.5q0 -75 42.5 -119t111.5 -44zM320 598l-137 154l89 67l115 -167z
" />
    <glyph glyph-name="amacron.ss02" horiz-adv-x="593" 
d="M426 0v57q-17 -24 -55.5 -44.5t-90.5 -20.5q-113 0 -182 71t-69 196q0 123 73 198t182 75q100 0 142 -44v32h114v-520h-114zM301 98q42 0 77 25.5t48 61.5v170q-43 71 -130 71q-65 0 -107 -44.5t-42 -120.5q0 -75 42.5 -119t111.5 -44zM178 625v95h281v-95h-281z" />
    <glyph glyph-name="k.ss01" horiz-adv-x="528" 
d="M53 0v730h114v-412h30l180 202h147l-221 -240l233 -280h-145l-179 213h-45v-213h-114z" />
    <glyph glyph-name="aacute.ss02" horiz-adv-x="593" 
d="M426 0v57q-17 -24 -55.5 -44.5t-90.5 -20.5q-113 0 -182 71t-69 196q0 123 73 198t182 75q100 0 142 -44v32h114v-520h-114zM301 98q42 0 77 25.5t48 61.5v170q-43 71 -130 71q-65 0 -107 -44.5t-42 -120.5q0 -75 42.5 -119t111.5 -44zM461 755l-127 -157l-77 54l118 167
z" />
    <glyph glyph-name="acircumflex.ss02" horiz-adv-x="593" 
d="M426 0v57q-17 -24 -55.5 -44.5t-90.5 -20.5q-113 0 -182 71t-69 196q0 123 73 198t182 75q100 0 142 -44v32h114v-520h-114zM301 98q42 0 77 25.5t48 61.5v170q-43 71 -130 71q-65 0 -107 -44.5t-42 -120.5q0 -75 42.5 -119t111.5 -44zM312 790l157 -131l-57 -70l-102 88
l-106 -85l-52 68l156 130h4z" />
    </font>
</defs>
</svg>
